<svg xmlns="http://www.w3.org/2000/svg" width="102.042" height="87.597" viewBox="0 0 102.042 87.597">
  <g id="Group_3113" data-name="Group 3113" transform="translate(200.21 -303.77)">
    <path id="Path_2469" data-name="Path 2469" d="M-142.94,314.158a9.382,9.382,0,0,1,10.3-9.335,9.652,9.652,0,0,1,8.457,9.737v4.678a1.955,1.955,0,0,1-1.954,1.954H-142.94Zm.008,23.539V314.15a9.647,9.647,0,0,1,.059-1.075v-.02c.02-.234.078-.469.117-.7a1.826,1.826,0,0,0,.078-.313,3.9,3.9,0,0,1,.176-.684,9.069,9.069,0,0,1,1.72-3.166c.2-.234.391-.449.606-.664m-2.755,54.5V342.406m0,27.357v5.354a9.37,9.37,0,0,1-9.38,9.38h-46.9a9.37,9.37,0,0,0,9.38-9.38V314.15a9.075,9.075,0,0,1,.684-3.5,9.323,9.323,0,0,1,8.188-5.862,4.259,4.259,0,0,1,.508-.02h46.9a7.946,7.946,0,0,0-.977.059,5.22,5.22,0,0,0-.938.156,6.742,6.742,0,0,0-.9.234M-182.8,323.537h32.829m-32.829,9.38h32.829M-182.8,342.3h24.622m-24.622,9.38h21.1m-21.1,9.38h16.414m-16.414,9.38h16.414" transform="translate(0)" fill="none" stroke="#121947" stroke-linecap="round" stroke-linejoin="round" stroke-width="2"/>
    <path id="Path_2470" data-name="Path 2470" d="M-125.277,330.95a2.339,2.339,0,0,1-2.345,2.345,2.327,2.327,0,0,1-2.345-2.345c0-2.54-3.224-4.69-7.035-4.69a11.889,11.889,0,0,0-5.9,1.6,2.926,2.926,0,0,0,.039-.43l-3.068-3.068A15.772,15.772,0,0,1-137,321.57C-130.553,321.57-125.277,325.791-125.277,330.95Zm-26.244-6.585a15.82,15.82,0,0,0-8.93-2.794,10.33,10.33,0,0,0-1.563.1c-5.725.606-10.161,4.553-10.161,9.282a2.327,2.327,0,0,0,2.345,2.345,2.339,2.339,0,0,0,2.345-2.345c0-2.189,2.364-4.084,5.471-4.573a10.328,10.328,0,0,1,1.563-.117,11.946,11.946,0,0,1,5.9,1.6,2.924,2.924,0,0,1-.039-.43Zm6.312,34.724V329.777h-7.035v29.311m3.517-37.519-5.862,5.862a2.924,2.924,0,0,0,.039.43,5.281,5.281,0,0,1,1.974,1.9,1.789,1.789,0,0,0,.332.02h7.035a1.789,1.789,0,0,0,.332-.02,5.281,5.281,0,0,1,1.974-1.9,2.926,2.926,0,0,0,.039-.43Zm-5.823,6.292a5.281,5.281,0,0,1,1.974,1.9m7.7,0a5.281,5.281,0,0,1,1.974-1.9m8.238,44.522v-1.563a4.69,4.69,0,0,0-4.69-4.69h-18.759a4.691,4.691,0,0,0-4.69,4.69v1.563a1.955,1.955,0,0,0,1.954,1.954h24.231A1.955,1.955,0,0,0-134.664,372.384Zm-3.517-9.771h0A3.518,3.518,0,0,0-141.7,359.1h-14.07a3.518,3.518,0,0,0-3.517,3.517h0a3.518,3.518,0,0,0,3.517,3.517h14.07A3.518,3.518,0,0,0-138.182,362.614Zm1.172-14.07h18.759l-9.38-15.242Zm-25-2.548-7.816-12.7-9.38,15.242h18.759Zm-17.2,2.54a9.37,9.37,0,0,0,9.38,9.38,9.376,9.376,0,0,0,7.816-4.182,9.417,9.417,0,0,0,1.563-5.2Zm42.2.008a9.38,9.38,0,0,0,9.38,9.38,9.38,9.38,0,0,0,9.38-9.38Z" transform="translate(19.082 16.029)" fill="none" stroke="#9e181a" stroke-linecap="round" stroke-linejoin="round" stroke-width="2"/>
  </g>
</svg>
