<svg xmlns="http://www.w3.org/2000/svg" width="110.858" height="94.784" viewBox="0 0 110.858 94.784">
  <g id="Group_3014" data-name="Group 3014" transform="translate(1.012 1.006)">
    <g id="Group_1089" data-name="Group 1089" transform="translate(0 0)">
      <g id="Group_1088" data-name="Group 1088">
        <g id="Group_1085" data-name="Group 1085">
          <g id="Group_1083" data-name="Group 1083" transform="translate(30.613)">
            <path id="Path_1019" data-name="Path 1019" d="M41.166,155.274l.339,1.149-.6.17" transform="translate(-33.794 -118.684)" fill="none" stroke="#121947" stroke-linecap="round" stroke-linejoin="round" stroke-width="2"/>
            <path id="Path_1020" data-name="Path 1020" d="M54.585,142.259,43.449,171.65l-1.656-5.689,4.558-23.383a1.878,1.878,0,0,1,2.2-1.486Z" transform="translate(-32.518 -139.055)" fill="none" stroke="#121947" stroke-linecap="round" stroke-linejoin="round" stroke-width="2"/>
            <path id="Path_1021" data-name="Path 1021" d="M63.922,175.884l-.433-.095-23.364-4.558a1.885,1.885,0,0,1-1.206-.793,1.961,1.961,0,0,1-.282-1.413l.489-2.542,24.456,9.27Z" transform="translate(-37.087 -102.629)" fill="none" stroke="#121947" stroke-linecap="round" stroke-linejoin="round" stroke-width="2"/>
            <path id="Path_1022" data-name="Path 1022" d="M61.914,170.65l-.472,2.374a1.882,1.882,0,0,1-2.2,1.489l-.924-.19.961-2.542Z" transform="translate(-8.852 -96.66)" fill="none" stroke="#121947" stroke-linecap="round" stroke-linejoin="round" stroke-width="2"/>
            <path id="Path_1023" data-name="Path 1023" d="M61.23,170.171a3.3,3.3,0,0,0-.6,3.089v.019l-.019.056-.489-1.131a1.577,1.577,0,0,0-.3-.472l2.279-6.008Z" transform="translate(-6.7 -103.716)" fill="none" stroke="#121947" stroke-linecap="round" stroke-linejoin="round" stroke-width="2"/>
            <path id="Path_1024" data-name="Path 1024" d="M85.627,158.674l-1.075,2.807a1.864,1.864,0,0,1-2.43,1.092L49.714,150.289a1.864,1.864,0,0,1-1.092-2.43l1.056-2.807a1.946,1.946,0,0,1,1-1.056,1.889,1.889,0,0,1,1.433-.056l32.424,12.3a1.847,1.847,0,0,1,1.056.978A1.946,1.946,0,0,1,85.627,158.674Z" transform="translate(-22.918 -135.084)" fill="none" stroke="#121947" stroke-linecap="round" stroke-linejoin="round" stroke-width="2"/>
            <path id="Path_1025" data-name="Path 1025" d="M76.067,149.14l-.3,1.545L56.68,143.431l17.9,3.505A1.883,1.883,0,0,1,76.067,149.14Z" transform="translate(-11.193 -135.649)" fill="none" stroke="#121947" stroke-linecap="round" stroke-linejoin="round" stroke-width="2"/>
            <path id="Path_1026" data-name="Path 1026" d="M39.26,163.349l1.074-.32.81-.226-.452-1.564" transform="translate(-36.147 -110.141)" fill="none" stroke="#121947" stroke-linecap="round" stroke-linejoin="round" stroke-width="2"/>
            <path id="Path_1027" data-name="Path 1027" d="M108.336,157.454l-5.782-2.187-19.087-7.254-20.235-7.667a1.886,1.886,0,0,0-1.433.056,1.848,1.848,0,0,0-1,1.036l-.754,2L48.912,172.827l4.994,17.183.131.452a3.768,3.768,0,0,1-2.561,4.673l-10.289,3-2.089.6-1,2.617a1.885,1.885,0,0,0,1.092,2.413l.829.321,24.456,9.27.341.131,7.424,1.45,16.691-7.2a1.934,1.934,0,0,1,1.452-.017,1.8,1.8,0,0,1,.715.525l2.279-6.008,16.054-42.356A1.866,1.866,0,0,0,108.336,157.454Zm-7.648,6.368-1.075,2.807a1.864,1.864,0,0,1-2.43,1.092L64.776,155.437a1.864,1.864,0,0,1-1.092-2.43l1.056-2.807a1.946,1.946,0,0,1,1-1.056,1.889,1.889,0,0,1,1.433-.056l32.424,12.3a1.847,1.847,0,0,1,1.056.978A1.946,1.946,0,0,1,100.688,163.822Z" transform="translate(-37.98 -140.232)" fill="none" stroke="#121947" stroke-linecap="round" stroke-linejoin="round" stroke-width="2"/>
            <path id="Path_1028" data-name="Path 1028" d="M56.435,171.8l-1.677.716-5.747-2.167Z" transform="translate(-22.177 -97.093)" fill="none" stroke="#121947" stroke-linecap="round" stroke-linejoin="round" stroke-width="2"/>
            <path id="Path_1029" data-name="Path 1029" d="M63.846,171.115l-.961,2.542-.715,1.885a1.867,1.867,0,0,1-.98,1.056,2.028,2.028,0,0,1-1.45.036l-4.617-1.751L59.475,173Z" transform="translate(-13.423 -95.993)" fill="none" stroke="#121947" stroke-linecap="round" stroke-linejoin="round" stroke-width="2"/>
            <path id="Path_1030" data-name="Path 1030" d="M85.627,158.674l-1.075,2.807a1.864,1.864,0,0,1-2.43,1.092L49.714,150.289a1.864,1.864,0,0,1-1.092-2.43l1.056-2.807a1.946,1.946,0,0,1,1-1.056,1.889,1.889,0,0,1,1.433-.056l32.424,12.3a1.847,1.847,0,0,1,1.056.978A1.946,1.946,0,0,1,85.627,158.674Z" transform="translate(-22.918 -135.084)" fill="none" stroke="#121947" stroke-linecap="round" stroke-linejoin="round" stroke-width="2"/>
            <path id="Path_1031" data-name="Path 1031" d="M85.627,158.674l-1.075,2.807a1.864,1.864,0,0,1-2.43,1.092L49.714,150.289a1.864,1.864,0,0,1-1.092-2.43l1.056-2.807a1.946,1.946,0,0,1,1-1.056,1.889,1.889,0,0,1,1.433-.056l32.424,12.3a1.847,1.847,0,0,1,1.056.978A1.946,1.946,0,0,1,85.627,158.674Z" transform="translate(-22.918 -135.084)" fill="none" stroke="#121947" stroke-linecap="round" stroke-linejoin="round" stroke-width="2"/>
            <line id="Line_71" data-name="Line 71" x1="0.802" y2="2.114" transform="translate(57.768 34.506)" fill="none" stroke="#121947" stroke-linecap="round" stroke-linejoin="round" stroke-width="2"/>
            <line id="Line_72" data-name="Line 72" x1="0.802" y2="2.114" transform="translate(53.54 32.904)" fill="none" stroke="#121947" stroke-linecap="round" stroke-linejoin="round" stroke-width="2"/>
            <line id="Line_73" data-name="Line 73" x1="0.802" y2="2.115" transform="translate(49.311 31.301)" fill="none" stroke="#121947" stroke-linecap="round" stroke-linejoin="round" stroke-width="2"/>
            <line id="Line_74" data-name="Line 74" x1="0.802" y2="2.115" transform="translate(45.083 29.698)" fill="none" stroke="#121947" stroke-linecap="round" stroke-linejoin="round" stroke-width="2"/>
            <line id="Line_75" data-name="Line 75" x1="0.8" y2="2.114" transform="translate(55.365 40.849)" fill="none" stroke="#121947" stroke-linecap="round" stroke-linejoin="round" stroke-width="2"/>
            <line id="Line_76" data-name="Line 76" x1="0.8" y2="2.115" transform="translate(51.136 39.246)" fill="none" stroke="#121947" stroke-linecap="round" stroke-linejoin="round" stroke-width="2"/>
            <line id="Line_77" data-name="Line 77" x1="0.8" y2="2.115" transform="translate(46.908 37.643)" fill="none" stroke="#121947" stroke-linecap="round" stroke-linejoin="round" stroke-width="2"/>
            <line id="Line_78" data-name="Line 78" x1="0.8" y2="2.115" transform="translate(52.96 47.191)" fill="none" stroke="#121947" stroke-linecap="round" stroke-linejoin="round" stroke-width="2"/>
            <line id="Line_79" data-name="Line 79" x1="0.8" y2="2.115" transform="translate(48.732 45.588)" fill="none" stroke="#121947" stroke-linecap="round" stroke-linejoin="round" stroke-width="2"/>
            <line id="Line_80" data-name="Line 80" x1="0.8" y2="2.114" transform="translate(44.503 43.985)" fill="none" stroke="#121947" stroke-linecap="round" stroke-linejoin="round" stroke-width="2"/>
            <line id="Line_81" data-name="Line 81" x1="0.8" y2="2.114" transform="translate(40.275 42.383)" fill="none" stroke="#121947" stroke-linecap="round" stroke-linejoin="round" stroke-width="2"/>
            <line id="Line_82" data-name="Line 82" x2="16.913" y2="6.41" transform="translate(21.828 22.997)" fill="none" stroke="#121947" stroke-linecap="round" stroke-linejoin="round" stroke-width="2"/>
            <line id="Line_83" data-name="Line 83" x2="12.685" y2="4.807" transform="translate(19.423 29.34)" fill="none" stroke="#121947" stroke-linecap="round" stroke-linejoin="round" stroke-width="2"/>
            <line id="Line_84" data-name="Line 84" x2="14.799" y2="5.61" transform="translate(17.02 35.682)" fill="none" stroke="#121947" stroke-linecap="round" stroke-linejoin="round" stroke-width="2"/>
            <line id="Line_85" data-name="Line 85" x1="0.802" y2="2.115" transform="translate(50.555 53.533)" fill="none" stroke="#121947" stroke-linecap="round" stroke-linejoin="round" stroke-width="2"/>
            <line id="Line_86" data-name="Line 86" x1="0.802" y2="2.115" transform="translate(46.327 51.93)" fill="none" stroke="#121947" stroke-linecap="round" stroke-linejoin="round" stroke-width="2"/>
            <line id="Line_87" data-name="Line 87" x1="0.802" y2="2.114" transform="translate(42.099 50.328)" fill="none" stroke="#121947" stroke-linecap="round" stroke-linejoin="round" stroke-width="2"/>
            <line id="Line_88" data-name="Line 88" x1="0.802" y2="2.114" transform="translate(37.87 48.725)" fill="none" stroke="#121947" stroke-linecap="round" stroke-linejoin="round" stroke-width="2"/>
            <line id="Line_89" data-name="Line 89" x1="0.802" y2="2.114" transform="translate(33.642 47.123)" fill="none" stroke="#121947" stroke-linecap="round" stroke-linejoin="round" stroke-width="2"/>
            <line id="Line_90" data-name="Line 90" x2="8.456" y2="3.206" transform="translate(14.615 42.024)" fill="none" stroke="#121947" stroke-linecap="round" stroke-linejoin="round" stroke-width="2"/>
            <line id="Line_91" data-name="Line 91" x1="0.8" y2="2.115" transform="translate(48.152 59.876)" fill="none" stroke="#121947" stroke-linecap="round" stroke-linejoin="round" stroke-width="2"/>
            <line id="Line_92" data-name="Line 92" x1="0.8" y2="2.115" transform="translate(43.924 58.273)" fill="none" stroke="#121947" stroke-linecap="round" stroke-linejoin="round" stroke-width="2"/>
            <line id="Line_93" data-name="Line 93" x1="17.428" y1="6.594" transform="translate(15.925 49.779)" fill="none" stroke="#121947" stroke-linecap="round" stroke-linejoin="round" stroke-width="2"/>
            <g id="Group_1082" data-name="Group 1082" transform="translate(25.298 62.101)">
              <path id="Path_1032" data-name="Path 1032" d="M50.569,172.327a3.392,3.392,0,1,1,4.374-1.97" transform="translate(-48.38 -165.762)" fill="none" stroke="#121947" stroke-linecap="round" stroke-linejoin="round" stroke-width="2"/>
              <path id="Path_1033" data-name="Path 1033" d="M50.913,169.377a3.39,3.39,0,0,1,4.374-1.97" transform="translate(-44.752 -163.724)" fill="none" stroke="#121947" stroke-linecap="round" stroke-linejoin="round" stroke-width="2"/>
              <path id="Path_1034" data-name="Path 1034" d="M53.086,170.2a3.392,3.392,0,0,1,4.374-1.968" transform="translate(-41.639 -162.544)" fill="none" stroke="#121947" stroke-linecap="round" stroke-linejoin="round" stroke-width="2"/>
            </g>
          </g>
          <g id="Group_1084" data-name="Group 1084" transform="translate(0 6.99)">
            <path id="Path_1035" data-name="Path 1035" d="M72.065,186.346l-.131-.452-4.994-17.183-1.656-5.689-5.013-17.2a3.739,3.739,0,0,0-4.653-2.561l-27.508,7.988a3.768,3.768,0,0,0-2.561,4.673l11.775,40.527a3.77,3.77,0,0,0,4.673,2.564l15.13-4.391,2.089-.6,10.289-3A3.768,3.768,0,0,0,72.065,186.346ZM32.1,162.248,30.613,157.2a1.88,1.88,0,0,1,1.282-2.338l22.439-6.538a1.89,1.89,0,0,1,2.338,1.282l1.469,5.069a1.871,1.871,0,0,1-1.282,2.335L34.42,163.53A1.853,1.853,0,0,1,32.1,162.248ZM65.7,187.4,61,188.778l-.81.226-1.073.319-4.636,1.357-6.519,1.883-4.692,1.377a1.878,1.878,0,0,1-2.335-1.282l-1.374-4.709-1.9-6.519-1.883-6.5L34.4,170.219a1.886,1.886,0,0,1,1.282-2.335l4.709-1.377,6.519-1.885,6.5-1.883v-.019l4.709-1.357a1.878,1.878,0,0,1,2.338,1.282l1.355,4.692h.019l1.545,5.351v.017l.341,1.151.545,1.883,2.715,9.328A1.871,1.871,0,0,1,65.7,187.4Z" transform="translate(-25.394 -143.105)" fill="none" stroke="#121947" stroke-linecap="round" stroke-linejoin="round" stroke-width="2"/>
            <path id="Path_1036" data-name="Path 1036" d="M53.829,153.98,31.389,160.5a1.853,1.853,0,0,1-2.318-1.282l-1.489-5.047a1.88,1.88,0,0,1,1.282-2.338L51.3,145.294a1.89,1.89,0,0,1,2.338,1.282l1.469,5.069A1.871,1.871,0,0,1,53.829,153.98Z" transform="translate(-22.364 -140.075)" fill="none" stroke="#121947" stroke-linecap="round" stroke-linejoin="round" stroke-width="2"/>
            <path id="Path_1037" data-name="Path 1037" d="M55.291,176.509l.452,1.564-.81.226-1.073.319-4.636,1.357-6.519,1.883-4.692,1.377a1.878,1.878,0,0,1-2.335-1.282L34.3,177.244l-1.9-6.519-1.883-6.5-1.377-4.709a1.889,1.889,0,0,1,1.282-2.338l4.709-1.374,6.519-1.885,6.5-1.883v-.019l4.709-1.357a1.878,1.878,0,0,1,2.338,1.282l1.355,4.692h.019l1.545,5.351V162l.341,1.151-.6.17-5.916,1.712v.019l1.9,6.5,1.168,4.011" transform="translate(-20.134 -132.4)" fill="none" stroke="#121947" stroke-linecap="round" stroke-linejoin="round" stroke-width="2"/>
            <path id="Path_1038" data-name="Path 1038" d="M41.54,168.162l-1.168-4.011-1.9-6.5v-.019l5.916-1.712.6-.17.545,1.883,2.715,9.328a1.871,1.871,0,0,1-1.282,2.335l-4.692,1.377-.452-1.564" transform="translate(-6.665 -124.997)" fill="none" stroke="#121947" stroke-linecap="round" stroke-linejoin="round" stroke-width="2"/>
            <path id="Path_1039" data-name="Path 1039" d="M55.291,176.509l.452,1.564-.81.226-1.073.319-4.636,1.357-6.519,1.883-4.692,1.377a1.878,1.878,0,0,1-2.335-1.282L34.3,177.244l-1.9-6.519-1.883-6.5-1.377-4.709a1.889,1.889,0,0,1,1.282-2.338l4.709-1.374,6.519-1.885,6.5-1.883v-.019l4.709-1.357a1.878,1.878,0,0,1,2.338,1.282l1.355,4.692h.019l1.545,5.351V162l.341,1.151-.6.17-5.916,1.712v.019l1.9,6.5,1.168,4.011" transform="translate(-20.134 -132.4)" fill="none" stroke="#121947" stroke-linecap="round" stroke-linejoin="round" stroke-width="2"/>
            <line id="Line_94" data-name="Line 94" x2="7.575" y2="26.052" transform="translate(15.001 23.407)" fill="none" stroke="#121947" stroke-linecap="round" stroke-linejoin="round" stroke-width="2"/>
            <line id="Line_95" data-name="Line 95" x2="7.577" y2="26.052" transform="translate(21.513 21.514)" fill="none" stroke="#121947" stroke-linecap="round" stroke-linejoin="round" stroke-width="2"/>
            <path id="Path_1040" data-name="Path 1040" d="M36.913,151.177l1.9,6.5,1.884,6.5" transform="translate(-8.895 -131.544)" fill="none" stroke="#121947" stroke-linecap="round" stroke-linejoin="round" stroke-width="2"/>
            <line id="Line_96" data-name="Line 96" x1="0.283" y1="0.942" transform="translate(34.876 43.166)" fill="none" stroke="#121947" stroke-linecap="round" stroke-linejoin="round" stroke-width="2"/>
            <path id="Path_1041" data-name="Path 1041" d="M55.7,153.067l-6.5,1.9-6.519,1.9-6.5,1.884-6.519,1.9" transform="translate(-19.281 -128.836)" fill="none" stroke="#121947" stroke-linecap="round" stroke-linejoin="round" stroke-width="2"/>
            <path id="Path_1042" data-name="Path 1042" d="M49.976,156.529l-6.5,1.884L36.956,160.3l-6.519,1.9" transform="translate(-18.171 -123.877)" fill="none" stroke="#121947" stroke-linecap="round" stroke-linejoin="round" stroke-width="2"/>
            <line id="Line_97" data-name="Line 97" y1="5.681" x2="19.538" transform="translate(14.17 39.159)" fill="none" stroke="#121947" stroke-linecap="round" stroke-linejoin="round" stroke-width="2"/>
            <path id="Path_1043" data-name="Path 1043" d="M53.829,153.98,31.389,160.5a1.853,1.853,0,0,1-2.318-1.282l-1.489-5.047a1.88,1.88,0,0,1,1.282-2.338L51.3,145.294a1.89,1.89,0,0,1,2.338,1.282l1.469,5.069A1.871,1.871,0,0,1,53.829,153.98Z" transform="translate(-22.364 -140.075)" fill="none" stroke="#121947" stroke-linecap="round" stroke-linejoin="round" stroke-width="2"/>
          </g>
        </g>
        <g id="Group_1087" data-name="Group 1087" transform="translate(48.711 65.264)">
          <g id="Group_1086" data-name="Group 1086">
            <path id="Path_1044" data-name="Path 1044" d="M46.2,180.225a4.522,4.522,0,0,1,2.364-5.942l12.459-5.368" transform="translate(-44.836 -164.41)" fill="none" stroke="#121947" stroke-linecap="round" stroke-linejoin="round" stroke-width="2"/>
            <path id="Path_1045" data-name="Path 1045" d="M68.662,168.139s-2.131,4.617-3.846,5.351a3.415,3.415,0,0,1-4.464-1.754V171.7l-.019-.036a1.872,1.872,0,0,1-.095-.3v-.019a3.3,3.3,0,0,1,.6-3.089,3.069,3.069,0,0,1,1.282-1C63.856,166.519,68.662,168.139,68.662,168.139Z" transform="translate(-24.409 -167.062)" fill="none" stroke="#121947" stroke-linecap="round" stroke-linejoin="round" stroke-width="2"/>
            <path id="Path_1046" data-name="Path 1046" d="M74.028,174.31l-.564.246-2.639,1.131-4.371,1.883L62.1,179.455l-9.175,3.938-2.676-6.217,2.732-1.187,1.678-.718,16.691-7.2a1.934,1.934,0,0,1,1.452-.017,1.8,1.8,0,0,1,.715.525,1.578,1.578,0,0,1,.3.472l.489,1.131.114.246.019.036v.036l.584,1.321A1.9,1.9,0,0,1,74.028,174.31Z" transform="translate(-38.5 -165.829)" fill="none" stroke="#121947" stroke-linecap="round" stroke-linejoin="round" stroke-width="2"/>
            <path id="Path_1047" data-name="Path 1047" d="M59.847,177.944l-10.382,4.483a2.273,2.273,0,0,1-2.977-1.187l-.885-2.072a2.272,2.272,0,0,1,1.187-2.977l10.382-4.464Z" transform="translate(-45.42 -160.381)" fill="none" stroke="#121947" stroke-linecap="round" stroke-linejoin="round" stroke-width="2"/>
          </g>
        </g>
      </g>
    </g>
    <g id="Group_1094" data-name="Group 1094" transform="translate(7.992 43.438)">
      <g id="Group_1093" data-name="Group 1093">
        <g id="Group_1090" data-name="Group 1090" transform="translate(15.982 34.19)">
          <path id="Path_1048" data-name="Path 1048" d="M54.648,178.215a1.865,1.865,0,0,1-1.153,2.588,47.089,47.089,0,0,0-12.948,6.159,1.868,1.868,0,0,1-2.734-.739l-.645-1.357-1.737-3.651a1.862,1.862,0,0,1,.615-2.328,47,47,0,0,1,14.023-6.67,1.867,1.867,0,0,1,2.2.99L54,176.858Z" transform="translate(-35.251 -172.146)" fill="none" stroke="#121947" stroke-linecap="round" stroke-linejoin="round" stroke-width="2"/>
          <path id="Path_1049" data-name="Path 1049" d="M41.951,175.336a1.864,1.864,0,1,0-.883,2.484A1.863,1.863,0,0,0,41.951,175.336Z" transform="translate(-30.734 -169.103)" fill="none" stroke="#121947" stroke-linecap="round" stroke-linejoin="round" stroke-width="2"/>
        </g>
        <g id="Group_1091" data-name="Group 1091" transform="translate(85.452)">
          <path id="Path_1050" data-name="Path 1050" d="M69.786,177.431a1.863,1.863,0,0,0,2.612-1.092,47.1,47.1,0,0,1,6.458-12.8,1.869,1.869,0,0,0-.679-2.751l-1.34-.676-3.612-1.819a1.856,1.856,0,0,0-2.338.562,46.892,46.892,0,0,0-6.993,13.865,1.862,1.862,0,0,0,.939,2.216l3.61,1.822Z" transform="translate(-63.81 -158.09)" fill="none" stroke="#121947" stroke-linecap="round" stroke-linejoin="round" stroke-width="2"/>
          <path id="Path_1051" data-name="Path 1051" d="M67.015,164.758a1.863,1.863,0,1,1,2.5-.825A1.861,1.861,0,0,1,67.015,164.758Z" transform="translate(-60.689 -153.592)" fill="none" stroke="#121947" stroke-linecap="round" stroke-linejoin="round" stroke-width="2"/>
        </g>
        <g id="Group_1092" data-name="Group 1092" transform="translate(0 23.084)">
          <path id="Path_1052" data-name="Path 1052" d="M43.051,168.2a1.866,1.866,0,0,0-2.831.061,46.479,46.479,0,0,1-4.979,5.188,46.583,46.583,0,0,1-5.711,4.369,1.866,1.866,0,0,0-.375,2.807l1,1.121,2.7,3.014a1.862,1.862,0,0,0,2.384.331,46.979,46.979,0,0,0,11.578-10.348,1.866,1.866,0,0,0-.063-2.408l-2.7-3.011Z" transform="translate(-28.68 -167.58)" fill="none" stroke="#121947" stroke-linecap="round" stroke-linejoin="round" stroke-width="2"/>
          <path id="Path_1053" data-name="Path 1053" d="M35.14,171.278a1.865,1.865,0,1,1-2.629-.148A1.863,1.863,0,0,1,35.14,171.278Z" transform="translate(-24.085 -163.175)" fill="none" stroke="#121947" stroke-linecap="round" stroke-linejoin="round" stroke-width="2"/>
        </g>
      </g>
    </g>
  </g>
</svg>
