<svg xmlns="http://www.w3.org/2000/svg" width="17.326" height="20.591" viewBox="0 0 17.326 20.591">
  <g id="Idea" transform="translate(-381.965 -2552.729)">
    <path id="Path_252" data-name="Path 252" d="M28.088,93.5a4.9,4.9,0,1,1,8.645,3.154,4.352,4.352,0,0,0-1.024,2.8v1.117H30.264V99.462a4.337,4.337,0,0,0-1.024-2.8A4.876,4.876,0,0,1,28.088,93.5Z" transform="translate(357.642 2467.888)" fill="none" stroke="#9e181a" stroke-linecap="round" stroke-linejoin="round" stroke-width="1"/>
    <path id="Path_253" data-name="Path 253" d="M29.924,94.9h3.268a1.09,1.09,0,0,0,1.088-1.088V92.721H28.836v1.088A1.09,1.09,0,0,0,29.924,94.9Z" transform="translate(359.07 2475.746)" fill="none" stroke="#9e181a" stroke-linecap="round" stroke-linejoin="round" stroke-width="1"/>
    <path id="Path_254" data-name="Path 254" d="M29.21,94.013a1.634,1.634,0,0,0,3.268,0v-.544H29.21Z" transform="translate(359.784 2477.175)" fill="none" stroke="#9e181a" stroke-linecap="round" stroke-linejoin="round" stroke-width="1"/>
    <line id="Line_56" data-name="Line 56" y1="1.088" transform="translate(390.628 2553.229)" fill="none" stroke="#9e181a" stroke-linecap="round" stroke-linejoin="round" stroke-width="1"/>
    <line id="Line_57" data-name="Line 57" x1="0.77" y1="0.77" transform="translate(384.856 2555.62)" fill="none" stroke="#9e181a" stroke-linecap="round" stroke-linejoin="round" stroke-width="1"/>
    <line id="Line_58" data-name="Line 58" x1="1.088" transform="translate(382.465 2561.392)" fill="none" stroke="#9e181a" stroke-linecap="round" stroke-linejoin="round" stroke-width="1"/>
    <line id="Line_59" data-name="Line 59" y1="0.77" x2="0.77" transform="translate(395.63 2555.62)" fill="none" stroke="#9e181a" stroke-linecap="round" stroke-linejoin="round" stroke-width="1"/>
    <line id="Line_60" data-name="Line 60" x2="1.088" transform="translate(397.702 2561.392)" fill="none" stroke="#9e181a" stroke-linecap="round" stroke-linejoin="round" stroke-width="1"/>
  </g>
</svg>
