<svg xmlns="http://www.w3.org/2000/svg" width="240.278" height="50" viewBox="0 0 240.278 50">
  <g id="Group_1" data-name="Group 1" transform="translate(0 0)">
    <path id="Path_1" data-name="Path 1" d="M-185.75-198.76a10.587,10.587,0,0,1,2.889-1.778,9.66,9.66,0,0,1,3.944-.833,8.433,8.433,0,0,1,3.945.861,7.739,7.739,0,0,1,2.722,2.375,10.771,10.771,0,0,1,1.542,3.625,20.327,20.327,0,0,1,.5,4.5q0,5.687-2.75,8.528a10.008,10.008,0,0,1-7.584,2.833,20.056,20.056,0,0,1-2.527-.153,20.256,20.256,0,0,1-2.681-.514Zm0-24.431-6.389,1.028V-174.9a44.229,44.229,0,0,0,5.028,1.139,39.115,39.115,0,0,0,7.139.569,17.867,17.867,0,0,0,6.625-1.18,14.537,14.537,0,0,0,5.1-3.348,15.4,15.4,0,0,0,3.264-5.305,20.078,20.078,0,0,0,1.167-6.986,22.473,22.473,0,0,0-.973-6.82,15.879,15.879,0,0,0-2.791-5.291,12.792,12.792,0,0,0-4.486-3.459,14.112,14.112,0,0,0-6.014-1.25,14.416,14.416,0,0,0-4.542.7,17.325,17.325,0,0,0-3.125,1.333Z" transform="translate(192.139 223.191)" fill="#b02819" fill-rule="evenodd"/>
    <path id="Path_2" data-name="Path 2" d="M-141.528-186.371a29.1,29.1,0,0,0,.514,5.722,9.976,9.976,0,0,0,1.792,4.139,7.825,7.825,0,0,0,3.4,2.5,14.863,14.863,0,0,0,5.361.819,15.219,15.219,0,0,0,2.666-.222c.861-.153,1.625-.333,2.334-.528a18.714,18.714,0,0,0,1.861-.653c.541-.236.958-.416,1.264-.569l-.861-5.306a10.441,10.441,0,0,1-2.723,1.25,12.088,12.088,0,0,1-3.819.57,4.957,4.957,0,0,1-4.056-1.639q-1.333-1.667-1.333-6.514V-206.83h-16.444v5.459h10.041Zm5.07-27.25a4.955,4.955,0,0,0,1.333-3.667,4.931,4.931,0,0,0-1.333-3.639,4.364,4.364,0,0,0-3.236-1.361,4.4,4.4,0,0,0-3.223,1.361,4.888,4.888,0,0,0-1.347,3.639,4.911,4.911,0,0,0,1.347,3.667,4.378,4.378,0,0,0,3.223,1.333A4.343,4.343,0,0,0-136.458-213.621Z" transform="translate(192.139 223.191)" fill="#b02819" fill-rule="evenodd"/>
    <path id="Path_3" data-name="Path 3" d="M-81.778-206.83h-25.583v5.459h17.278c-1.139,1.305-16.278,21.944-17.278,23.805v4.375h25.583v-5.458H-98.653c1.236-2.1,16.056-22.25,16.875-23.236Z" transform="translate(192.139 223.191)" fill="#b02819" fill-rule="evenodd"/>
    <path id="Path_4" data-name="Path 4" d="M-56.736-186.371a28.065,28.065,0,0,0,.514,5.722,9.773,9.773,0,0,0,1.778,4.139,7.871,7.871,0,0,0,3.416,2.5,14.738,14.738,0,0,0,5.347.819,15.109,15.109,0,0,0,2.667-.222c.861-.153,1.625-.333,2.347-.528.695-.208,1.306-.43,1.848-.653s.958-.416,1.263-.569l-.861-5.306a10.417,10.417,0,0,1-2.722,1.25,12.031,12.031,0,0,1-3.819.57A4.909,4.909,0,0,1-49-180.288c-.9-1.111-1.347-3.278-1.347-6.514V-206.83H-66.792v5.459h10.056Zm5.055-27.25a4.955,4.955,0,0,0,1.334-3.667,4.932,4.932,0,0,0-1.334-3.639,4.319,4.319,0,0,0-3.236-1.361,4.391,4.391,0,0,0-3.208,1.361,4.838,4.838,0,0,0-1.361,3.639,4.861,4.861,0,0,0,1.361,3.667,4.367,4.367,0,0,0,3.208,1.333A4.3,4.3,0,0,0-51.681-213.621Z" transform="translate(192.139 223.191)" fill="#b02819" fill-rule="evenodd"/>
    <path id="Path_5" data-name="Path 5" d="M-23.056-182.635a13.623,13.623,0,0,0,3.778,5.222,16.464,16.464,0,0,0,5.82,3.153A24.887,24.887,0,0,0-6-173.191a34.495,34.495,0,0,0,5.667-.43,24.087,24.087,0,0,0,5.166-1.445l-.875-5.4a18.231,18.231,0,0,1-4.639,1.5,28.44,28.44,0,0,1-4.43.32,19,19,0,0,1-5.264-.667,10.97,10.97,0,0,1-4.083-2.041,9.343,9.343,0,0,1-2.625-3.487A12.428,12.428,0,0,1-18-189.913a12.741,12.741,0,0,1,.972-5.25,9.771,9.771,0,0,1,2.667-3.556,10.81,10.81,0,0,1,3.917-2.013,17.47,17.47,0,0,1,4.819-.639,23.205,23.205,0,0,1,3.917.333,16.839,16.839,0,0,1,4.291,1.486l1.334-5.611a29.057,29.057,0,0,0-5.125-1.306,33.043,33.043,0,0,0-4.834-.361,24.734,24.734,0,0,0-7.139,1.014,16.112,16.112,0,0,0-5.833,3.084,14.267,14.267,0,0,0-3.958,5.25,18.3,18.3,0,0,0-1.431,7.541A18.349,18.349,0,0,0-23.056-182.635Z" transform="translate(192.139 223.191)" fill="#b02819" fill-rule="evenodd"/>
    <path id="Path_6" data-name="Path 6" d="M39.264-181.691a8.205,8.205,0,0,1-6.722,3.042,8,8,0,0,1-6.625-3.042q-2.437-3.042-2.445-8.291,0-5.292,2.445-8.334a8.047,8.047,0,0,1,6.625-3.055,8.256,8.256,0,0,1,6.722,3.055q2.479,3.042,2.486,8.334Q41.75-184.732,39.264-181.691Zm7.722-15.236a15.48,15.48,0,0,0-3.222-5.292,14.331,14.331,0,0,0-4.945-3.388,16.148,16.148,0,0,0-6.277-1.223,15.577,15.577,0,0,0-6.181,1.223,14.351,14.351,0,0,0-4.917,3.388,15.073,15.073,0,0,0-3.222,5.292,19.588,19.588,0,0,0-1.139,6.917,19.273,19.273,0,0,0,1.139,6.889,15.645,15.645,0,0,0,3.222,5.305,14.248,14.248,0,0,0,4.917,3.417,15.588,15.588,0,0,0,6.181,1.208,16.159,16.159,0,0,0,6.277-1.208,14.228,14.228,0,0,0,4.945-3.417,16.084,16.084,0,0,0,3.222-5.305,19.582,19.582,0,0,0,1.153-6.889A19.907,19.907,0,0,0,46.986-196.927Z" transform="translate(192.139 223.191)" fill="#b02819" fill-rule="evenodd"/>
  </g>
</svg>
