<svg xmlns="http://www.w3.org/2000/svg" width="66.675" height="65.376" viewBox="0 0 66.675 65.376">
  <g id="Group_184" data-name="Group 184" transform="translate(0.5 0.5)">
    <g id="Group_119" data-name="Group 119" transform="translate(19.172)">
      <path id="Path_186" data-name="Path 186" d="M62.529,232.751v2.88a1.441,1.441,0,0,1-1.443,1.44H41.634a1.441,1.441,0,0,1-1.443-1.44v-2.88Z" transform="translate(-40.191 -219.777)" fill="none" stroke="#121947" stroke-linecap="round" stroke-linejoin="round" stroke-width="1"/>
      <path id="Path_187" data-name="Path 187" d="M44.545,233.3a.621.621,0,1,0,.621.618.618.618,0,0,0-.621-.618Z" transform="translate(-33.377 -218.782)" fill="none" stroke="#121947" stroke-linecap="round" stroke-linejoin="round" stroke-width="1"/>
      <path id="Path_188" data-name="Path 188" d="M50.076,237.163H42.87l.36-2.882h6.485Z" transform="translate(-35.304 -216.986)" fill="none" stroke="#121947" stroke-linecap="round" stroke-linejoin="round" stroke-width="1"/>
      <line id="Line_27" data-name="Line 27" x2="11.529" transform="translate(5.406 20.177)" fill="none" stroke="#121947" stroke-linecap="round" stroke-linejoin="round" stroke-width="1"/>
      <path id="Path_189" data-name="Path 189" d="M62.529,241.13V229.6a1.445,1.445,0,0,0-1.443-1.44H41.634a1.445,1.445,0,0,0-1.443,1.44l0,11.533Z" transform="translate(-40.191 -228.157)" fill="none" stroke="#121947" stroke-linecap="round" stroke-linejoin="round" stroke-width="1"/>
    </g>
    <g id="Group_120" data-name="Group 120" transform="translate(36.715 33.35)">
      <path id="Path_190" data-name="Path 190" d="M51.576,239.966V250.31H46.4" transform="translate(-46.403 -239.966)" fill="none" stroke="#121947" stroke-linecap="round" stroke-linejoin="round" stroke-width="1"/>
    </g>
    <g id="Group_121" data-name="Group 121" transform="translate(34.648 42.656)">
      <path id="Path_191" data-name="Path 191" d="M46.707,243.262a1.034,1.034,0,1,1-1.036,1.036A1.034,1.034,0,0,1,46.707,243.262Z" transform="translate(-45.671 -243.262)" fill="none" stroke="#121947" stroke-linecap="round" stroke-linejoin="round" stroke-width="1"/>
    </g>
    <g id="Group_122" data-name="Group 122" transform="translate(20.686 41.107)">
      <line id="Line_28" data-name="Line 28" y2="14.479" stroke-width="1" stroke="#121947" stroke-linecap="round" stroke-linejoin="round" fill="none"/>
    </g>
    <g id="Group_123" data-name="Group 123" transform="translate(27.926 41.107)">
      <path id="Path_192" data-name="Path 192" d="M43.291,242.713v7.755h9.823v10.343" transform="translate(-43.291 -242.713)" fill="none" stroke="#121947" stroke-linecap="round" stroke-linejoin="round" stroke-width="1"/>
    </g>
    <g id="Group_124" data-name="Group 124" transform="translate(47.576 33.35)">
      <line id="Line_29" data-name="Line 29" y2="21.201" stroke-width="1" stroke="#121947" stroke-linecap="round" stroke-linejoin="round" fill="none"/>
    </g>
    <g id="Group_125" data-name="Group 125" transform="translate(53.78 33.35)">
      <path id="Path_193" data-name="Path 193" d="M57.1,239.966v14.479H52.446V259.1" transform="translate(-52.446 -239.966)" fill="none" stroke="#121947" stroke-linecap="round" stroke-linejoin="round" stroke-width="1"/>
    </g>
    <g id="Group_126" data-name="Group 126" transform="translate(14.481 41.107)">
      <line id="Line_30" data-name="Line 30" y2="9.308" stroke-width="1" stroke="#121947" stroke-linecap="round" stroke-linejoin="round" fill="none"/>
    </g>
    <g id="Group_127" data-name="Group 127" transform="translate(19.652 55.588)">
      <path id="Path_194" data-name="Path 194" d="M41.395,247.841a1.032,1.032,0,1,1-1.034,1.031A1.036,1.036,0,0,1,41.395,247.841Z" transform="translate(-40.361 -247.841)" fill="none" stroke="#121947" stroke-linecap="round" stroke-linejoin="round" stroke-width="1"/>
    </g>
    <g id="Group_128" data-name="Group 128" transform="translate(13.448 50.414)">
      <path id="Path_195" data-name="Path 195" d="M39.2,246.009a1.034,1.034,0,1,1-1.034,1.034A1.036,1.036,0,0,1,39.2,246.009Z" transform="translate(-38.164 -246.009)" fill="none" stroke="#121947" stroke-linecap="round" stroke-linejoin="round" stroke-width="1"/>
    </g>
    <g id="Group_129" data-name="Group 129" transform="translate(36.715 59.205)">
      <path id="Path_196" data-name="Path 196" d="M47.437,249.122a1.034,1.034,0,1,1-1.034,1.034A1.035,1.035,0,0,1,47.437,249.122Z" transform="translate(-46.403 -249.122)" fill="none" stroke="#121947" stroke-linecap="round" stroke-linejoin="round" stroke-width="1"/>
    </g>
    <g id="Group_130" data-name="Group 130" transform="translate(28.443 53.518)">
      <path id="Path_197" data-name="Path 197" d="M44.508,247.108a1.035,1.035,0,1,1-1.034,1.034A1.033,1.033,0,0,1,44.508,247.108Z" transform="translate(-43.474 -247.108)" fill="none" stroke="#121947" stroke-linecap="round" stroke-linejoin="round" stroke-width="1"/>
    </g>
    <g id="Group_131" data-name="Group 131" transform="translate(46.539 54.551)">
      <path id="Path_198" data-name="Path 198" d="M50.918,247.474a1.034,1.034,0,1,1-1.036,1.036A1.035,1.035,0,0,1,50.918,247.474Z" transform="translate(-49.882 -247.474)" fill="none" stroke="#121947" stroke-linecap="round" stroke-linejoin="round" stroke-width="1"/>
    </g>
    <g id="Group_132" data-name="Group 132" transform="translate(52.747 52.481)">
      <path id="Path_199" data-name="Path 199" d="M53.114,246.741a1.035,1.035,0,1,1-1.034,1.036A1.035,1.035,0,0,1,53.114,246.741Z" transform="translate(-52.08 -246.741)" fill="none" stroke="#121947" stroke-linecap="round" stroke-linejoin="round" stroke-width="1"/>
    </g>
    <g id="Group_133" data-name="Group 133" transform="translate(29.478 55.587)">
      <line id="Line_31" data-name="Line 31" y2="8.789" stroke-width="1" stroke="#121947" stroke-linecap="round" stroke-linejoin="round" fill="none"/>
    </g>
    <g id="Group_134" data-name="Group 134" transform="translate(8.277 44.21)">
      <path id="Path_200" data-name="Path 200" d="M37.367,243.812a1.034,1.034,0,1,1-1.034,1.034A1.034,1.034,0,0,1,37.367,243.812Z" transform="translate(-36.333 -243.812)" fill="none" stroke="#121947" stroke-linecap="round" stroke-linejoin="round" stroke-width="1"/>
    </g>
    <g id="Group_135" data-name="Group 135" transform="translate(4.139 45.243)">
      <path id="Path_201" data-name="Path 201" d="M39,244.178H34.868v7.239" transform="translate(-34.868 -244.178)" fill="none" stroke="#121947" stroke-linecap="round" stroke-linejoin="round" stroke-width="1"/>
    </g>
    <g id="Group_136" data-name="Group 136" transform="translate(41.888 48.344)">
      <path id="Path_202" data-name="Path 202" d="M49.269,245.276a1.035,1.035,0,1,1-1.034,1.036A1.032,1.032,0,0,1,49.269,245.276Z" transform="translate(-48.235 -245.276)" fill="none" stroke="#121947" stroke-linecap="round" stroke-linejoin="round" stroke-width="1"/>
    </g>
    <g id="Group_137" data-name="Group 137" transform="translate(42.921 50.415)">
      <line id="Line_32" data-name="Line 32" y2="12.408" stroke-width="1" stroke="#121947" stroke-linecap="round" stroke-linejoin="round" fill="none"/>
    </g>
    <g id="Group_138" data-name="Group 138" transform="translate(52.747 33.35)">
      <line id="Line_33" data-name="Line 33" y2="7.758" stroke-width="1" stroke="#121947" stroke-linecap="round" stroke-linejoin="round" fill="none"/>
    </g>
    <g id="Group_139" data-name="Group 139" transform="translate(51.71 41.106)">
      <path id="Path_203" data-name="Path 203" d="M52.749,242.713a1.034,1.034,0,1,1-1.036,1.034A1.036,1.036,0,0,1,52.749,242.713Z" transform="translate(-51.713 -242.713)" fill="none" stroke="#121947" stroke-linecap="round" stroke-linejoin="round" stroke-width="1"/>
    </g>
    <g id="Group_140" data-name="Group 140" transform="translate(0 18.729)">
      <path id="Path_204" data-name="Path 204" d="M33.4,249.31a7.685,7.685,0,0,1,8.568-7.664,11.107,11.107,0,0,1,21.347,3.55,6.351,6.351,0,1,1,3.214,11.83H40.211S33.4,256,33.4,249.31Z" transform="translate(-33.402 -234.789)" fill="none" stroke="#9e181a" stroke-linecap="round" stroke-linejoin="round" stroke-width="1"/>
    </g>
    <g id="Group_141" data-name="Group 141" transform="translate(30.786 13.561)">
      <path id="Path_205" data-name="Path 205" d="M52.845,252.606h20.33s6.018-.9,6.018-6.817a6.818,6.818,0,0,0-6.817-6.817,6.6,6.6,0,0,0-.751.042,9.82,9.82,0,0,0-18.87,3.143,5.526,5.526,0,0,0-2.838-.779,5.618,5.618,0,0,0-5.512,6.69" transform="translate(-44.304 -232.959)" fill="none" stroke="#9e181a" stroke-linecap="round" stroke-linejoin="round" stroke-width="1"/>
    </g>
  </g>
</svg>
