<svg xmlns="http://www.w3.org/2000/svg" width="105.304" height="86.184" viewBox="0 0 105.304 86.184">
  <g id="Group_3098" data-name="Group 3098" transform="translate(-58.735 -565.233)">
    <rect id="Rectangle_115" data-name="Rectangle 115" width="11.739" height="7.043" transform="translate(92.606 624.928)" stroke-width="2" stroke="#121947" stroke-linecap="round" stroke-linejoin="round" fill="none"/>
    <path id="Path_2458" data-name="Path 2458" d="M101.522,602.469H71a4.7,4.7,0,0,1,4.7-4.7h21.13A4.7,4.7,0,0,1,101.522,602.469Z" transform="translate(12.214 34.198)" fill="none" stroke="#121947" stroke-linecap="round" stroke-linejoin="round" stroke-width="2"/>
    <path id="Path_2459" data-name="Path 2459" d="M137.213,619.057a5.87,5.87,0,0,1-5.869,5.871H65.606a5.871,5.871,0,0,1-5.871-5.871V572.1a5.869,5.869,0,0,1,5.871-5.867h65.738a5.868,5.868,0,0,1,5.869,5.867Z" transform="translate(0 0)" fill="none" stroke="#121947" stroke-linecap="round" stroke-linejoin="round" stroke-width="2"/>
    <path id="Path_2460" data-name="Path 2460" d="M131.344,599.28a5.87,5.87,0,0,0,5.869-5.871v-3.52H59.735v3.52a5.871,5.871,0,0,0,5.871,5.871Z" transform="translate(0 25.648)" fill="none" stroke="#121947" stroke-linecap="round" stroke-linejoin="round" stroke-width="2"/>
    <path id="Path_2461" data-name="Path 2461" d="M71,577.624,86.26,584.56l15.261-6.937L86.26,570.687Z" transform="translate(12.214 4.829)" fill="none" stroke="#9e181a" stroke-linecap="round" stroke-linejoin="round" stroke-width="2"/>
    <path id="Path_2462" data-name="Path 2462" d="M78.322,580.952v18.036l15.261-6.937V574.015Z" transform="translate(20.153 8.438)" fill="none" stroke="#9e181a" stroke-linecap="round" stroke-linejoin="round" stroke-width="2"/>
    <path id="Path_2463" data-name="Path 2463" d="M71,574.015v18.036l15.261,6.937V580.952Z" transform="translate(12.214 8.438)" fill="none" stroke="#9e181a" stroke-linecap="round" stroke-linejoin="round" stroke-width="2"/>
    <path id="Path_2464" data-name="Path 2464" d="M118.895,614.264a1.955,1.955,0,0,1-1.955,1.955H102.4a1.955,1.955,0,0,1-1.955-1.955V599.73a1.957,1.957,0,0,1,1.955-1.957H116.94a1.957,1.957,0,0,1,1.955,1.957Z" transform="translate(44.145 34.198)" fill="none" stroke="#9e181a" stroke-linecap="round" stroke-linejoin="round" stroke-width="2"/>
    <path id="Path_2465" data-name="Path 2465" d="M106.429,606.959a8.3,8.3,0,1,1-8.3-8.3A8.3,8.3,0,0,1,106.429,606.959Z" transform="translate(32.629 35.158)" fill="none" stroke="#121947" stroke-linecap="round" stroke-linejoin="round" stroke-width="2"/>
    <path id="Path_2466" data-name="Path 2466" d="M106.429,606.959a8.3,8.3,0,1,1-8.3-8.3A8.3,8.3,0,0,1,106.429,606.959Z" transform="translate(32.629 35.158)" fill="none" stroke="#9e181a" stroke-linecap="round" stroke-linejoin="round" stroke-width="2"/>
    <path id="Path_2467" data-name="Path 2467" d="M102.6,601.988a1.955,1.955,0,0,1-1.69-2.941l6.866-11.77a1.957,1.957,0,0,1,3.381,0l6.863,11.77a1.953,1.953,0,0,1-1.688,2.941Z" transform="translate(44.353 21.765)" fill="none" stroke="#9e181a" stroke-linecap="round" stroke-linejoin="round" stroke-width="2"/>
    <path id="Path_2468" data-name="Path 2468" d="M78.832,591.671a.98.98,0,1,1-.98.979A.979.979,0,0,1,78.832,591.671Z" transform="translate(19.644 27.581)" fill="none" stroke="#121947" stroke-linecap="round" stroke-linejoin="round" stroke-width="2"/>
  </g>
</svg>
