<svg xmlns="http://www.w3.org/2000/svg" width="67.848" height="65.249" viewBox="0 0 67.848 65.249">
  <g id="Group_182" data-name="Group 182" transform="translate(0.5 0.5)">
    <path id="Path_172" data-name="Path 172" d="M239.963,187.1h3.27" transform="translate(-192.828 -145.559)" fill="none" stroke="#9e181a" stroke-linecap="round" stroke-linejoin="round" stroke-width="1"/>
    <path id="Path_173" data-name="Path 173" d="M280.385,207.219V191.427a1.731,1.731,0,0,0-1.731-1.731H262.788a1.444,1.444,0,0,1-1.443-1.443V174.119a1.731,1.731,0,0,0-1.728-1.731H226.731a3.46,3.46,0,0,0-3.459,3.462v34.614a3.46,3.46,0,0,0,3.459,3.462h25.1" transform="translate(-223.272 -172.388)" fill="none" stroke="#9e181a" stroke-linecap="round" stroke-linejoin="round" stroke-width="1"/>
    <line id="Line_22" data-name="Line 22" x2="19.037" transform="translate(38.075 3.462)" fill="none" stroke="#9e181a" stroke-linecap="round" stroke-linejoin="round" stroke-width="1"/>
    <line id="Line_23" data-name="Line 23" x2="19.037" transform="translate(38.075 10.386)" fill="none" stroke="#9e181a" stroke-linecap="round" stroke-linejoin="round" stroke-width="1"/>
    <line id="Line_24" data-name="Line 24" y2="17.307" transform="translate(44.997 0.001)" fill="none" stroke="#9e181a" stroke-linecap="round" stroke-linejoin="round" stroke-width="1"/>
    <line id="Line_25" data-name="Line 25" y2="17.307" transform="translate(51.919 0.001)" fill="none" stroke="#9e181a" stroke-linecap="round" stroke-linejoin="round" stroke-width="1"/>
    <path id="Path_174" data-name="Path 174" d="M226.731,172.388a3.46,3.46,0,0,0-3.459,3.462v5.193h38.073v-6.924a1.731,1.731,0,0,0-1.728-1.731Z" transform="translate(-223.272 -172.388)" fill="none" stroke="#9e181a" stroke-linecap="round" stroke-linejoin="round" stroke-width="1"/>
    <path id="Path_175" data-name="Path 175" d="M228.572,175.039a1.731,1.731,0,1,1-1.731-1.731A1.731,1.731,0,0,1,228.572,175.039Z" transform="translate(-219.919 -170.71)" fill="none" stroke="#9e181a" stroke-linecap="round" stroke-linejoin="round" stroke-width="1"/>
    <path id="Path_176" data-name="Path 176" d="M231.33,175.039a1.731,1.731,0,1,1-1.731-1.731A1.733,1.733,0,0,1,231.33,175.039Z" transform="translate(-214.889 -170.71)" fill="none" stroke="#9e181a" stroke-linecap="round" stroke-linejoin="round" stroke-width="1"/>
    <path id="Path_177" data-name="Path 177" d="M233.779,175.039a1.73,1.73,0,1,1-1.731-1.731A1.731,1.731,0,0,1,233.779,175.039Z" transform="translate(-210.416 -170.71)" fill="none" stroke="#9e181a" stroke-linecap="round" stroke-linejoin="round" stroke-width="1"/>
    <path id="Path_178" data-name="Path 178" d="M243.244,195.349l-6.2-6.2,3.671-3.671,6.2,6.2" transform="translate(-198.145 -148.505)" fill="none" stroke="#121947" stroke-linecap="round" stroke-linejoin="round" stroke-width="1"/>
    <path id="Path_179" data-name="Path 179" d="M244.649,189.409l10.322,10.325A2.6,2.6,0,0,1,251.3,203.4L240.975,193.08" transform="translate(-190.982 -141.342)" fill="none" stroke="#121947" stroke-linecap="round" stroke-linejoin="round" stroke-width="1"/>
    <path id="Path_180" data-name="Path 180" d="M246.07,188.384a1.442,1.442,0,0,1,0,2.042L241.99,194.5a1.444,1.444,0,0,1-2.039,0l-5.3-5.3a1.444,1.444,0,0,1,0-2.039l4.081-4.078a1.439,1.439,0,0,1,2.039,0Z" transform="translate(-203.292 -153.652)" fill="none" stroke="#121947" stroke-linecap="round" stroke-linejoin="round" stroke-width="1"/>
    <path id="Path_181" data-name="Path 181" d="M236.25,185.048a9.516,9.516,0,0,0,0,13.462.583.583,0,0,0,.658.121.589.589,0,0,0,.344-.573,11.232,11.232,0,0,1,3.279-8.726Z" transform="translate(-204.689 -149.296)" fill="none" stroke="#121947" stroke-linecap="round" stroke-linejoin="round" stroke-width="1"/>
    <path id="Path_182" data-name="Path 182" d="M239.062,181.148a7.722,7.722,0,0,1-2.206,4.654l-.243.24,4.284,4.287.243-.243a7.722,7.722,0,0,1,4.651-2.206Z" transform="translate(-198.936 -156.41)" fill="none" stroke="#121947" stroke-linecap="round" stroke-linejoin="round" stroke-width="1"/>
    <path id="Path_183" data-name="Path 183" d="M247.88,186.576a1.447,1.447,0,0,1,0,2.042l-1.632,1.629a1.439,1.439,0,0,1-2.039,0l-6.526-6.526a1.439,1.439,0,0,1,0-2.039l1.632-1.632a1.439,1.439,0,0,1,2.039,0Z" transform="translate(-197.76 -159.186)" fill="none" stroke="#121947" stroke-linecap="round" stroke-linejoin="round" stroke-width="1"/>
    <path id="Path_184" data-name="Path 184" d="M237.765,192.035l-2.448,7.342,7.343-2.448Z" transform="translate(-201.302 -136.552)" fill="none" stroke="#121947" stroke-linecap="round" stroke-linejoin="round" stroke-width="1"/>
    <rect id="Rectangle_35" data-name="Rectangle 35" width="31.152" height="6.923" transform="matrix(0.707, -0.707, 0.707, 0.707, 36.466, 55.474)" stroke-width="1" stroke="#121947" stroke-linecap="round" stroke-linejoin="round" fill="none"/>
    <path id="Path_185" data-name="Path 185" d="M248.878,191.366l-4.894-4.9,2.448-2.446a3.461,3.461,0,1,1,4.894,4.894Z" transform="translate(-185.493 -153.016)" fill="none" stroke="#121947" stroke-linecap="round" stroke-linejoin="round" stroke-width="1"/>
    <line id="Line_26" data-name="Line 26" y1="1.325" x2="1.325" transform="translate(32.747 62.716)" fill="none" stroke="#121947" stroke-linecap="round" stroke-linejoin="round" stroke-width="1"/>
  </g>
</svg>
