<svg xmlns="http://www.w3.org/2000/svg" width="100.85" height="93.238" viewBox="0 0 100.85 93.238">
  <g id="Group_3117" data-name="Group 3117" transform="translate(132.487 -497.856)">
    <path id="Path_2472" data-name="Path 2472" d="M-49.722,499.948a.852.852,0,0,1,.6.453.848.848,0,0,1,.007.756l-3.423,7.047a.848.848,0,0,1-.94.461.851.851,0,0,1-.676-.8l-.29-7.728a.854.854,0,0,1,.294-.675.852.852,0,0,1,.71-.194Zm-17.392.492a.855.855,0,0,0-.579.486.849.849,0,0,0,.037.756l3.815,6.842a.851.851,0,0,0,.965.407.851.851,0,0,0,.629-.837l-.147-7.732a.85.85,0,0,0-.331-.657.851.851,0,0,0-.721-.153Z" fill="none" stroke="#0a1437" stroke-linecap="round" stroke-linejoin="round" stroke-width="2"/>
    <path id="Path_2473" data-name="Path 2473" d="M-82.138,534.333a.848.848,0,0,1,.751-.079.849.849,0,0,1,.519.55l2.278,7.5a.85.85,0,0,1-.376.977.852.852,0,0,1-1.04-.128l-5.464-5.472a.854.854,0,0,1-.244-.7.854.854,0,0,1,.39-.625Zm-12.425,12.18a.849.849,0,0,0-.094.75.852.852,0,0,0,.54.53l7.449,2.427a.851.851,0,0,0,.984-.358.851.851,0,0,0-.107-1.042l-5.362-5.571a.853.853,0,0,0-.69-.258.855.855,0,0,0-.633.377Z" fill="none" stroke="#9e181a" stroke-linecap="round" stroke-linejoin="round" stroke-width="2"/>
    <path id="Path_2474" data-name="Path 2474" d="M-97.772,503.974a.852.852,0,0,0-.737-.168.853.853,0,0,0-.58.485l-3.149,7.174a.85.85,0,0,0,.258,1.015.851.851,0,0,0,1.048-.005l6.073-4.787a.851.851,0,0,0,.324-.661.851.851,0,0,0-.313-.666Zm-14.491-5.117a.848.848,0,0,0-.688.312.849.849,0,0,0-.169.737l1.833,7.617a.85.85,0,0,0,.82.652.851.851,0,0,0,.831-.637l1.94-7.486a.854.854,0,0,0-.142-.722.853.853,0,0,0-.653-.342Z" fill="none" stroke="#0a1437" stroke-linecap="round" stroke-linejoin="round" stroke-width="2"/>
    <g id="Group_3115" data-name="Group 3115">
      <g id="Group_3114" data-name="Group 3114">
        <path id="Path_2475" data-name="Path 2475" d="M-79.921,562.635l-2.775-.495M-95.73,577l1.388.247m-1.785-6.046,1.388.248m-1.785-6.046,1.388.247m49.079,3.749-15.254-2.723a1.41,1.41,0,0,0-1.635,1.14l-3.344,18.734a1.41,1.41,0,0,0,1.14,1.636l10.711,1.911m-11.851-3.547-2.775-.495a1.409,1.409,0,0,1-1.14-1.635l2.848-15.959a1.409,1.409,0,0,1,1.636-1.14l2.775.495ZM-82.7,562.14c.407-5.277,1.706-16.521,6.032-15.748a3.172,3.172,0,0,1,2.566,3.679l-.186,1.041c-1.363,7.632.523,16.2,6.927,17.346L-70.2,584.417l-.819-.146c-4-.714-6.392,1.723-13.56.444l-12.142-2.168a2.818,2.818,0,0,1-2.28-3.27A2.818,2.818,0,0,1-95.73,577l-1.387-.248a2.819,2.819,0,0,1-2.28-3.271,2.818,2.818,0,0,1,3.27-2.28l-1.387-.248a2.819,2.819,0,0,1-2.28-3.271,2.82,2.82,0,0,1,3.27-2.28l-1.387-.247a2.819,2.819,0,0,1-2.28-3.271,2.819,2.819,0,0,1,3.271-2.28Z" fill="none" stroke="#9e181a" stroke-linecap="round" stroke-linejoin="round" stroke-width="2"/>
      </g>
    </g>
    <g id="Group_3116" data-name="Group 3116">
      <line id="Line_180" data-name="Line 180" x1="1.01" y2="0.148" transform="translate(-97.59 535.735)" fill="none" stroke="#0a1437" stroke-linecap="round" stroke-linejoin="round" stroke-width="2"/>
      <line id="Line_181" data-name="Line 181" x1="1.01" y2="0.148" transform="translate(-97.17 531.546)" fill="none" stroke="#0a1437" stroke-linecap="round" stroke-linejoin="round" stroke-width="2"/>
      <line id="Line_182" data-name="Line 182" x1="1.01" y2="0.148" transform="translate(-96.751 527.357)" fill="none" stroke="#0a1437" stroke-linecap="round" stroke-linejoin="round" stroke-width="2"/>
      <path id="Path_2476" data-name="Path 2476" d="M-107.7,524.977l2.021-.3m-25.81,4.289,10.187-1.489a1.058,1.058,0,0,1,1.2.893l1.932,13.22a1.409,1.409,0,0,1-1.19,1.6l-8.082,1.182m9.329-2.4,1.636-.239a1.41,1.41,0,0,0,1.191-1.6l-1.586-10.851a1.411,1.411,0,0,0-1.6-1.191l-1.636.24Zm12.435-17.3c-.174-3.83-.859-12-4.009-11.54a2.3,2.3,0,0,0-1.941,2.606l.111.758c.812,5.557-.749,11.719-5.411,12.4l1.694,11.62.6-.087c2.914-.426,4.589,1.393,9.807.63l8.841-1.292a2.043,2.043,0,0,0,1.726-2.316,2.043,2.043,0,0,0-2.316-1.726l1.01-.147a2.043,2.043,0,0,0,1.725-2.317,2.042,2.042,0,0,0-2.316-1.725l1.011-.148a2.042,2.042,0,0,0,1.725-2.316,2.042,2.042,0,0,0-2.316-1.725l1.01-.148A2.043,2.043,0,0,0-93,524.893a2.043,2.043,0,0,0-2.316-1.726Z" fill="none" stroke="#0a1437" stroke-linecap="round" stroke-linejoin="round" stroke-width="2"/>
    </g>
    <path id="Path_2477" data-name="Path 2477" d="M-58.466,524.977l-2.021-.3m-9.1,11.054,1.01.148M-70,531.546l1.01.148m-1.429-4.337,1.01.147m36.776,1.764-12.227-1.787a1.059,1.059,0,0,0-1.2.893l-1.932,13.22a1.41,1.41,0,0,0,1.191,1.6l8.58,1.254m-9.827-2.468-1.637-.239a1.411,1.411,0,0,1-1.191-1.6l1.587-10.851a1.41,1.41,0,0,1,1.6-1.191l1.637.24Zm-12.436-17.3c.175-3.83.859-12,4.009-11.54a2.3,2.3,0,0,1,1.941,2.606l-.11.758c-.813,5.557.748,11.719,5.411,12.4l-1.694,11.62-.6-.087c-2.913-.426-4.588,1.393-9.807.63l-8.841-1.292a2.043,2.043,0,0,1-1.726-2.316,2.044,2.044,0,0,1,2.317-1.726l-1.011-.147a2.043,2.043,0,0,1-1.725-2.317A2.042,2.042,0,0,1-70,531.546l-1.01-.148a2.043,2.043,0,0,1-1.726-2.316,2.042,2.042,0,0,1,2.316-1.725l-1.01-.148a2.042,2.042,0,0,1-1.725-2.316,2.043,2.043,0,0,1,2.316-1.726Z" fill="none" stroke="#0a1437" stroke-linecap="round" stroke-linejoin="round" stroke-width="2"/>
  </g>
</svg>
