<svg xmlns="http://www.w3.org/2000/svg" width="22.81" height="14.085" viewBox="0 0 22.81 14.085">
  <g id="Group_2055" data-name="Group 2055" transform="translate(-0.986 -74.682)">
    <g id="Group_2049" data-name="Group 2049" transform="translate(0.986 74.682)">
      <g id="Group_2048" data-name="Group 2048">
        <rect id="Rectangle_67" data-name="Rectangle 67" width="22.805" height="14.085" transform="translate(0.005)" fill="#fff"/>
        <rect id="Rectangle_68" data-name="Rectangle 68" width="10.695" height="7.559" transform="translate(0.005)" fill="#212961"/>
        <path id="Path_1754" data-name="Path 1754" d="M176.635,74.829l.1.308h.323l-.262.19.1.308-.262-.19-.262.19.1-.308-.262-.19h.323Z" transform="translate(-175.756 -74.532)" fill="#fff"/>
        <path id="Path_1755" data-name="Path 1755" d="M177.538,74.829l.1.308h.323l-.262.19.1.308-.262-.19-.262.19.1-.308-.262-.19h.323Z" transform="translate(-174.838 -74.532)" fill="#fff"/>
        <path id="Path_1756" data-name="Path 1756" d="M178.416,74.829l.1.308h.323l-.262.19.1.308-.262-.19-.262.19.1-.308-.262-.19h.323Z" transform="translate(-173.945 -74.532)" fill="#fff"/>
        <path id="Path_1757" data-name="Path 1757" d="M179.294,74.829l.1.308h.323l-.262.19.1.308-.262-.19-.262.19.1-.308-.262-.19h.323Z" transform="translate(-173.052 -74.532)" fill="#fff"/>
        <path id="Path_1758" data-name="Path 1758" d="M180.172,74.829l.1.308h.323l-.262.19.1.308-.262-.19-.262.19.1-.308-.262-.19h.323Z" transform="translate(-172.159 -74.532)" fill="#fff"/>
        <path id="Path_1759" data-name="Path 1759" d="M180.632,75.228l.1.308h.323l-.262.19.1.308-.262-.19-.262.19.1-.308-.262-.19h.323Z" transform="translate(-171.691 -74.126)" fill="#fff"/>
        <path id="Path_1760" data-name="Path 1760" d="M179.752,75.228l.1.308h.323l-.262.19.1.308-.262-.19-.262.19.1-.308-.262-.19h.323Z" transform="translate(-172.586 -74.126)" fill="#fff"/>
        <path id="Path_1761" data-name="Path 1761" d="M178.872,75.228l.1.308h.323l-.262.19.1.308-.262-.19-.262.19.1-.308-.262-.19h.323Z" transform="translate(-173.482 -74.126)" fill="#fff"/>
        <path id="Path_1762" data-name="Path 1762" d="M177.967,75.228l.1.308h.323l-.262.19.1.308-.262-.19-.262.19.1-.308-.262-.19h.323Z" transform="translate(-174.402 -74.126)" fill="#fff"/>
        <path id="Path_1763" data-name="Path 1763" d="M177.086,75.228l.1.308h.323l-.262.19.1.308-.262-.19-.262.19.1-.308-.262-.19h.323Z" transform="translate(-175.297 -74.126)" fill="#fff"/>
        <path id="Path_1764" data-name="Path 1764" d="M181.075,74.829l.1.308h.323l-.262.19.1.308-.262-.19-.262.19.1-.308-.262-.19h.323Z" transform="translate(-171.242 -74.532)" fill="#fff"/>
        <path id="Path_1765" data-name="Path 1765" d="M176.635,75.569l.1.308h.323l-.262.19.1.308-.262-.19-.262.19.1-.308-.262-.19h.323Z" transform="translate(-175.756 -73.78)" fill="#fff"/>
        <path id="Path_1766" data-name="Path 1766" d="M177.538,75.569l.1.308h.323l-.262.19.1.308-.262-.19-.262.19.1-.308-.262-.19h.323Z" transform="translate(-174.838 -73.78)" fill="#fff"/>
        <path id="Path_1767" data-name="Path 1767" d="M178.416,75.569l.1.308h.323l-.262.19.1.308-.262-.19-.262.19.1-.308-.262-.19h.323Z" transform="translate(-173.945 -73.78)" fill="#fff"/>
        <path id="Path_1768" data-name="Path 1768" d="M179.294,75.569l.1.308h.323l-.262.19.1.308-.262-.19-.262.19.1-.308-.262-.19h.323Z" transform="translate(-173.052 -73.78)" fill="#fff"/>
        <path id="Path_1769" data-name="Path 1769" d="M180.172,75.569l.1.308h.323l-.262.19.1.308-.262-.19-.262.19.1-.308-.262-.19h.323Z" transform="translate(-172.159 -73.78)" fill="#fff"/>
        <path id="Path_1770" data-name="Path 1770" d="M180.632,75.968l.1.308h.323l-.262.19.1.308-.262-.19-.262.19.1-.308-.262-.19h.323Z" transform="translate(-171.691 -73.374)" fill="#fff"/>
        <path id="Path_1771" data-name="Path 1771" d="M179.752,75.968l.1.308h.323l-.262.19.1.308-.262-.19-.262.19.1-.308-.262-.19h.323Z" transform="translate(-172.586 -73.374)" fill="#fff"/>
        <path id="Path_1772" data-name="Path 1772" d="M178.872,75.968l.1.308h.323l-.262.19.1.308-.262-.19-.262.19.1-.308-.262-.19h.323Z" transform="translate(-173.482 -73.374)" fill="#fff"/>
        <path id="Path_1773" data-name="Path 1773" d="M177.967,75.968l.1.308h.323l-.262.19.1.308-.262-.19-.262.19.1-.308-.262-.19h.323Z" transform="translate(-174.402 -73.374)" fill="#fff"/>
        <path id="Path_1774" data-name="Path 1774" d="M177.086,75.968l.1.308h.323l-.262.19.1.308-.262-.19-.262.19.1-.308-.262-.19h.323Z" transform="translate(-175.297 -73.374)" fill="#fff"/>
        <path id="Path_1775" data-name="Path 1775" d="M181.075,75.569l.1.308h.323l-.262.19.1.308-.262-.19-.262.19.1-.308-.262-.19h.323Z" transform="translate(-171.242 -73.78)" fill="#fff"/>
        <path id="Path_1776" data-name="Path 1776" d="M176.635,76.309l.1.308h.323l-.262.19.1.308-.262-.19-.262.19.1-.308-.262-.19h.323Z" transform="translate(-175.756 -73.027)" fill="#fff"/>
        <path id="Path_1777" data-name="Path 1777" d="M177.538,76.309l.1.308h.323l-.262.19.1.308-.262-.19-.262.19.1-.308-.262-.19h.323Z" transform="translate(-174.838 -73.027)" fill="#fff"/>
        <path id="Path_1778" data-name="Path 1778" d="M178.416,76.309l.1.308h.323l-.262.19.1.308-.262-.19-.262.19.1-.308-.262-.19h.323Z" transform="translate(-173.945 -73.027)" fill="#fff"/>
        <path id="Path_1779" data-name="Path 1779" d="M179.294,76.309l.1.308h.323l-.262.19.1.308-.262-.19-.262.19.1-.308-.262-.19h.323Z" transform="translate(-173.052 -73.027)" fill="#fff"/>
        <path id="Path_1780" data-name="Path 1780" d="M180.172,76.309l.1.308h.323l-.262.19.1.308-.262-.19-.262.19.1-.308-.262-.19h.323Z" transform="translate(-172.159 -73.027)" fill="#fff"/>
        <path id="Path_1781" data-name="Path 1781" d="M180.632,76.708l.1.308h.323l-.262.19.1.308-.262-.19-.262.19.1-.308-.262-.19h.323Z" transform="translate(-171.691 -72.621)" fill="#fff"/>
        <path id="Path_1782" data-name="Path 1782" d="M179.752,76.708l.1.308h.323l-.262.19.1.308-.262-.19-.262.19.1-.308-.262-.19h.323Z" transform="translate(-172.586 -72.621)" fill="#fff"/>
        <path id="Path_1783" data-name="Path 1783" d="M178.872,76.708l.1.308h.323l-.262.19.1.308-.262-.19-.262.19.1-.308-.262-.19h.323Z" transform="translate(-173.482 -72.621)" fill="#fff"/>
        <path id="Path_1784" data-name="Path 1784" d="M177.967,76.708l.1.308h.323l-.262.19.1.308-.262-.19-.262.19.1-.308-.262-.19h.323Z" transform="translate(-174.402 -72.621)" fill="#fff"/>
        <path id="Path_1785" data-name="Path 1785" d="M177.086,76.708l.1.308h.323l-.262.19.1.308-.262-.19-.262.19.1-.308-.262-.19h.323Z" transform="translate(-175.297 -72.621)" fill="#fff"/>
        <path id="Path_1786" data-name="Path 1786" d="M181.075,76.309l.1.308h.323l-.262.19.1.308-.262-.19-.262.19.1-.308-.262-.19h.323Z" transform="translate(-171.242 -73.027)" fill="#fff"/>
        <path id="Path_1787" data-name="Path 1787" d="M176.635,77.049l.1.308h.323l-.262.19.1.308-.262-.19-.262.19.1-.308-.262-.19h.323Z" transform="translate(-175.756 -72.274)" fill="#fff"/>
        <path id="Path_1788" data-name="Path 1788" d="M177.538,77.049l.1.308h.323l-.262.19.1.308-.262-.19-.262.19.1-.308-.262-.19h.323Z" transform="translate(-174.838 -72.274)" fill="#fff"/>
        <path id="Path_1789" data-name="Path 1789" d="M178.416,77.049l.1.308h.323l-.262.19.1.308-.262-.19-.262.19.1-.308-.262-.19h.323Z" transform="translate(-173.945 -72.274)" fill="#fff"/>
        <path id="Path_1790" data-name="Path 1790" d="M179.294,77.049l.1.308h.323l-.262.19.1.308-.262-.19-.262.19.1-.308-.262-.19h.323Z" transform="translate(-173.052 -72.274)" fill="#fff"/>
        <path id="Path_1791" data-name="Path 1791" d="M180.172,77.049l.1.308h.323l-.262.19.1.308-.262-.19-.262.19.1-.308-.262-.19h.323Z" transform="translate(-172.159 -72.274)" fill="#fff"/>
        <path id="Path_1792" data-name="Path 1792" d="M180.632,77.449l.1.308h.323l-.262.19.1.308-.262-.19-.262.19.1-.308-.262-.19h.323Z" transform="translate(-171.691 -71.868)" fill="#fff"/>
        <path id="Path_1793" data-name="Path 1793" d="M179.752,77.449l.1.308h.323l-.262.19.1.308-.262-.19-.262.19.1-.308-.262-.19h.323Z" transform="translate(-172.586 -71.868)" fill="#fff"/>
        <path id="Path_1794" data-name="Path 1794" d="M178.872,77.449l.1.308h.323l-.262.19.1.308-.262-.19-.262.19.1-.308-.262-.19h.323Z" transform="translate(-173.482 -71.868)" fill="#fff"/>
        <path id="Path_1795" data-name="Path 1795" d="M177.967,77.449l.1.308h.323l-.262.19.1.308-.262-.19-.262.19.1-.308-.262-.19h.323Z" transform="translate(-174.402 -71.868)" fill="#fff"/>
        <path id="Path_1796" data-name="Path 1796" d="M177.086,77.449l.1.308h.323l-.262.19.1.308-.262-.19-.262.19.1-.308-.262-.19h.323Z" transform="translate(-175.297 -71.868)" fill="#fff"/>
        <path id="Path_1797" data-name="Path 1797" d="M181.075,77.049l.1.308h.323l-.262.19.1.308-.262-.19-.262.19.1-.308-.262-.19h.323Z" transform="translate(-171.242 -72.274)" fill="#fff"/>
        <path id="Path_1798" data-name="Path 1798" d="M176.635,77.789l.1.308h.323l-.262.19.1.308-.262-.19-.262.19.1-.308-.262-.19h.323Z" transform="translate(-175.756 -71.521)" fill="#fff"/>
        <path id="Path_1799" data-name="Path 1799" d="M177.538,77.789l.1.308h.323l-.262.19.1.308-.262-.19-.262.19.1-.308-.262-.19h.323Z" transform="translate(-174.838 -71.521)" fill="#fff"/>
        <path id="Path_1800" data-name="Path 1800" d="M178.416,77.789l.1.308h.323l-.262.19.1.308-.262-.19-.262.19.1-.308-.262-.19h.323Z" transform="translate(-173.945 -71.521)" fill="#fff"/>
        <path id="Path_1801" data-name="Path 1801" d="M179.294,77.789l.1.308h.323l-.262.19.1.308-.262-.19-.262.19.1-.308-.262-.19h.323Z" transform="translate(-173.052 -71.521)" fill="#fff"/>
        <path id="Path_1802" data-name="Path 1802" d="M180.172,77.789l.1.308h.323l-.262.19.1.308-.262-.19-.262.19.1-.308-.262-.19h.323Z" transform="translate(-172.159 -71.521)" fill="#fff"/>
        <path id="Path_1803" data-name="Path 1803" d="M181.075,77.789l.1.308h.323l-.262.19.1.308-.262-.19-.262.19.1-.308-.262-.19h.323Z" transform="translate(-171.242 -71.521)" fill="#fff"/>
        <rect id="Rectangle_69" data-name="Rectangle 69" width="12.11" height="1.101" transform="translate(10.7)" fill="#cb001e"/>
        <rect id="Rectangle_70" data-name="Rectangle 70" width="12.11" height="1.101" transform="translate(10.7 2.192)" fill="#cb001e"/>
        <rect id="Rectangle_71" data-name="Rectangle 71" width="12.11" height="1.101" transform="translate(10.7 4.342)" fill="#cb001e"/>
        <rect id="Rectangle_72" data-name="Rectangle 72" width="12.11" height="1.101" transform="translate(10.7 6.488)" fill="#cb001e"/>
        <rect id="Rectangle_73" data-name="Rectangle 73" width="22.81" height="1.101" transform="translate(0 8.633)" fill="#cb001e"/>
        <rect id="Rectangle_74" data-name="Rectangle 74" width="22.81" height="1.101" transform="translate(0 10.809)" fill="#cb001e"/>
        <rect id="Rectangle_75" data-name="Rectangle 75" width="22.81" height="1.101" transform="translate(0 12.984)" fill="#cb001e"/>
      </g>
    </g>
  </g>
</svg>
