<svg xmlns="http://www.w3.org/2000/svg" width="556.672" height="504.226" viewBox="0 0 556.672 504.226">
  <g id="Group_3411" data-name="Group 3411" transform="translate(-929.149 672.586)">
    <path id="Path_2533" data-name="Path 2533" d="M1254.049-333.677a3.175,3.175,0,0,1-1.367-3.185,3.175,3.175,0,0,1,2.359-2.539l.814-.2a5.225,5.225,0,0,0,3.312-2.553,5.229,5.229,0,0,0,.376-4.165,5.222,5.222,0,0,0-6.22-3.414l-3.674.918a5.439,5.439,0,0,1-6.477-3.557,5.44,5.44,0,0,0-6.88-3.44l-2.264.755a5.3,5.3,0,0,0-3.352,3.352,3.244,3.244,0,0,1-2.845,2.209,3.242,3.242,0,0,1-3.129-1.785,3.244,3.244,0,0,0-2.995-1.79,3.24,3.24,0,0,0-2.883,1.964,6.155,6.155,0,0,0-4.39,4.793,6.156,6.156,0,0,0,2.358,6.056l3.27,2.452c-.934,2.177-11.359,1.417-9.938,3.312l6.87,7.287a6.622,6.622,0,0,0,4.829,2.634,6.62,6.62,0,0,0,5.154-1.925l1.447-1.446a6.627,6.627,0,0,1,7.144-1.466l9.271,3.708a6.628,6.628,0,0,0,6.135-.639l3.075-2.049a3.179,3.179,0,0,0,1.414-2.644A3.178,3.178,0,0,0,1254.049-333.677Z" transform="translate(105.317 138.128)" fill="none" stroke="#9e181a" stroke-linecap="round" stroke-linejoin="round" stroke-width="3"/>
    <path id="Path_2534" data-name="Path 2534" d="M1292.44-373.418a3.175,3.175,0,0,1-1.367-3.184,3.176,3.176,0,0,1,2.359-2.539l.814-.2a5.22,5.22,0,0,0,3.312-2.553,5.224,5.224,0,0,0,.376-4.164,5.221,5.221,0,0,0-6.22-3.415l-3.672.918a5.439,5.439,0,0,1-6.479-3.557,5.44,5.44,0,0,0-6.88-3.44l-2.264.755a5.306,5.306,0,0,0-3.352,3.352,3.24,3.24,0,0,1-2.845,2.209,3.243,3.243,0,0,1-3.129-1.783,3.241,3.241,0,0,0-2.995-1.79,3.241,3.241,0,0,0-2.884,1.962,6.153,6.153,0,0,0-4.389,4.793,6.156,6.156,0,0,0,2.356,6.057l3.27,2.453c-.934,2.178-11.359,1.416-9.938,3.312l6.87,7.287a6.626,6.626,0,0,0,4.83,2.634,6.632,6.632,0,0,0,5.154-1.924l1.446-1.447a6.628,6.628,0,0,1,7.144-1.467l9.271,3.708a6.631,6.631,0,0,0,6.136-.639l3.073-2.05a3.172,3.172,0,0,0,1.414-2.642A3.175,3.175,0,0,0,1292.44-373.418Z" transform="translate(119.792 123.145)" fill="none" stroke="#9e181a" stroke-linecap="round" stroke-linejoin="round" stroke-width="3"/>
    <path id="Path_2535" data-name="Path 2535" d="M1216.615-388.234v6.625h16.562l-3.312-9.937,13.25-3.312-6.625-9.937-9.937-6.625-6.973,11.506L1213.3-404.8l-3.312,9.937Z" transform="translate(105.317 117.269)" fill="none" stroke="#9e181a" stroke-linecap="round" stroke-linejoin="round" stroke-width="3"/>
    <path id="Path_2536" data-name="Path 2536" d="M1382.654-706.661a23.531,23.531,0,0,0-23.53-23.534H1159.082a23.531,23.531,0,0,0-23.531,23.534v127.187a23.329,23.329,0,0,0,23.531,23.295h52.951v35.466a9.779,9.779,0,0,0,6.036,9.034,9.782,9.782,0,0,0,10.657-2.12l42.141-42.38h88.256a23.329,23.329,0,0,0,23.53-23.295V-706.661Z" transform="translate(101.666 77.33)" fill="none" stroke="#121947" stroke-linecap="round" stroke-linejoin="round" stroke-width="3"/>
    <line id="Line_224" data-name="Line 224" y1="5.431" transform="translate(1041.84 -565.769)" fill="none" stroke="#9e181a" stroke-linecap="round" stroke-linejoin="round" stroke-width="3"/>
    <line id="Line_225" data-name="Line 225" y1="3.84" x2="3.84" transform="translate(1053.362 -559.406)" fill="none" stroke="#9e181a" stroke-linecap="round" stroke-linejoin="round" stroke-width="3"/>
    <line id="Line_226" data-name="Line 226" x2="5.431" transform="translate(1058.134 -544.045)" fill="none" stroke="#9e181a" stroke-linecap="round" stroke-linejoin="round" stroke-width="3"/>
    <line id="Line_227" data-name="Line 227" x2="3.84" y2="3.84" transform="translate(1053.362 -532.524)" fill="none" stroke="#9e181a" stroke-linecap="round" stroke-linejoin="round" stroke-width="3"/>
    <line id="Line_228" data-name="Line 228" y2="5.431" transform="translate(1041.84 -527.752)" fill="none" stroke="#9e181a" stroke-linecap="round" stroke-linejoin="round" stroke-width="3"/>
    <line id="Line_229" data-name="Line 229" x1="3.84" y2="3.84" transform="translate(1026.479 -532.524)" fill="none" stroke="#9e181a" stroke-linecap="round" stroke-linejoin="round" stroke-width="3"/>
    <line id="Line_230" data-name="Line 230" x1="5.431" transform="translate(1020.116 -544.045)" fill="none" stroke="#9e181a" stroke-linecap="round" stroke-linejoin="round" stroke-width="3"/>
    <line id="Line_231" data-name="Line 231" x1="3.84" y1="3.84" transform="translate(1026.479 -559.406)" fill="none" stroke="#9e181a" stroke-linecap="round" stroke-linejoin="round" stroke-width="3"/>
    <line id="Line_232" data-name="Line 232" y1="29.374" transform="translate(1174.311 -588.956)" fill="none" stroke="#121947" stroke-linecap="round" stroke-linejoin="round" stroke-width="3"/>
    <line id="Line_233" data-name="Line 233" x2="29.374" transform="translate(1159.625 -574.27)" fill="none" stroke="#121947" stroke-linecap="round" stroke-linejoin="round" stroke-width="3"/>
    <line id="Line_234" data-name="Line 234" y1="19.051" transform="translate(1278.46 -443.21)" fill="none" stroke="#121947" stroke-linecap="round" stroke-linejoin="round" stroke-width="3"/>
    <line id="Line_235" data-name="Line 235" x2="19.052" transform="translate(1268.934 -433.684)" fill="none" stroke="#121947" stroke-linecap="round" stroke-linejoin="round" stroke-width="3"/>
    <path id="Path_2537" data-name="Path 2537" d="M1230.4-686.242" transform="translate(113.013 13.656)" fill="none" stroke="#121947" stroke-linecap="round" stroke-linejoin="round" stroke-width="3"/>
    <g id="Group_3410" data-name="Group 3410" transform="translate(930.649 -504.556)">
      <path id="Path_2538" data-name="Path 2538" d="M1020.625-489.263c-2.715-16.7,4.306-34.449,22.326-44.982l12.587,23.319c-8.413,4.9-10.6,13.648-7.817,20.869a16.816,16.816,0,0,0,15.635,10.733H1082.9" transform="translate(-896.939 575.519)" fill="none" stroke="#121947" stroke-linecap="round" stroke-linejoin="round" stroke-width="3"/>
      <path id="Path_2539" data-name="Path 2539" d="M1041.3-455.211a43.426,43.426,0,0,0,14.044,2.384h2.583v89.436h86.123v-89.436h2.583a43.472,43.472,0,0,0,40.345-27.691c7.221-18.682,1.524-41.207-19.941-53.727l-12.587,23.319c8.413,4.9,10.6,13.648,7.817,20.869a16.814,16.814,0,0,1-15.635,10.733h-19.609" transform="translate(-888.931 575.519)" fill="none" stroke="#121947" stroke-linecap="round" stroke-linejoin="round" stroke-width="3"/>
      <g id="Group_3409" data-name="Group 3409">
        <g id="Group_3403" data-name="Group 3403" transform="translate(145.986)">
          <path id="Path_2540" data-name="Path 2540" d="M1088.763-473.8l-14.631,51.071a13.252,13.252,0,0,0,2.559,12.132l9.528,11.432a3.314,3.314,0,0,0,5.089,0l9.528-11.432a13.255,13.255,0,0,0,2.558-12.132Z" transform="translate(-1022.732 598.309)" fill="none" stroke="#121947" stroke-linecap="round" stroke-linejoin="round" stroke-width="3"/>
          <path id="Path_2541" data-name="Path 2541" d="M1066.727-494.362h-3.776v27.691a6.653,6.653,0,0,0,8.347,6.427l21.465-5.83-12.985-20.669" transform="translate(-1026.755 590.555)" fill="none" stroke="#121947" stroke-linecap="round" stroke-linejoin="round" stroke-width="3"/>
          <path id="Path_2542" data-name="Path 2542" d="M1097.651-486.744h-.066L1084.6-466.075l21.464,5.83a6.629,6.629,0,0,0,8.348-6.427v-27.691h-3.71" transform="translate(-1018.592 590.555)" fill="none" stroke="#121947" stroke-linecap="round" stroke-linejoin="round" stroke-width="3"/>
          <path id="Path_2543" data-name="Path 2543" d="M1137.047-523.132v1.723a8.156,8.156,0,0,1,6.625,7.95,8.136,8.136,0,0,1-7.421,8.082,39.719,39.719,0,0,1-12.852,21.863,39.6,39.6,0,0,1-13.051,7.618h-.066a39.865,39.865,0,0,1-12.984,2.187,40.472,40.472,0,0,1-12.985-2.187,38.059,38.059,0,0,1-13.052-7.618,39.726,39.726,0,0,1-12.852-21.863,8.193,8.193,0,0,1-7.486-8.082,8.221,8.221,0,0,1,6.625-7.95v-1.657" transform="translate(-1031.289 579.708)" fill="none" stroke="#121947" stroke-linecap="round" stroke-linejoin="round" stroke-width="3"/>
          <g id="Group_3401" data-name="Group 3401" transform="translate(46.156 53.142)">
            <path id="Path_2544" data-name="Path 2544" d="M1075.152-525.626a4.967,4.967,0,0,0-4.968,4.968,4.968,4.968,0,0,0,4.968,4.968,4.968,4.968,0,0,0,4.968-4.968,4.967,4.967,0,0,0-4.968-4.968Z" transform="translate(-1070.184 525.626)" fill="#121947"/>
          </g>
          <g id="Group_3402" data-name="Group 3402" transform="translate(75.967 53.142)">
            <path id="Path_2545" data-name="Path 2545" d="M1096.8-525.626a4.969,4.969,0,0,0-4.97,4.968,4.969,4.969,0,0,0,4.97,4.968,4.969,4.969,0,0,0,4.968-4.968,4.969,4.969,0,0,0-4.968-4.968Z" transform="translate(-1091.833 525.626)" fill="#121947"/>
          </g>
          <path id="Path_2546" data-name="Path 2546" d="M1054.724-534.075a43.218,43.218,0,0,1,41.141-30.143,43.215,43.215,0,0,1,41.14,30.143" transform="translate(-1029.856 564.218)" fill="none" stroke="#121947" stroke-linecap="round" stroke-linejoin="round" stroke-width="3"/>
          <path id="Path_2547" data-name="Path 2547" d="M1060.4-521.99a.066.066,0,0,0,.067-.066c6.161-3.777,10.4-9.21,13.382-15.7,14.641,9.8,32.991,10.335,49.818,8.48" transform="translate(-1027.716 574.194)" fill="none" stroke="#121947" stroke-linecap="round" stroke-linejoin="round" stroke-width="3"/>
          <path id="Path_2548" data-name="Path 2548" d="M1054.724-534.075a43.218,43.218,0,0,1,41.141-30.143,43.215,43.215,0,0,1,41.14,30.143" transform="translate(-1029.856 564.218)" fill="none" stroke="#121947" stroke-linecap="round" stroke-linejoin="round" stroke-width="3"/>
          <path id="Path_2549" data-name="Path 2549" d="M1060.4-521.99a.066.066,0,0,0,.067-.066c6.161-3.777,10.4-9.21,13.382-15.7,14.641,9.8,32.991,10.335,49.818,8.48" transform="translate(-1027.716 574.194)" fill="none" stroke="#121947" stroke-linecap="round" stroke-linejoin="round" stroke-width="3"/>
          <path id="Path_2550" data-name="Path 2550" d="M1065.373-542.576a21.215,21.215,0,0,0,6.625,6.625" transform="translate(-1025.842 572.378)" fill="none" stroke="#121947" stroke-linecap="round" stroke-linejoin="round" stroke-width="3"/>
          <path id="Path_2551" data-name="Path 2551" d="M1097.314-500.746a17.911,17.911,0,0,0-19.875,0" transform="translate(-1021.292 587.014)" fill="none" stroke="#121947" stroke-linecap="round" stroke-linejoin="round" stroke-width="3"/>
          <path id="Path_2552" data-name="Path 2552" d="M1066.311-517.771a13.266,13.266,0,0,0,4.769-18.12,13.33,13.33,0,0,0-11.464-6.574,13.212,13.212,0,0,0-6.665,1.807l-16.286,9.5,12.589,23.335Z" transform="translate(-1036.665 572.419)" fill="none" stroke="#121947" stroke-linecap="round" stroke-linejoin="round" stroke-width="3"/>
          <path id="Path_2553" data-name="Path 2553" d="M1112.839-517.771a13.266,13.266,0,0,1-4.769-18.12,13.332,13.332,0,0,1,11.464-6.574,13.211,13.211,0,0,1,6.665,1.807l16.286,9.5L1129.9-507.821Z" transform="translate(-1010.423 572.419)" fill="none" stroke="#121947" stroke-linecap="round" stroke-linejoin="round" stroke-width="3"/>
          <path id="Path_2554" data-name="Path 2554" d="M1070.178-514.151a16.539,16.539,0,0,0,4.975.76,16.538,16.538,0,0,0,4.975-.76" transform="translate(-1024.03 583.094)" fill="none" stroke="#121947" stroke-linecap="round" stroke-linejoin="round" stroke-width="3"/>
          <path id="Path_2555" data-name="Path 2555" d="M1101.78-514.151a16.537,16.537,0,0,1-4.975.76,16.539,16.539,0,0,1-4.975-.76" transform="translate(-1015.867 583.094)" fill="none" stroke="#121947" stroke-linecap="round" stroke-linejoin="round" stroke-width="3"/>
        </g>
        <path id="Path_2556" data-name="Path 2556" d="M1203.183-413.16a6.623,6.623,0,0,1-6.625,6.625h-59.622a6.624,6.624,0,0,1-6.625-6.625,6.625,6.625,0,0,1,6.625-6.625h59.622A6.624,6.624,0,0,1,1203.183-413.16Z" transform="translate(-855.372 618.672)" fill="none" stroke="#121947" stroke-linecap="round" stroke-linejoin="round" stroke-width="3"/>
        <path id="Path_2557" data-name="Path 2557" d="M1195.968-422.782a6.624,6.624,0,0,1-6.625,6.625h-59.624a6.624,6.624,0,0,1-6.625-6.625,6.625,6.625,0,0,1,6.625-6.625h59.624A6.625,6.625,0,0,1,1195.968-422.782Z" transform="translate(-858.094 615.044)" fill="none" stroke="#9e181a" stroke-linecap="round" stroke-linejoin="round" stroke-width="3"/>
        <g id="Group_3408" data-name="Group 3408" transform="translate(0 86.255)">
          <g id="Group_3407" data-name="Group 3407">
            <g id="Group_3404" data-name="Group 3404">
              <line id="Line_236" data-name="Line 236" x2="66.248" transform="translate(43.07 125.882)" fill="none" stroke="#121947" stroke-linecap="round" stroke-linejoin="round" stroke-width="3"/>
              <path id="Path_2558" data-name="Path 2558" d="M1028.365-395.582h41.406a13.2,13.2,0,0,0,13.25-13.25v-79.5a13.246,13.246,0,0,0-13.25-13.25H943.9a13.289,13.289,0,0,0-13.25,13.25v79.5a13.246,13.246,0,0,0,13.25,13.25H985.3" transform="translate(-930.649 501.579)" fill="none" stroke="#9e181a" stroke-linecap="round" stroke-linejoin="round" stroke-width="3"/>
              <line id="Line_237" data-name="Line 237" x2="112.622" transform="translate(19.883 13.26)" fill="none" stroke="#9e181a" stroke-linecap="round" stroke-linejoin="round" stroke-width="3"/>
              <path id="Path_2559" data-name="Path 2559" d="M1015.517-388.4H969.143l5.613-67.347a13.247,13.247,0,0,1,13.2-12.149H996.7a13.25,13.25,0,0,1,13.2,12.149Z" transform="translate(-916.136 514.279)" fill="none" stroke="#9e181a" stroke-linecap="round" stroke-linejoin="round" stroke-width="3"/>
              <line id="Line_238" data-name="Line 238" y2="6.625" transform="translate(19.883 79.508)" fill="none" stroke="#9e181a" stroke-linecap="round" stroke-linejoin="round" stroke-width="3"/>
              <line id="Line_239" data-name="Line 239" y2="6.625" transform="translate(33.132 79.508)" fill="none" stroke="#9e181a" stroke-linecap="round" stroke-linejoin="round" stroke-width="3"/>
              <line id="Line_240" data-name="Line 240" y2="6.625" transform="translate(46.382 79.508)" fill="none" stroke="#9e181a" stroke-linecap="round" stroke-linejoin="round" stroke-width="3"/>
            </g>
            <g id="Group_3406" data-name="Group 3406" transform="translate(6.633 125.882)">
              <g id="Group_3405" data-name="Group 3405" transform="translate(6.625 13.25)">
                <path id="Path_2560" data-name="Path 2560" d="M1268.2-297.855a6.625,6.625,0,0,1-6.625,6.625H946.9a6.625,6.625,0,0,1-6.625-6.625V-400.541H1268.2Z" transform="translate(-940.277 400.541)" fill="none" stroke="#121947" stroke-linecap="round" stroke-linejoin="round" stroke-width="3"/>
              </g>
              <path id="Path_2561" data-name="Path 2561" d="M1270.019-410.163H942.091a6.625,6.625,0,0,0-6.625,6.625h0a6.625,6.625,0,0,0,6.625,6.625h327.928a6.624,6.624,0,0,0,6.625-6.625h0A6.624,6.624,0,0,0,1270.019-410.163Z" transform="translate(-935.466 410.163)" fill="none" stroke="#121947" stroke-linecap="round" stroke-linejoin="round" stroke-width="3"/>
              <rect id="Rectangle_154" data-name="Rectangle 154" width="281.555" height="109.309" transform="translate(29.812 13.25)" stroke-width="3" stroke="#121947" stroke-linecap="round" stroke-linejoin="round" fill="none"/>
              <path id="Path_2562" data-name="Path 2562" d="M1204.324-312.328H982.393a13.25,13.25,0,0,1-13.25-13.25v-49.686a13.249,13.249,0,0,1,13.25-13.25h221.932a13.249,13.249,0,0,1,13.25,13.25v49.686A13.25,13.25,0,0,1,1204.324-312.328Z" transform="translate(-922.769 418.326)" fill="none" stroke="#121947" stroke-linecap="round" stroke-linejoin="round" stroke-width="3"/>
            </g>
          </g>
        </g>
      </g>
    </g>
    <text id="_404" data-name="404" transform="translate(1260.657 -520.327)" fill="#9e181a" font-size="120" font-family="SegoeUI, Segoe UI"><tspan x="0" y="0">404</tspan></text>
  </g>
</svg>
