<svg xmlns="http://www.w3.org/2000/svg" xmlns:xlink="http://www.w3.org/1999/xlink" width="209.788" height="163.713" viewBox="0 0 209.788 163.713">
  <defs>
    <clipPath id="clip-path">
      <path id="Path_742" data-name="Path 742" d="M-1269.433,119.618l91.6-53.234L-1140.9,87.7l-91.6,53.234Z" transform="translate(1269.433 -66.384)" fill="none"/>
    </clipPath>
    <clipPath id="clip-path-2">
      <path id="Path_768" data-name="Path 768" d="M-1241.594,117.056l101.677-59.088,102.356,59.1-101.677,59.088Z" transform="translate(1241.594 -57.968)" fill="none"/>
    </clipPath>
    <clipPath id="clip-path-3">
      <path id="Path_887" data-name="Path 887" d="M-1219.078,81.543-1201,71.037l87.44,50.484-18.079,10.507Z" transform="translate(1219.078 -71.037)" fill="none"/>
    </clipPath>
  </defs>
  <g id="Group_2892" data-name="Group 2892" transform="translate(-783.612 -4072.113)">
    <g id="Group_2887" data-name="Group 2887" transform="translate(316 73)">
      <g id="Group_736" data-name="Group 736" transform="translate(468 4047.521)" opacity="0">
        <g id="Group_735" data-name="Group 735" transform="translate(4.471)">
          <g id="Group_734" data-name="Group 734">
            <g id="Group_733" data-name="Group 733">
              <g id="Group_732" data-name="Group 732" clip-path="url(#clip-path)">
                <g id="Group_731" data-name="Group 731">
                  <g id="Group_730" data-name="Group 730">
                    <g id="Group_729" data-name="Group 729">
                      <g id="Group_728" data-name="Group 728">
                        <path id="Path_741" data-name="Path 741" d="M-1140.9,87.7l-36.926-21.319-91.6,53.234,1.55.895,90.063-52.339,35.376,20.424,1.54-.9" transform="translate(1269.433 -66.384)" fill="#c1c1c0"/>
                      </g>
                    </g>
                  </g>
                </g>
              </g>
            </g>
          </g>
        </g>
        <circle id="Ellipse_14" data-name="Ellipse 14" cx="5.545" cy="5.545" r="5.545" transform="translate(0 46.995)" fill="#f7f7f7" stroke="#c1c1c0" stroke-miterlimit="10" stroke-width="0.776"/>
      </g>
      <g id="Group_769" data-name="Group 769" transform="translate(473.367 3999.113)">
        <g id="Group_750" data-name="Group 750" transform="translate(10.322 50.955)">
          <g id="Group_749" data-name="Group 749">
            <g id="Group_737" data-name="Group 737" transform="translate(78.495)">
              <path id="Path_743" data-name="Path 743" d="M-1200.97,84.358c7.1-4.128,18.656-4.128,25.807,0l-.018,6.549c-7.15-4.13-18.7-4.13-25.809,0Z" transform="translate(1200.99 -81.263)" fill="#c1cbe8"/>
            </g>
            <g id="Group_738" data-name="Group 738" transform="translate(5.304 3.097)">
              <path id="Path_744" data-name="Path 744" d="M-1234.432,125.212l73.191-42.534-.018,6.548-73.192,42.534Z" transform="translate(1234.45 -82.678)" fill="#c1cbe8"/>
            </g>
            <g id="Group_739" data-name="Group 739" transform="translate(5.388 60.58)">
              <path id="Path_745" data-name="Path 745" d="M-1160.723,151.491l-.019,6.548-73.67-42.533.018-6.548Z" transform="translate(1234.411 -108.958)" fill="#c1cbe8"/>
            </g>
            <g id="Group_740" data-name="Group 740" transform="translate(0 6.547)">
              <path id="Path_746" data-name="Path 746" d="M-1058.9,129.885c7.151,4.13,7.188,10.821.083,14.951l-73.191,42.534c-7.105,4.128-18.659,4.128-25.809,0l-73.67-42.534c-7.151-4.128-7.188-10.821-.083-14.949l73.191-42.534c7.1-4.13,18.659-4.13,25.809,0Z" transform="translate(1236.875 -84.256)" fill="#c1cbe8"/>
            </g>
            <g id="Group_741" data-name="Group 741" transform="translate(177.974 45.63)">
              <path id="Path_747" data-name="Path 747" d="M-1150.124,116.2c.006-2.721-1.789-5.449-5.388-7.527l.018-6.547c3.6,2.078,5.4,4.8,5.387,7.527C-1150.111,111.614-1150.12,114.232-1150.124,116.2Z" transform="translate(1155.512 -102.123)" fill="#c1cbe8"/>
            </g>
            <g id="Group_742" data-name="Group 742" transform="translate(0 45.63)">
              <path id="Path_748" data-name="Path 748" d="M-1236.855,109.547c.007-2.688,1.774-5.372,5.3-7.424l-.017,6.549c-3.528,2.05-5.3,4.734-5.3,7.422C-1236.868,114.13-1236.862,111.511-1236.855,109.547Z" transform="translate(1236.875 -102.123)" fill="#c1cbe8"/>
            </g>
            <g id="Group_743" data-name="Group 743" transform="translate(178.057 53.157)">
              <path id="Path_749" data-name="Path 749" d="M-1150.152,105.564l-.017,6.547c-.009,2.688-1.774,5.372-5.3,7.424l.02-6.549C-1151.926,110.936-1150.158,108.252-1150.152,105.564Z" transform="translate(1155.474 -105.564)" fill="#c1cbe8"/>
            </g>
            <g id="Group_744" data-name="Group 744" transform="translate(0 53.054)">
              <path id="Path_750" data-name="Path 750" d="M-1236.875,112.064l.02-6.547c-.009,2.721,1.789,5.449,5.388,7.527l-.02,6.547C-1235.086,117.513-1236.882,114.787-1236.875,112.064Z" transform="translate(1236.875 -105.517)" fill="#c1cbe8"/>
            </g>
            <g id="Group_745" data-name="Group 745" transform="translate(0.02)">
              <path id="Path_751" data-name="Path 751" d="M-1058.894,126.893c7.151,4.128,7.19,10.821.086,14.949L-1132,184.376c-7.1,4.128-18.658,4.128-25.809,0l-73.67-42.532c-7.151-4.13-7.187-10.821-.085-14.951l73.193-42.534c7.1-4.128,18.656-4.128,25.807,0Z" transform="translate(1236.866 -81.263)" fill="#c1cbe8"/>
            </g>
            <g id="Group_746" data-name="Group 746" transform="translate(104.304 3.096)">
              <path id="Path_752" data-name="Path 752" d="M-1189.172,82.678l73.67,42.533-.018,6.548-73.67-42.533Z" transform="translate(1189.191 -82.678)" fill="#c1cbe8"/>
            </g>
            <g id="Group_747" data-name="Group 747" transform="translate(104.867 60.579)">
              <path id="Path_753" data-name="Path 753" d="M-1115.724,108.957l-.019,6.548-73.191,42.534.018-6.548Z" transform="translate(1188.933 -108.957)" fill="#c1cbe8"/>
            </g>
            <g id="Group_748" data-name="Group 748" transform="translate(79.057 103.113)">
              <path id="Path_754" data-name="Path 754" d="M-1174.9,128.4l-.019,6.549c-7.1,4.128-18.659,4.128-25.809,0l.02-6.549C-1193.562,132.53-1182.009,132.53-1174.9,128.4Z" transform="translate(1200.733 -128.402)" fill="#c1cbe8"/>
            </g>
          </g>
        </g>
        <g id="Group_768" data-name="Group 768">
          <g id="Group_763" data-name="Group 763" transform="translate(7.703 5.579)">
            <g id="Group_751" data-name="Group 751" transform="translate(80.692)">
              <path id="Path_755" data-name="Path 755" d="M-1201.051,63.7c7.3-4.241,19.186-4.241,26.531,0l-.129,45.894c-7.345-4.239-19.234-4.239-26.533,0Z" transform="translate(1201.182 -60.519)" fill="#f3f3f4"/>
            </g>
            <g id="Group_752" data-name="Group 752" transform="translate(107.225 3.181)">
              <path id="Path_756" data-name="Path 756" d="M-1188.923,61.973l75.723,43.719-.13,45.9-75.723-43.719Z" transform="translate(1189.053 -61.973)" fill="#f3f3f4"/>
            </g>
            <g id="Group_753" data-name="Group 753" transform="translate(5.461 3.181)">
              <path id="Path_757" data-name="Path 757" d="M-1235.445,105.692l75.231-43.719-.13,45.9-75.231,43.719Z" transform="translate(1235.575 -61.973)" fill="#f3f3f4"/>
            </g>
            <g id="Group_754" data-name="Group 754" transform="translate(0.001 45.896)">
              <path id="Path_758" data-name="Path 758" d="M-1055.125,128.4c7.359,4.25,7.4,11.136.1,15.378l-75.229,43.718c-7.312,4.25-19.2,4.25-26.559,0l-75.724-43.718c-7.346-4.241-7.385-11.127-.073-15.378l75.23-43.718c7.3-4.241,19.188-4.241,26.533,0Z" transform="translate(1238.072 -81.501)" fill="#f3f3f4"/>
            </g>
            <g id="Group_755" data-name="Group 755" transform="translate(182.948 46.899)">
              <path id="Path_759" data-name="Path 759" d="M-1148.888,135.6c.007-2.8-1.842-5.609-5.547-7.748l.129-45.9c3.705,2.139,5.556,4.948,5.547,7.75C-1148.8,103.477-1148.85,121.836-1148.888,135.6Z" transform="translate(1154.435 -81.959)" fill="#f3f3f4"/>
            </g>
            <g id="Group_756" data-name="Group 756" transform="translate(0 46.901)">
              <path id="Path_760" data-name="Path 760" d="M-1237.94,89.6c.006-2.767,1.826-5.53,5.46-7.641l-.129,45.894c-3.635,2.113-5.453,4.876-5.462,7.643C-1238.032,121.727-1237.98,103.37-1237.94,89.6Z" transform="translate(1238.072 -81.96)" fill="#f3f3f4"/>
            </g>
            <g id="Group_757" data-name="Group 757" transform="translate(183.047 54.649)">
              <path id="Path_761" data-name="Path 761" d="M-1148.812,85.5l-.131,45.894c-.007,2.765-1.822,5.523-5.446,7.63l.131-45.9C-1150.634,91.023-1148.82,88.265-1148.812,85.5Z" transform="translate(1154.39 -85.502)" fill="#f3f3f4"/>
            </g>
            <g id="Group_758" data-name="Group 758" transform="translate(0 54.541)">
              <path id="Path_762" data-name="Path 762" d="M-1238.072,131.349l.131-45.9c-.009,2.8,1.837,5.6,5.532,7.735l-.129,45.9C-1236.232,136.951-1238.078,134.149-1238.072,131.349Z" transform="translate(1238.072 -85.453)" fill="#f3f3f4"/>
            </g>
            <g id="Group_759" data-name="Group 759" transform="translate(107.817 62.276)">
              <path id="Path_763" data-name="Path 763" d="M-1113.421,88.989l-.13,45.9-75.231,43.719.13-45.9Z" transform="translate(1188.782 -88.989)" fill="#f3f3f4"/>
            </g>
            <g id="Group_760" data-name="Group 760" transform="translate(5.534 62.277)">
              <path id="Path_764" data-name="Path 764" d="M-1159.689,132.708l-.13,45.9-75.723-43.719.13-45.9Z" transform="translate(1235.542 -88.989)" fill="#f3f3f4"/>
            </g>
            <g id="Group_761" data-name="Group 761" transform="translate(0.13)">
              <path id="Path_765" data-name="Path 765" d="M-1055.065,107.417c7.36,4.25,7.4,11.136.1,15.377l-75.232,43.72c-7.313,4.248-19.2,4.248-26.559,0l-75.724-43.72c-7.345-4.241-7.385-11.127-.072-15.375l75.232-43.72c7.3-4.241,19.186-4.241,26.531,0Z" transform="translate(1238.012 -60.519)" fill="#fff"/>
            </g>
            <g id="Group_762" data-name="Group 762" transform="translate(81.258 105.996)">
              <path id="Path_766" data-name="Path 766" d="M-1174.236,108.976l-.129,45.894c-7.312,4.25-19.2,4.25-26.56,0l.129-45.894C-1193.435,113.224-1181.548,113.224-1174.236,108.976Z" transform="translate(1200.924 -108.976)" fill="#f3f3f4"/>
            </g>
          </g>
          <g id="Group_767" data-name="Group 767">
            <g id="Group_766" data-name="Group 766">
              <g id="Group_765" data-name="Group 765" clip-path="url(#clip-path-2)">
                <g id="Group_764" data-name="Group 764" transform="translate(7.774 4.5)">
                  <path id="Path_767" data-name="Path 767" d="M-1231.187,121.533c-6.606-3.815-6.639-10.023-.077-13.838l75.229-43.72c6.565-3.813,17.283-3.813,23.889,0l75.724,43.72c6.6,3.813,6.639,10.023.077,13.835l-75.23,43.72c-6.564,3.815-17.282,3.815-23.889,0l-75.724-43.718m176.082-14.605-75.722-43.718c-7.347-4.241-19.221-4.25-26.533,0l-75.231,43.72c-7.3,4.241-7.26,11.127.087,15.369l75.722,43.718c7.361,4.25,19.249,4.25,26.547.009L-1055,122.3c7.313-4.25,7.26-11.127-.1-15.377" transform="translate(1238.04 -60.025)" fill="#c1c1c0"/>
                </g>
              </g>
            </g>
          </g>
        </g>
      </g>
      <g id="Group_941" data-name="Group 941" transform="translate(524.62 4025.699)">
        <g id="Group_940" data-name="Group 940">
          <g id="Group_939" data-name="Group 939" clip-path="url(#clip-path-3)">
            <g id="Group_938" data-name="Group 938" transform="translate(0.611 0.217)">
              <path id="Path_881" data-name="Path 881" d="M-1213.22,82.716a8.38,8.38,0,0,1-.866-.564,7.846,7.846,0,0,1-.785-.663l7.035-4.088a8.264,8.264,0,0,1,1.686.234,6,6,0,0,1,1.743.654,2.945,2.945,0,0,1,1.12,1,1.451,1.451,0,0,1,.131,1.072,2.763,2.763,0,0,1-.746,1.1,8.374,8.374,0,0,1-1.442,1.048,8.192,8.192,0,0,1-4.086,1.21,7.275,7.275,0,0,1-3.791-1M-1199,72.265l-2.706-1.129-17.094,9.935a14.474,14.474,0,0,0,1.426,1.291,15.666,15.666,0,0,0,2.391,1.619,10.762,10.762,0,0,0,2.846,1.146,12.13,12.13,0,0,0,3.065.37,13.252,13.252,0,0,0,3.1-.427,11.98,11.98,0,0,0,2.944-1.225,8.664,8.664,0,0,0,2.12-1.638,3.62,3.62,0,0,0,.9-1.7,2.455,2.455,0,0,0-.387-1.669,4.977,4.977,0,0,0-1.747-1.525,8.349,8.349,0,0,0-1.9-.807,12.419,12.419,0,0,0-1.619-.37l6.661-3.872" transform="translate(1218.798 -71.136)" fill="#9e181a"/>
              <path id="Path_882" data-name="Path 882" d="M-1197.257,80.586l-5.992-3.458-1.971,1.146,3.659,2.111-5.425,3.154a12.828,12.828,0,0,0-1.886,1.306,2.36,2.36,0,0,0-.842,1.249,1.539,1.539,0,0,0,.341,1.242,5.743,5.743,0,0,0,1.649,1.291,11.1,11.1,0,0,0,1.046.523c.378.138.713.267,1.048.378s.641.179.905.252.5.112.669.144l1.608-1.291a8.444,8.444,0,0,1-1.437-.313,7.429,7.429,0,0,1-1.6-.687c-.656-.378-.951-.774-.883-1.2s.7-.96,1.87-1.636l7.243-4.211m3.928-4.209a3.281,3.281,0,0,0-1.658-.394,3.478,3.478,0,0,0-1.807.483c-.569.33-.859.676-.842,1.057a1.143,1.143,0,0,0,.7.952,3.238,3.238,0,0,0,1.645.4,3.585,3.585,0,0,0,1.822-.492c.554-.322.816-.669.829-1.048a1.141,1.141,0,0,0-.689-.96" transform="translate(1229.555 -65.379)" fill="#9e181a"/>
              <path id="Path_883" data-name="Path 883" d="M-1183.5,86.131l-9.316-5.377-1.971,1.144,6.285,3.629c-.875.039-13.858,1.192-14.887,1.369l-1.582.921,9.316,5.377,1.971-1.144-6.147-3.548c1.212-.186,13.886-1.306,14.54-1.33l1.792-1.041" transform="translate(1235.213 -59.715)" fill="#9e181a"/>
              <path id="Path_884" data-name="Path 884" d="M-1183.153,88.731l-5.991-3.458-1.971,1.144,3.66,2.113-5.427,3.152a11.747,11.747,0,0,0-1.87,1.315,2.4,2.4,0,0,0-.857,1.242,1.556,1.556,0,0,0,.341,1.242,5.75,5.75,0,0,0,1.651,1.288,10.585,10.585,0,0,0,1.046.525c.376.138.711.267,1.046.378s.643.177.908.252.5.112.67.144l1.606-1.291a8.282,8.282,0,0,1-1.435-.315,7.26,7.26,0,0,1-1.6-.685c-.658-.378-.951-.774-.87-1.194s.691-.967,1.855-1.645l7.245-4.209m3.928-4.209a3.32,3.32,0,0,0-1.658-.4,3.47,3.47,0,0,0-1.807.486c-.569.33-.859.676-.844,1.054a1.163,1.163,0,0,0,.7.952,3.216,3.216,0,0,0,1.645.4,3.574,3.574,0,0,0,1.82-.492c.556-.324.818-.669.829-1.048a1.138,1.138,0,0,0-.687-.96" transform="translate(1246.301 -55.712)" fill="#9e181a"/>
              <path id="Path_885" data-name="Path 885" d="M-1174.165,91.507a14.854,14.854,0,0,0-2.957-1.291,12.743,12.743,0,0,0-3.246-.571,12.212,12.212,0,0,0-3.327.265,11.423,11.423,0,0,0-3.249,1.291,6.405,6.405,0,0,0-2.148,1.813,2.592,2.592,0,0,0-.519,1.888,3.61,3.61,0,0,0,.984,1.888,9.381,9.381,0,0,0,2.321,1.789,17.937,17.937,0,0,0,2.22,1.1,16.19,16.19,0,0,0,2.413.781l1.621-1.312a13.015,13.015,0,0,1-2.231-.663,14.963,14.963,0,0,1-1.717-.862,7.7,7.7,0,0,1-1.691-1.249,2.629,2.629,0,0,1-.731-1.291,1.7,1.7,0,0,1,.284-1.282,4.6,4.6,0,0,1,1.525-1.258,7.674,7.674,0,0,1,2.236-.9,8.375,8.375,0,0,1,2.255-.192,8.733,8.733,0,0,1,2.159.411,9.5,9.5,0,0,1,1.982.871,9.58,9.58,0,0,1,1.3.895,4.658,4.658,0,0,1,1.037,1.21l2.516-.895a9.706,9.706,0,0,0-1.4-1.354,14.456,14.456,0,0,0-1.636-1.089" transform="translate(1253.428 -49.183)" fill="#9e181a"/>
              <path id="Path_886" data-name="Path 886" d="M-1178.427,100.856c-1.021-.588-1.47-1.267-1.321-2.032s.84-1.525,2.1-2.257a8.848,8.848,0,0,1,3.9-1.234,6.1,6.1,0,0,1,3.526.75c1.019.588,1.454,1.273,1.334,2.056-.123.766-.827,1.531-2.1,2.273a8.742,8.742,0,0,1-3.9,1.218,6.236,6.236,0,0,1-3.539-.774m10.182-5.919a9.686,9.686,0,0,0-2.69-1.039,12.166,12.166,0,0,0-3.023-.33,12.613,12.613,0,0,0-3.089.435,11.786,11.786,0,0,0-2.9,1.216,7.148,7.148,0,0,0-2.078,1.678,3.235,3.235,0,0,0-.757,1.8,2.789,2.789,0,0,0,.569,1.759A5.5,5.5,0,0,0-1180.4,102a10.059,10.059,0,0,0,2.706,1.063,12.371,12.371,0,0,0,3.036.324,13.29,13.29,0,0,0,3.1-.444,11.682,11.682,0,0,0,2.9-1.2,7.261,7.261,0,0,0,2.08-1.7,3.12,3.12,0,0,0,.741-1.789,2.8,2.8,0,0,0-.582-1.75,5.7,5.7,0,0,0-1.833-1.573" transform="translate(1261.557 -44.502)" fill="#9e181a"/>
            </g>
          </g>
        </g>
      </g>
    </g>
  </g>
</svg>
