<svg xmlns="http://www.w3.org/2000/svg" width="46" height="44.317" viewBox="0 0 46 44.317">
  <g id="Group_3205" data-name="Group 3205" transform="translate(3838.877 -2030.488)">
    <g id="Group_3198" data-name="Group 3198">
      <g id="Group_3190" data-name="Group 3190">
        <g id="Group_3188" data-name="Group 3188">
          <path id="Path_2492" data-name="Path 2492" d="M-3797.232,2059.06h-37.286v-25.63a2.508,2.508,0,0,1,2.572-2.44h32.145a2.508,2.508,0,0,1,2.572,2.44Z" fill="none" stroke="#0a1437" stroke-linecap="round" stroke-linejoin="round" stroke-width="1"/>
          <path id="Path_2527" data-name="Path 2527" d="M-3799.806,2059.06v-24.214a1.284,1.284,0,0,0-1.282-1.289h-29.578a1.283,1.283,0,0,0-1.281,1.289v24.214" fill="none" stroke="#0a1437" stroke-linecap="round" stroke-linejoin="round" stroke-width="1"/>
          <path id="Path_2528" data-name="Path 2528" d="M-3823.173,2052.314l.663-2.563a.025.025,0,0,0,.007-.015,1.056,1.056,0,0,1,1.289-.752l12.778,3.285-.008.045" fill="none" stroke="#0a1437" stroke-linecap="round" stroke-linejoin="round" stroke-width="1"/>
          <path id="Path_2529" data-name="Path 2529" d="M-3825.793,2056.266v-2.876a1.06,1.06,0,0,1,1.058-1.073h17.8a1.065,1.065,0,0,1,1.065,1.065v2.884" fill="none" stroke="#0a1437" stroke-linecap="round" stroke-linejoin="round" stroke-width="1"/>
          <path id="Path_2530" data-name="Path 2530" d="M-3799.8,2059.06v-3.4h-.007q-3.029.369-6.065.6c-1.222.089-2.436.171-3.658.223a130.6,130.6,0,0,1-14.7-.112q-.781-.044-1.564-.111-3.084-.224-6.154-.6v3.4" fill="none" stroke="#0a1437" stroke-linecap="round" stroke-linejoin="round" stroke-width="1"/>
          <line id="Line_222" data-name="Line 222" x1="10.855" transform="translate(-3821.301 2071.703)" fill="none" stroke="#0a1437" stroke-linecap="round" stroke-linejoin="round" stroke-width="1"/>
          <path id="Path_2531" data-name="Path 2531" d="M-3824.661,2071.7h-11.57a2.146,2.146,0,0,1-2.146-2.146v-8.352a2.146,2.146,0,0,1,2.146-2.145h40.716a2.139,2.139,0,0,1,2.138,2.145v8.352a2.139,2.139,0,0,1-2.138,2.146h-11.578" fill="none" stroke="#0a1437" stroke-linecap="round" stroke-linejoin="round" stroke-width="1"/>
          <line id="Line_223" data-name="Line 223" x1="10.855" transform="translate(-3821.301 2071.703)" fill="none" stroke="#0a1437" stroke-linecap="round" stroke-linejoin="round" stroke-width="1"/>
          <path id="Path_2532" data-name="Path 2532" d="M-3824.661,2071.7h-11.57a2.146,2.146,0,0,1-2.146-2.146v-8.352a2.146,2.146,0,0,1,2.146-2.145h40.716a2.139,2.139,0,0,1,2.138,2.145v8.352a2.139,2.139,0,0,1-2.138,2.146h-11.578" fill="none" stroke="#0a1437" stroke-linecap="round" stroke-linejoin="round" stroke-width="1"/>
          <path id="Path_2502" data-name="Path 2502" d="M-3809.446,2070.447a1.287,1.287,0,0,1-1.286,1.286h-10.286a1.286,1.286,0,0,1-1.286-1.286v-1.929h-2.572v1.929a3.861,3.861,0,0,0,3.858,3.858h10.286a3.861,3.861,0,0,0,3.857-3.858v-1.929h-2.571Z" fill="none" stroke="#0a1437" stroke-linecap="round" stroke-linejoin="round" stroke-width="1"/>
          <rect id="Rectangle_129" data-name="Rectangle 129" width="3.857" height="12.644" transform="translate(-3801.732 2059.06)" stroke-width="1" stroke="#0a1437" stroke-linecap="round" stroke-linejoin="round" fill="none"/>
          <rect id="Rectangle_130" data-name="Rectangle 130" width="3.857" height="12.644" transform="translate(-3833.877 2059.06)" stroke-width="1" stroke="#0a1437" stroke-linecap="round" stroke-linejoin="round" fill="none"/>
          <path id="Path_2504" data-name="Path 2504" d="M-3820.376,2066.911a1.608,1.608,0,0,0-1.607-1.607h-3.215a1.607,1.607,0,0,0-1.607,1.608,1.606,1.606,0,0,0,1.607,1.607h3.215a1.607,1.607,0,0,0,1.607-1.607Z" fill="none" stroke="#0a1437" stroke-linecap="round" stroke-linejoin="round" stroke-width="1"/>
          <path id="Path_2506" data-name="Path 2506" d="M-3804.946,2066.911a1.608,1.608,0,0,0-1.607-1.607h-3.215a1.608,1.608,0,0,0-1.607,1.608,1.607,1.607,0,0,0,1.607,1.607h3.215a1.607,1.607,0,0,0,1.607-1.607Z" fill="none" stroke="#0a1437" stroke-linecap="round" stroke-linejoin="round" stroke-width="1"/>
        </g>
      </g>
    </g>
  </g>
</svg>
