<svg xmlns="http://www.w3.org/2000/svg" width="82.625" height="59.946" viewBox="0 0 82.625 59.946">
  <g id="Group_97" data-name="Group 97" transform="translate(0.5 -4.594)">
    <g id="Group_95" data-name="Group 95" transform="translate(0 5.094)">
      <path id="Path_78" data-name="Path 78" d="M49.747,77.855l6.326,6.326a1.713,1.713,0,0,1,0,2.423L39.716,102.96a1.713,1.713,0,0,1-2.423,0l-6.715-6.715" transform="translate(-30.578 -77.855)" fill="none" stroke="#9e181a" stroke-linecap="round" stroke-linejoin="round" stroke-width="1"/>
      <path id="Path_79" data-name="Path 79" d="M33.814,97.31l2.423,2.423a1.713,1.713,0,0,0,2.423,0L52.594,85.8a1.713,1.713,0,0,0,0-2.423l-2.423-2.423Z" transform="translate(-24.676 -72.204)" fill="none" stroke="#9e181a" stroke-linecap="round" stroke-linejoin="round" stroke-width="1"/>
    </g>
    <path id="Path_80" data-name="Path 80" d="M83.028,115.006a3.426,3.426,0,0,1-4.846,0,.851.851,0,0,0,.119.136,3.43,3.43,0,0,1-5.086,4.589l-1.22-1.2a3.427,3.427,0,0,1-4.846,4.846l-.963-.963A3.43,3.43,0,0,1,61.1,127l-1.988-1.985.74-.678a3.426,3.426,0,0,0-4.606-5.072l-.994.9-.059-.059,1.189-1.084a3.425,3.425,0,0,0-4.5-5.162l.167-.15a3.426,3.426,0,0,0-4.606-5.072l-.842.765a.041.041,0,0,0-.017-.028l.782-.709a3.418,3.418,0,0,0-4.151-5.4l-.09-.09L35.528,96.6,49.45,82.677c3.987,3.629,7.811.6,11.635,3.087l-7.331,3.793a3.426,3.426,0,1,0,3.16,6.08l6.82-3.657,16.283,15.337,3.01,2.844A3.452,3.452,0,0,1,83.028,115.006Z" transform="translate(-21.549 -63.965)" fill="none" stroke="#9e181a" stroke-linecap="round" stroke-linejoin="round" stroke-width="1"/>
    <path id="Path_81" data-name="Path 81" d="M45.016,95.725l-.782.709-2.225,2.03a3.426,3.426,0,0,1-4.623-5.058l3.01-2.739a2.662,2.662,0,0,1,.469-.345,3.418,3.418,0,0,1,4.151,5.4Z" transform="translate(-20.202 -51.021)" fill="none" stroke="#121947" stroke-linecap="round" stroke-linejoin="round" stroke-width="1"/>
    <path id="Path_82" data-name="Path 82" d="M48.41,99.4l-1.189,1.084-2.138,1.94a3.423,3.423,0,0,1-4.71-4.967L42.4,95.6l1.446-1.31.059-.045a3.425,3.425,0,0,1,4.5,5.162Z" transform="translate(-14.579 -44.345)" fill="none" stroke="#121947" stroke-linecap="round" stroke-linejoin="round" stroke-width="1"/>
    <path id="Path_83" data-name="Path 83" d="M48.763,101.284l-.74.678-.692.616a3.424,3.424,0,1,1-4.6-5.069l.435-.393.994-.9a3.426,3.426,0,0,1,4.606,5.072Z" transform="translate(-10.462 -40.912)" fill="none" stroke="#121947" stroke-linecap="round" stroke-linejoin="round" stroke-width="1"/>
    <path id="Path_84" data-name="Path 84" d="M47.692,97.522l-.167.15-.059.045a.29.29,0,0,1-.059.045l-1.387,1.265-1.94,1.759c-.031.031-.076.059-.09.1l-.89.8a3.425,3.425,0,1,1-4.62-5.058l3.764-3.417.842-.765a3.426,3.426,0,0,1,4.606,5.072Z" transform="translate(-18.196 -47.774)" fill="none" stroke="#121947" stroke-linecap="round" stroke-linejoin="round" stroke-width="1"/>
    <g id="Group_96" data-name="Group 96" transform="translate(54.675)">
      <path id="Path_85" data-name="Path 85" d="M56.979,81.791,51.3,87.471a1.713,1.713,0,0,0,0,2.423l16.357,16.357a1.713,1.713,0,0,0,2.423,0L75.325,101" transform="translate(-48.375 -76.051)" fill="none" stroke="#121947" stroke-linecap="round" stroke-linejoin="round" stroke-width="1"/>
      <path id="Path_86" data-name="Path 86" d="M69.219,97.31,66.8,99.733a1.7,1.7,0,0,1-2.378.045l-.045-.045-.09-.09L53.808,89.183c-.09-.09-.181-.181-.257-.271L50.436,85.8a1.723,1.723,0,0,1,0-2.423l2.423-2.423Z" transform="translate(-49.939 -67.113)" fill="none" stroke="#121947" stroke-linecap="round" stroke-linejoin="round" stroke-width="1"/>
    </g>
    <line id="Line_2" data-name="Line 2" x1="16.224" y1="15.366" transform="translate(42.244 27.984)" fill="none" stroke="#9e181a" stroke-linecap="round" stroke-linejoin="round" stroke-width="1"/>
    <path id="Path_87" data-name="Path 87" d="M53.215,91.811l-.059.031L46.336,95.5a3.426,3.426,0,1,1-3.16-6.08l7.331-3.793h.014l.706-.376a10.463,10.463,0,0,1,6.879-.949l.045.014a10.486,10.486,0,0,0,6.4-.723l1.836-.842,2.875,2.875c.076.09.167.181.257.271,3.612,3.793,9.33,9.706,10.474,10.46l.09.09.045.045L69.439,107.18" transform="translate(-10.971 -63.828)" fill="none" stroke="#121947" stroke-linecap="round" stroke-linejoin="round" stroke-width="1"/>
    <path id="Path_88" data-name="Path 88" d="M50.3,82.736s1.144,1.2,2.77,2.92L50.2,82.781Z" transform="translate(5.212 -63.858)" fill="none" stroke="#121947" stroke-linecap="round" stroke-linejoin="round" stroke-width="1"/>
    <path id="Path_89" data-name="Path 89" d="M55.2,87.66l-.045.045-.045-.045-.09-.09A.474.474,0,0,0,55.2,87.66Z" transform="translate(14 -55.04)" fill="none" stroke="#121947" stroke-linecap="round" stroke-linejoin="round" stroke-width="1"/>
    <line id="Line_3" data-name="Line 3" x2="2.625" y2="2.625" transform="translate(47.824 51.936)" fill="none" stroke="#9e181a" stroke-linecap="round" stroke-linejoin="round" stroke-width="1"/>
    <line id="Line_4" data-name="Line 4" x2="4.241" y2="4.241" transform="translate(52.872 47.292)" fill="none" stroke="#9e181a" stroke-linecap="round" stroke-linejoin="round" stroke-width="1"/>
    <line id="Line_5" data-name="Line 5" x2="2.625" y2="2.625" transform="translate(42.977 56.783)" fill="none" stroke="#9e181a" stroke-linecap="round" stroke-linejoin="round" stroke-width="1"/>
  </g>
</svg>
