<svg xmlns="http://www.w3.org/2000/svg" width="88.355" height="65.043" viewBox="0 0 88.355 65.043">
  <g id="Group_183" data-name="Group 183" transform="translate(0.5 0.5)">
    <g id="Group_106" data-name="Group 106" transform="translate(18.03 54.853)">
      <g id="Group_105" data-name="Group 105">
        <line id="Line_16" data-name="Line 16" x1="0.864" stroke-width="1" stroke="#121947" stroke-linecap="round" stroke-linejoin="round" fill="none"/>
      </g>
    </g>
    <path id="Path_107" data-name="Path 107" d="M245.706,142.457v6.851l-2.878-3.454v-3.4Z" transform="translate(-177.349 -93.936)" fill="none" stroke="#121947" stroke-linecap="round" stroke-linejoin="round" stroke-width="1"/>
    <path id="Path_108" data-name="Path 108" d="M259.224,138.037a1.433,1.433,0,0,1-1.3,1.415,6.907,6.907,0,0,1-13.668-1.415v-2.3a6.682,6.682,0,0,1,.2-1.6c3.3.5,7.173.737,10.166-1.277a5.889,5.889,0,0,0,3.454,3.259v.539A1.421,1.421,0,0,1,259.224,138.037Z" transform="translate(-174.747 -111.449)" fill="none" stroke="#121947" stroke-linecap="round" stroke-linejoin="round" stroke-width="1"/>
    <path id="Path_109" data-name="Path 109" d="M253.191,141.333v17.328h-6l-.336-.4-1.149-1.384v-6.848h-2.88v-1.785a10.934,10.934,0,0,1,6.368-9.938l-.034,2.993a1.154,1.154,0,0,0,1.6,1.07l2.406-1.036-3.951-3.027Z" transform="translate(-177.35 -101.507)" fill="none" stroke="#121947" stroke-linecap="round" stroke-linejoin="round" stroke-width="1"/>
    <path id="Path_110" data-name="Path 110" d="M249.077,141.333l-2.406,1.036a1.154,1.154,0,0,1-1.6-1.07l.034-2.993h.023Z" transform="translate(-173.259 -101.507)" fill="none" stroke="#121947" stroke-linecap="round" stroke-linejoin="round" stroke-width="1"/>
    <path id="Path_111" data-name="Path 111" d="M258.01,148.539v1.785h-4.03v8.633H246.5V141.629l3.971-3.476c.014-.011.025-.011.025,0l-3.973,3.476,2.406,1.036a1.156,1.156,0,0,0,1.6-1.07l-.034-3.442A10.94,10.94,0,0,1,258.01,148.539Z" transform="translate(-170.656 -101.802)" fill="none" stroke="#121947" stroke-linecap="round" stroke-linejoin="round" stroke-width="1"/>
    <path id="Path_112" data-name="Path 112" d="M253.034,138.5l-3.971,3.476-3.973-3.027c.172-.082.347-.15.531-.232s.356-.124.539-.195l.554-.172c.37-.1.748-.184,1.141-.254.195-.034.39-.056.587-.079a9.849,9.849,0,0,1,1.2-.071c.277,0,.539.011.8.037.322.023.633.056.943.1.288.059.565.116.83.172S252.771,138.411,253.034,138.5Z" transform="translate(-173.222 -102.154)" fill="none" stroke="#121947" stroke-linecap="round" stroke-linejoin="round" stroke-width="1"/>
    <path id="Path_113" data-name="Path 113" d="M250.512,141.589a1.156,1.156,0,0,1-1.6,1.07l-2.406-1.036,3.973-3.476Z" transform="translate(-170.641 -101.797)" fill="none" stroke="#121947" stroke-linecap="round" stroke-linejoin="round" stroke-width="1"/>
    <g id="Group_107" data-name="Group 107" transform="translate(76.417 24.286)">
      <path id="Path_114" data-name="Path 114" d="M247.565,133.875a.864.864,0,1,0,.861.864.862.862,0,0,0-.861-.864Z" transform="translate(-246.701 -133.875)" fill="#121947"/>
    </g>
    <g id="Group_108" data-name="Group 108" transform="translate(71.811 24.286)">
      <path id="Path_115" data-name="Path 115" d="M245.934,133.875a.864.864,0,1,0,.861.864.864.864,0,0,0-.861-.864Z" transform="translate(-245.07 -133.875)" fill="#121947"/>
    </g>
    <path id="Path_116" data-name="Path 116" d="M249.138,135.729a3.116,3.116,0,0,1-3.457,0" transform="translate(-172.144 -106.207)" fill="none" stroke="#121947" stroke-linecap="round" stroke-linejoin="round" stroke-width="1"/>
    <path id="Path_117" data-name="Path 117" d="M259.018,138.1v2.3a4.937,4.937,0,0,1-.576-.195,5.888,5.888,0,0,1-3.454-3.259c-2.993,2.013-6.862,1.773-10.166,1.276-.265-.045-.52-.079-.771-.124a7.484,7.484,0,1,1,14.967,0Z" transform="translate(-175.117 -115.54)" fill="none" stroke="#121947" stroke-linecap="round" stroke-linejoin="round" stroke-width="1"/>
    <path id="Path_118" data-name="Path 118" d="M249.029,132.448a3.7,3.7,0,0,1-1.149,1.152" transform="translate(-168.133 -112.191)" fill="none" stroke="#121947" stroke-linecap="round" stroke-linejoin="round" stroke-width="1"/>
    <path id="Path_119" data-name="Path 119" d="M253.177,142.457V154.2a2.015,2.015,0,1,1-4.03,0V142.457Z" transform="translate(-165.822 -93.935)" fill="none" stroke="#121947" stroke-linecap="round" stroke-linejoin="round" stroke-width="1"/>
    <line id="Line_17" data-name="Line 17" y1="3.454" transform="translate(83.325 45.066)" fill="none" stroke="#121947" stroke-linecap="round" stroke-linejoin="round" stroke-width="1"/>
    <line id="Line_18" data-name="Line 18" y1="3.454" transform="translate(68.357 45.066)" fill="none" stroke="#121947" stroke-linecap="round" stroke-linejoin="round" stroke-width="1"/>
    <path id="Path_120" data-name="Path 120" d="M253.034,138.5l-3.971,3.476-3.973-3.027c.172-.082.347-.15.531-.232s.356-.124.539-.195l.554-.172c.37-.1.748-.184,1.141-.254.195-.034.39-.056.587-.079a9.849,9.849,0,0,1,1.2-.071c.277,0,.539.011.8.037.322.023.633.056.943.1.288.059.565.116.83.172S252.771,138.411,253.034,138.5Z" transform="translate(-173.222 -102.154)" fill="none" stroke="#121947" stroke-linecap="round" stroke-linejoin="round" stroke-width="1"/>
    <path id="Path_121" data-name="Path 121" d="M250.512,141.589a1.156,1.156,0,0,1-1.6,1.07l-2.406-1.036,3.973-3.476Z" transform="translate(-170.641 -101.797)" fill="none" stroke="#121947" stroke-linecap="round" stroke-linejoin="round" stroke-width="1"/>
    <path id="Path_122" data-name="Path 122" d="M249.077,141.333l-2.406,1.036a1.154,1.154,0,0,1-1.6-1.07l.034-2.993h.023Z" transform="translate(-173.259 -101.507)" fill="none" stroke="#121947" stroke-linecap="round" stroke-linejoin="round" stroke-width="1"/>
    <path id="Path_123" data-name="Path 123" d="M234.979,136.351v2.773a6.93,6.93,0,0,1-6.93,6.933,6.741,6.741,0,0,1-2.522-.486,6.894,6.894,0,0,1-4.052-4.374l-.034-.079a3.911,3.911,0,0,1,2.152-5.309,3.389,3.389,0,0,1,.991-.15,14.921,14.921,0,0,0,8.311-2.776,1.866,1.866,0,0,1,1.463.6A6.816,6.816,0,0,1,234.979,136.351Z" transform="translate(-216.962 -111.398)" fill="none" stroke="#121947" stroke-linecap="round" stroke-linejoin="round" stroke-width="1"/>
    <path id="Path_124" data-name="Path 124" d="M223.446,136.051a2.6,2.6,0,0,0,3.058.288,3.451,3.451,0,0,0,.407-.288" transform="translate(-212.701 -105.62)" fill="none" stroke="#121947" stroke-linecap="round" stroke-linejoin="round" stroke-width="1"/>
    <path id="Path_125" data-name="Path 125" d="M222.83,134.889a.98.98,0,0,1,1.384,0" transform="translate(-213.824 -108.261)" fill="none" stroke="#121947" stroke-linecap="round" stroke-linejoin="round" stroke-width="1"/>
    <path id="Path_126" data-name="Path 126" d="M224.792,134.889a.984.984,0,0,1,1.387,0" transform="translate(-210.246 -108.261)" fill="none" stroke="#121947" stroke-linecap="round" stroke-linejoin="round" stroke-width="1"/>
    <path id="Path_127" data-name="Path 127" d="M239.5,137.851a1.85,1.85,0,0,1-1.855,1.83,3.215,3.215,0,0,0-.61-2.177,1.866,1.866,0,0,0-1.463-.6,14.921,14.921,0,0,1-8.311,2.776,3.389,3.389,0,0,0-.991.15,3.911,3.911,0,0,0-2.152,5.309l.034.079a6.894,6.894,0,0,0,4.052,4.374.075.075,0,0,1,.045.025,3.953,3.953,0,0,1-2.1.46,6.522,6.522,0,0,1-6.515-6.7v-1.994a10.6,10.6,0,0,1,10.5-10.706c4.513.045,8.277,2.672,9.3,6.724A1.886,1.886,0,0,1,239.5,137.851Z" transform="translate(-219.641 -115.42)" fill="none" stroke="#121947" stroke-linecap="round" stroke-linejoin="round" stroke-width="1"/>
    <path id="Path_128" data-name="Path 128" d="M225.291,140.2a6.894,6.894,0,0,1-4.052-4.374A9.992,9.992,0,0,0,225.291,140.2Z" transform="translate(-216.726 -106.028)" fill="none" stroke="#121947" stroke-linecap="round" stroke-linejoin="round" stroke-width="1"/>
    <path id="Path_129" data-name="Path 129" d="M228.9,143.476v1.036l-2.015,2.418-.864,1.036v-4.49Z" transform="translate(-207.996 -92.077)" fill="none" stroke="#121947" stroke-linecap="round" stroke-linejoin="round" stroke-width="1"/>
    <path id="Path_130" data-name="Path 130" d="M224.144,143.476v10.559a1.979,1.979,0,0,1-1.946,2.084,2.084,2.084,0,0,1-2.084-2.084V143.476Z" transform="translate(-218.778 -92.076)" fill="none" stroke="#121947" stroke-linecap="round" stroke-linejoin="round" stroke-width="1"/>
    <path id="Path_131" data-name="Path 131" d="M230.475,145.085v12.663h-6.331v-5.755h-4.03V147.3a9.72,9.72,0,0,1,5.134-8.5l-.8,3.132a.572.572,0,0,0,.839.647c1.186-.714,2.454-1.059,3.6.666l.161.681A1.506,1.506,0,0,0,230.475,145.085Z" transform="translate(-218.778 -100.593)" fill="none" stroke="#121947" stroke-linecap="round" stroke-linejoin="round" stroke-width="1"/>
    <line id="Line_19" data-name="Line 19" y1="4.001" transform="translate(5.364 47.402)" fill="none" stroke="#121947" stroke-linecap="round" stroke-linejoin="round" stroke-width="1"/>
    <line id="Line_20" data-name="Line 20" y1="4.001" transform="translate(18.03 47.402)" fill="none" stroke="#121947" stroke-linecap="round" stroke-linejoin="round" stroke-width="1"/>
    <path id="Path_132" data-name="Path 132" d="M246.926,133.624v-.011a6.082,6.082,0,0,0-.633-.243,4.014,4.014,0,0,0-.531-.172c-.184-.057-.367-.116-.551-.161s-.37-.079-.553-.116a3.028,3.028,0,0,0-.333-.056,7.262,7.262,0,0,0-1.036-.127c-.138-.011-.265-.023-.4-.023a7.079,7.079,0,0,0-1.13,0c-.138,0-.263.011-.4.023a7.164,7.164,0,0,0-1.036.127,2.818,2.818,0,0,0-.333.056c-.186.037-.37.071-.553.116s-.37.1-.553.161a4.1,4.1,0,0,0-.528.172,6.133,6.133,0,0,0-.635.243v.011a11.2,11.2,0,0,0-6.735,10.559v.689a6.234,6.234,0,0,0,5.459,6.185,4.458,4.458,0,0,0,.782.056h10.2a6.147,6.147,0,0,0,.8-.056,6.242,6.242,0,0,0,5.445-6.185v-.689A11.2,11.2,0,0,0,246.926,133.624ZM243.9,151.056a1.8,1.8,0,0,1-.782-.359,1.992,1.992,0,0,1-.8-1.6,2,2,0,0,1-.794,1.6,1.811,1.811,0,0,1-.782.359H238.29v-3.973h2.016a2.01,2.01,0,0,1,2.014,2.016,2.01,2.01,0,0,1,2.016-2.016h2.013v3.973Z" transform="translate(-198.961 -111.746)" fill="none" stroke="#121947" stroke-linecap="round" stroke-linejoin="round" stroke-width="1"/>
    <path id="Path_133" data-name="Path 133" d="M246.863,134.485h-.014a6.9,6.9,0,0,1-6.574,4.846,6.756,6.756,0,0,1-4.109-1.37,6.982,6.982,0,0,1-2.465-3.476,1.844,1.844,0,0,1-1.093-3.248h.011a1.023,1.023,0,0,1,.553-.195.483.483,0,0,1,.184-.023v-.059c1.13-.472,2.9-1.531,2.9-3.488,2.881,2.8,7.738,2.511,10.918,1.565a5.193,5.193,0,0,1,.034.6v1.384C249.187,131.02,249.048,134.485,246.863,134.485Z" transform="translate(-197.18 -121.266)" fill="none" stroke="#121947" stroke-linecap="round" stroke-linejoin="round" stroke-width="1"/>
    <g id="Group_109" data-name="Group 109" transform="translate(44.481 9.059)">
      <path id="Path_134" data-name="Path 134" d="M236.259,128.483a.867.867,0,1,0,.864.867.869.869,0,0,0-.864-.867Z" transform="translate(-235.392 -128.483)" fill="#121947"/>
    </g>
    <g id="Group_110" data-name="Group 110" transform="translate(39.979 9.059)">
      <path id="Path_135" data-name="Path 135" d="M234.662,128.483a.867.867,0,1,0,.867.867.867.867,0,0,0-.867-.867Z" transform="translate(-233.798 -128.483)" fill="#121947"/>
    </g>
    <path id="Path_136" data-name="Path 136" d="M234.289,130.223a3.12,3.12,0,0,0,3.465,0" transform="translate(-192.923 -116.25)" fill="none" stroke="#121947" stroke-linecap="round" stroke-linejoin="round" stroke-width="1"/>
    <path id="Path_137" data-name="Path 137" d="M233.364,133.39v3.132a1.153,1.153,0,0,0,1.474,1.107l3.132-1.248-2.886-3.567A11.6,11.6,0,0,0,233.364,133.39Z" transform="translate(-194.61 -111.524)" fill="none" stroke="#121947" stroke-linecap="round" stroke-linejoin="round" stroke-width="1"/>
    <path id="Path_138" data-name="Path 138" d="M237.884,132.814,235,136.381l3.132,1.248a1.152,1.152,0,0,0,1.474-1.107V133.39A11.565,11.565,0,0,0,237.884,132.814Z" transform="translate(-191.635 -111.524)" fill="none" stroke="#121947" stroke-linecap="round" stroke-linejoin="round" stroke-width="1"/>
    <path id="Path_139" data-name="Path 139" d="M236.3,140.1l-.288.359-.048.056h-.921l-.045-.056-.288-.359a2,2,0,0,0,.794-1.6A1.993,1.993,0,0,0,236.3,140.1Z" transform="translate(-192.148 -101.149)" fill="none" stroke="#121947" stroke-linecap="round" stroke-linejoin="round" stroke-width="1"/>
    <path id="Path_140" data-name="Path 140" d="M236.682,146.571a2.01,2.01,0,0,0-2.014-2.016h-.6l2.612-10.477,2.626,10.477h-.61A2.01,2.01,0,0,0,236.682,146.571Z" transform="translate(-193.323 -109.218)" fill="none" stroke="#121947" stroke-linecap="round" stroke-linejoin="round" stroke-width="1"/>
    <path id="Path_141" data-name="Path 141" d="M232.345,135.539V139.7a2.175,2.175,0,0,0,2.07,2.194H235.8" transform="translate(-196.469 -106.553)" fill="none" stroke="#121947" stroke-linecap="round" stroke-linejoin="round" stroke-width="1"/>
    <path id="Path_142" data-name="Path 142" d="M239.876,135.538v4.154a2.184,2.184,0,0,1-2.084,2.2h-1.37" transform="translate(-189.033 -106.555)" fill="none" stroke="#121947" stroke-linecap="round" stroke-linejoin="round" stroke-width="1"/>
    <path id="Path_143" data-name="Path 143" d="M247.373,132.886c-.161.059-.333.1-.517.161-3.18.946-8.037,1.234-10.918-1.564,0,1.957-1.771,3.016-2.9,3.488a1.622,1.622,0,0,1-.184.082,1.024,1.024,0,0,0-.554.195h-.011c-.1.034-.161.048-.161.048v-2.409a7.622,7.622,0,0,1,15.244,0Z" transform="translate(-196.863 -125.275)" fill="none" stroke="#121947" stroke-linecap="round" stroke-linejoin="round" stroke-width="1"/>
    <path id="Path_144" data-name="Path 144" d="M232.743,128.737c-.232.093-.426.15-.553.195" transform="translate(-196.752 -118.96)" fill="none" stroke="#121947" stroke-linecap="round" stroke-linejoin="round" stroke-width="1"/>
    <path id="Path_145" data-name="Path 145" d="M232.743,128.737c-.232.093-.426.15-.553.195" transform="translate(-196.752 -118.96)" fill="none" stroke="#121947" stroke-linecap="round" stroke-linejoin="round" stroke-width="1"/>
    <path id="Path_146" data-name="Path 146" d="M233.92,127.942c-.35-.342-.4-.285-.686-.723" transform="translate(-194.847 -121.729)" fill="none" stroke="#121947" stroke-linecap="round" stroke-linejoin="round" stroke-width="1"/>
    <path id="Path_147" data-name="Path 147" d="M236.859,136.6l2.889-3.567a12.273,12.273,0,0,0-5.775,0Z" transform="translate(-193.5 -111.746)" fill="none" stroke="#121947" stroke-linecap="round" stroke-linejoin="round" stroke-width="1"/>
    <path id="Path_148" data-name="Path 148" d="M237.6,139.8a2,2,0,0,1-.794,1.6,1.811,1.811,0,0,1-.782.359h-2.454v-3.973h2.016A2.01,2.01,0,0,1,237.6,139.8Z" transform="translate(-194.238 -102.451)" fill="none" stroke="#121947" stroke-linecap="round" stroke-linejoin="round" stroke-width="1"/>
    <path id="Path_149" data-name="Path 149" d="M236.022,139.2a1.412,1.412,0,0,1-.438.056h-2.016V139.2Z" transform="translate(-194.238 -99.885)" fill="none" stroke="#121947" stroke-linecap="round" stroke-linejoin="round" stroke-width="1"/>
    <path id="Path_150" data-name="Path 150" d="M239.025,137.788v3.973h-2.451a1.8,1.8,0,0,1-.782-.359,2.012,2.012,0,0,1,1.22-3.615Z" transform="translate(-191.635 -102.451)" fill="none" stroke="#121947" stroke-linecap="round" stroke-linejoin="round" stroke-width="1"/>
    <path id="Path_151" data-name="Path 151" d="M238.005,139.2v.056h-2.013a1.413,1.413,0,0,1-.438-.056Z" transform="translate(-190.616 -99.885)" fill="none" stroke="#121947" stroke-linecap="round" stroke-linejoin="round" stroke-width="1"/>
    <path id="Path_152" data-name="Path 152" d="M244.691,139.2a6.151,6.151,0,0,1-.8.056h-10.2a4.459,4.459,0,0,1-.782-.056Z" transform="translate(-195.435 -99.885)" fill="none" stroke="#121947" stroke-linecap="round" stroke-linejoin="round" stroke-width="1"/>
    <path id="Path_153" data-name="Path 153" d="M241.78,147.988H234.42a1.151,1.151,0,0,1-1.127-1.4l1.2-5.182a1.156,1.156,0,0,1,1.127-.9h4.561a1.159,1.159,0,0,1,1.1.819l1.59,5.179A1.146,1.146,0,0,1,241.78,147.988Z" transform="translate(-194.791 -97.497)" fill="none" stroke="#9e181a" stroke-linecap="round" stroke-linejoin="round" stroke-width="1"/>
    <path id="Path_154" data-name="Path 154" d="M275.931,154.865l-12.369-14.843a2.325,2.325,0,0,0-1.773-.827h-4.535a6.15,6.15,0,0,1-.8.056h-10.2a4.459,4.459,0,0,1-.782-.056h-4.549a2.329,2.329,0,0,0-1.773.827l-10.246,12.3-2.016,2.417-.864,1.036m28.96-5.4h-7.359a1.151,1.151,0,0,1-1.127-1.4l1.2-5.182a1.156,1.156,0,0,1,1.127-.9h4.561a1.159,1.159,0,0,1,1.1.819l1.59,5.179A1.146,1.146,0,0,1,254.985,150.375Z" transform="translate(-207.997 -99.885)" fill="none" stroke="#9e181a" stroke-linecap="round" stroke-linejoin="round" stroke-width="1"/>
    <path id="Path_155" data-name="Path 155" d="M228.995,138.947l-.15.506-1.5,5.089-.184.621a1.491,1.491,0,0,1-1.429,1.073H225.7a1.506,1.506,0,0,1-1.429-1.152l-.161-.681-1.254-5.377-.127-.528a9.739,9.739,0,0,1,2.488-.322A9.589,9.589,0,0,1,228.995,138.947Z" transform="translate(-214.005 -101.744)" fill="none" stroke="#121947" stroke-linecap="round" stroke-linejoin="round" stroke-width="1"/>
    <path id="Path_156" data-name="Path 156" d="M226.1,144.195c-1.149-1.725-2.417-1.381-3.6-.666a.572.572,0,0,1-.839-.647l.8-3.132.172-.655a9.567,9.567,0,0,1,2.084-.8l.127.528Z" transform="translate(-215.994 -101.536)" fill="none" stroke="#121947" stroke-linecap="round" stroke-linejoin="round" stroke-width="1"/>
    <path id="Path_157" data-name="Path 157" d="M228.915,142.592a.576.576,0,0,1-.842.647c-1.22-.737-2.533-1.082-3.708.8l1.5-5.089.15-.505a9.95,9.95,0,0,1,2.211,1.3c0,.025.068.325.161.7l.011.011C228.591,141.315,228.915,142.592,228.915,142.592Z" transform="translate(-211.023 -101.246)" fill="none" stroke="#121947" stroke-linecap="round" stroke-linejoin="round" stroke-width="1"/>
    <path id="Path_158" data-name="Path 158" d="M232.995,146.657v4.688h-2.88v4.49l-1.059,1.265h-5.272V144.437h.034a1.491,1.491,0,0,0,1.429-1.073l.184-.621c1.175-1.886,2.488-1.542,3.708-.8a.576.576,0,0,0,.842-.647s-.325-1.276-.52-2.129A9.678,9.678,0,0,1,232.995,146.657Z" transform="translate(-212.086 -99.945)" fill="none" stroke="#121947" stroke-linecap="round" stroke-linejoin="round" stroke-width="1"/>
    <line id="Line_21" data-name="Line 21" x2="52.872" transform="translate(16.97 57.156)" fill="none" stroke="#9e181a" stroke-linecap="round" stroke-linejoin="round" stroke-width="1"/>
  </g>
</svg>
