<svg xmlns="http://www.w3.org/2000/svg" width="88.376" height="65.053" viewBox="0 0 88.376 65.053">
  <g id="Group_3421" data-name="Group 3421" transform="translate(5548.609 -7840.09)">
    <g id="Group_183" data-name="Group 183">
      <path id="Path_108" data-name="Path 108" d="M-5463.623,7867.188a1.433,1.433,0,0,1-1.3,1.415,6.907,6.907,0,0,1-8.174,5.348,6.907,6.907,0,0,1-5.494-6.763v-2.3a6.7,6.7,0,0,1,.2-1.6c3.3.5,7.173.737,10.166-1.277a5.888,5.888,0,0,0,3.454,3.259v.539A1.42,1.42,0,0,1-5463.623,7867.188Z" fill="none" stroke="#121947" stroke-linecap="round" stroke-linejoin="round" stroke-width="1"/>
      <g id="Group_107" data-name="Group 107">
        <path id="Path_114" data-name="Path 114" d="M-5470.819,7864.886a.864.864,0,0,0-.867.861.864.864,0,0,0,.861.867.864.864,0,0,0,.867-.861v0a.862.862,0,0,0-.86-.864Z" fill="#121947"/>
      </g>
      <g id="Group_108" data-name="Group 108">
        <path id="Path_115" data-name="Path 115" d="M-5475.425,7864.886a.864.864,0,0,0-.867.861.864.864,0,0,0,.861.867.864.864,0,0,0,.867-.861v0A.864.864,0,0,0-5475.425,7864.886Z" fill="#121947"/>
      </g>
      <path id="Path_116" data-name="Path 116" d="M-5471.106,7870.122a3.116,3.116,0,0,1-3.457,0" fill="none" stroke="#121947" stroke-linecap="round" stroke-linejoin="round" stroke-width="1"/>
      <path id="Path_117" data-name="Path 117" d="M-5464.2,7863.16v2.3a4.9,4.9,0,0,1-.576-.195,5.889,5.889,0,0,1-3.454-3.259c-2.993,2.013-6.862,1.773-10.166,1.276-.265-.045-.52-.079-.771-.124a7.485,7.485,0,0,1,7.4-7.57,7.486,7.486,0,0,1,7.57,7.4c0,.057,0,.115,0,.172Z" fill="none" stroke="#121947" stroke-linecap="round" stroke-linejoin="round" stroke-width="1"/>
      <path id="Path_118" data-name="Path 118" d="M-5467.2,7860.857a3.706,3.706,0,0,1-1.149,1.152" fill="none" stroke="#121947" stroke-linecap="round" stroke-linejoin="round" stroke-width="1"/>
      <path id="Path_123" data-name="Path 123" d="M-5530.083,7865.553v2.773a6.93,6.93,0,0,1-6.927,6.933h0a6.744,6.744,0,0,1-2.522-.486,6.893,6.893,0,0,1-4.052-4.374l-.034-.079a3.91,3.91,0,0,1,1.89-5.2c.086-.04.173-.077.262-.111a3.4,3.4,0,0,1,.991-.15,14.924,14.924,0,0,0,8.311-2.776,1.866,1.866,0,0,1,1.463.6A6.808,6.808,0,0,1-5530.083,7865.553Z" fill="none" stroke="#121947" stroke-linecap="round" stroke-linejoin="round" stroke-width="1"/>
      <path id="Path_124" data-name="Path 124" d="M-5537.355,7871.031a2.6,2.6,0,0,0,3.058.288,3.4,3.4,0,0,0,.407-.288" fill="none" stroke="#121947" stroke-linecap="round" stroke-linejoin="round" stroke-width="1"/>
      <path id="Path_125" data-name="Path 125" d="M-5539.094,7867.228a.981.981,0,0,1,1.384,0" fill="none" stroke="#121947" stroke-linecap="round" stroke-linejoin="round" stroke-width="1"/>
      <path id="Path_126" data-name="Path 126" d="M-5533.554,7867.228a.985.985,0,0,1,1.387,0" fill="none" stroke="#121947" stroke-linecap="round" stroke-linejoin="round" stroke-width="1"/>
      <path id="Path_127" data-name="Path 127" d="M-5539.492,7874.8a3.95,3.95,0,0,1-2.1.46,6.522,6.522,0,0,1-6.517-6.527c0-.057,0-.115,0-.173v-1.994a10.6,10.6,0,0,1,10.493-10.706h.007c4.513.045,8.277,2.672,9.3,6.724a1.9,1.9,0,0,1,.066.45,1.85,1.85,0,0,1-1.855,1.83" fill="none" stroke="#121947" stroke-linecap="round" stroke-linejoin="round" stroke-width="1"/>
      <path id="Path_2565" data-name="Path 2565" d="M-5543.59,7870.4a6.848,6.848,0,0,0,1.53,2.64,6.18,6.18,0,0,0,1.16,1,6.832,6.832,0,0,0,1.36.73" fill="none" stroke="#121947" stroke-linecap="round" stroke-linejoin="round" stroke-width="1"/>
      <path id="Path_132" data-name="Path 132" d="M-5500.135,7862.478v-.011a6.021,6.021,0,0,0-.633-.243,3.982,3.982,0,0,0-.531-.172c-.184-.057-.367-.116-.551-.161s-.37-.079-.553-.116a2.871,2.871,0,0,0-.333-.056,7.184,7.184,0,0,0-1.036-.127c-.138-.011-.265-.023-.4-.023a7.155,7.155,0,0,0-1.13,0c-.138,0-.263.011-.4.023a7.178,7.178,0,0,0-1.036.127,2.837,2.837,0,0,0-.333.056c-.186.037-.37.071-.553.116s-.37.1-.553.161a4.07,4.07,0,0,0-.528.172,6.045,6.045,0,0,0-.635.243v.011a11.2,11.2,0,0,0-6.735,10.559v.689a6.234,6.234,0,0,0,5.459,6.185,4.419,4.419,0,0,0,.782.056h10.2a6.172,6.172,0,0,0,.8-.056,6.243,6.243,0,0,0,5.445-6.185v-.689A11.2,11.2,0,0,0-5500.135,7862.478Zm-3.026,17.432a1.807,1.807,0,0,1-.782-.359,1.99,1.99,0,0,1-.8-1.6,2,2,0,0,1-.794,1.6,1.807,1.807,0,0,1-.782.359h-2.452v-3.973h2.016a2.01,2.01,0,0,1,2.014,2.006v.01a2.01,2.01,0,0,1,2-2.016h2.025v3.973Z" fill="none" stroke="#121947" stroke-linecap="round" stroke-linejoin="round" stroke-width="1"/>
      <path id="Path_133" data-name="Path 133" d="M-5498.106,7848.371a5.229,5.229,0,0,1,.034.6v1.384c1.979,0,1.84,3.464-.345,3.464h-.014a6.9,6.9,0,0,1-6.574,4.846,6.755,6.755,0,0,1-4.109-1.37,6.981,6.981,0,0,1-2.465-3.476,1.843,1.843,0,0,1-1.742-1.941,1.842,1.842,0,0,1,.649-1.307" fill="none" stroke="#121947" stroke-linecap="round" stroke-linejoin="round" stroke-width="1"/>
      <g id="Group_109" data-name="Group 109">
        <path id="Path_134" data-name="Path 134" d="M-5502.752,7849.659a.867.867,0,0,0-.87.864.867.867,0,0,0,.864.87.867.867,0,0,0,.87-.864v0A.869.869,0,0,0-5502.752,7849.659Z" fill="#121947"/>
      </g>
      <g id="Group_110" data-name="Group 110">
        <path id="Path_135" data-name="Path 135" d="M-5507.257,7849.659a.867.867,0,0,0-.867.867.867.867,0,0,0,.867.867.867.867,0,0,0,.867-.867.866.866,0,0,0-.867-.867Z" fill="#121947"/>
      </g>
      <path id="Path_136" data-name="Path 136" d="M-5506.734,7854.573a3.122,3.122,0,0,0,3.465,0" fill="none" stroke="#121947" stroke-linecap="round" stroke-linejoin="round" stroke-width="1"/>
      <path id="Path_137" data-name="Path 137" d="M-5509.346,7862.466v3.132a1.154,1.154,0,0,0,1.153,1.153,1.166,1.166,0,0,0,.321-.046l3.132-1.248-2.886-3.567" fill="none" stroke="#121947" stroke-linecap="round" stroke-linejoin="round" stroke-width="1"/>
      <path id="Path_138" data-name="Path 138" d="M-5501.851,7861.89l-2.884,3.567,3.132,1.248a1.152,1.152,0,0,0,1.428-.784,1.148,1.148,0,0,0,.046-.323v-3.132" fill="none" stroke="#121947" stroke-linecap="round" stroke-linejoin="round" stroke-width="1"/>
      <path id="Path_140" data-name="Path 140" d="M-5507.339,7875.871l2.6-10.411,2.609,10.411" fill="none" stroke="#121947" stroke-linecap="round" stroke-linejoin="round" stroke-width="1"/>
      <path id="Path_141" data-name="Path 141" d="M-5512.224,7869.586v4.161a2.175,2.175,0,0,0,2.07,2.194h1.385" fill="none" stroke="#121947" stroke-linecap="round" stroke-linejoin="round" stroke-width="1"/>
      <path id="Path_142" data-name="Path 142" d="M-5497.257,7869.583v4.154a2.185,2.185,0,0,1-2.084,2.2h-1.37" fill="none" stroke="#121947" stroke-linecap="round" stroke-linejoin="round" stroke-width="1"/>
      <path id="Path_143" data-name="Path 143" d="M-5512.663,7850.573h-.011c-.1.034-.161.048-.161.048v-2.409a7.622,7.622,0,0,1,7.622-7.622,7.622,7.622,0,0,1,7.622,7.622h0c-.161.059-.333.1-.517.161-3.18.946-8.037,1.234-10.918-1.564,0,1.957-1.771,3.016-2.9,3.488a1.719,1.719,0,0,1-.184.082" fill="none" stroke="#121947" stroke-linecap="round" stroke-linejoin="round" stroke-width="1"/>
      <path id="Path_144" data-name="Path 144" d="M-5512.109,7850.377c-.232.093-.426.15-.553.195" fill="none" stroke="#121947" stroke-linecap="round" stroke-linejoin="round" stroke-width="1"/>
      <path id="Path_145" data-name="Path 145" d="M-5512.109,7850.377c-.232.093-.426.15-.553.195" fill="none" stroke="#121947" stroke-linecap="round" stroke-linejoin="round" stroke-width="1"/>
      <path id="Path_146" data-name="Path 146" d="M-5509.027,7846.813c-.35-.342-.4-.285-.686-.723" fill="none" stroke="#121947" stroke-linecap="round" stroke-linejoin="round" stroke-width="1"/>
      <path id="Path_149" data-name="Path 149" d="M-5506.316,7879.915a1.443,1.443,0,0,1-.438.056h-2.016v-.056Z" fill="none" stroke="#121947" stroke-linecap="round" stroke-linejoin="round" stroke-width="1"/>
      <path id="Path_151" data-name="Path 151" d="M-5500.711,7879.915v.056h-2.013a1.443,1.443,0,0,1-.438-.056Z" fill="none" stroke="#121947" stroke-linecap="round" stroke-linejoin="round" stroke-width="1"/>
      <path id="Path_152" data-name="Path 152" d="M-5498.844,7879.915a6.075,6.075,0,0,1-.8.056h-10.2a4.461,4.461,0,0,1-.782-.056Z" fill="none" stroke="#121947" stroke-linecap="round" stroke-linejoin="round" stroke-width="1"/>
      <path id="Path_153" data-name="Path 153" d="M-5501.111,7891.091h-7.36a1.15,1.15,0,0,1-1.154-1.148,1.122,1.122,0,0,1,.027-.252l1.2-5.182a1.156,1.156,0,0,1,1.127-.9h4.561a1.158,1.158,0,0,1,1.1.819l1.59,5.179a1.146,1.146,0,0,1-.757,1.433A1.14,1.14,0,0,1-5501.111,7891.091Z" fill="none" stroke="#9e181a" stroke-linecap="round" stroke-linejoin="round" stroke-width="1"/>
      <path id="Path_154" data-name="Path 154" d="M-5501.113,7891.09h-7.359a1.15,1.15,0,0,1-1.154-1.148,1.181,1.181,0,0,1,.027-.252l1.2-5.182a1.156,1.156,0,0,1,1.127-.9h4.561a1.158,1.158,0,0,1,1.1.819l1.59,5.179a1.146,1.146,0,0,1-.757,1.433,1.159,1.159,0,0,1-.334.051Z" fill="none" stroke="#9e181a" stroke-linecap="round" stroke-linejoin="round" stroke-width="1"/>
      <g id="Group_3417" data-name="Group 3417">
        <path id="Path_130" data-name="Path 130" d="M-5542.734,7892v10.559a1.98,1.98,0,0,1-1.871,2.081l-.075,0a2.084,2.084,0,0,1-2.084-2.084V7892Z" fill="none" stroke="#121947" stroke-linecap="round" stroke-linejoin="round" stroke-width="1"/>
        <path id="Path_131" data-name="Path 131" d="M-5536.4,7885.092v12.663h-6.331V7892h-4.03v-4.693a9.719,9.719,0,0,1,5.134-8.5l-.8,3.132a.572.572,0,0,0,.4.7.573.573,0,0,0,.44-.057c1.186-.714,2.454-1.059,3.6.666l.161.681A1.506,1.506,0,0,0-5536.4,7885.092Z" fill="none" stroke="#121947" stroke-linecap="round" stroke-linejoin="round" stroke-width="1"/>
        <line id="Line_19" data-name="Line 19" y1="4.001" transform="translate(-5542.736 7888.002)" fill="none" stroke="#121947" stroke-linecap="round" stroke-linejoin="round" stroke-width="1"/>
        <path id="Path_155" data-name="Path 155" d="M-5539.376,7877.354a9.766,9.766,0,0,1,2.488-.322c.16,0,.32,0,.48.011" fill="none" stroke="#121947" stroke-linecap="round" stroke-linejoin="round" stroke-width="1"/>
        <path id="Path_156" data-name="Path 156" d="M-5541.633,7878.814l.172-.655a9.534,9.534,0,0,1,2.084-.8v0l.127.528,1.254,5.377" fill="none" stroke="#121947" stroke-linecap="round" stroke-linejoin="round" stroke-width="1"/>
      </g>
      <g id="Group_3418" data-name="Group 3418">
        <path id="Path_131-2" data-name="Path 131" d="M-5531.13,7897.755h-5.273v-12.663a1.506,1.506,0,0,0,1.427-1.159l.161-.681c1.146-1.725,2.414-1.38,3.6-.666a.573.573,0,0,0,.44.057.572.572,0,0,0,.4-.7l-.8-3.132a9.719,9.719,0,0,1,5.134,8.5v4.369" fill="none" stroke="#121947" stroke-linecap="round" stroke-linejoin="round" stroke-width="1"/>
        <path id="Path_131-3" data-name="Path 131" d="M-5526.315,7892h-3.757v4.494" fill="none" stroke="#121947" stroke-linecap="round" stroke-linejoin="round" stroke-width="1"/>
        <line id="Line_19-2" data-name="Line 19" y2="4.001" transform="translate(-5530.07 7888.002)" fill="none" stroke="#121947" stroke-linecap="round" stroke-linejoin="round" stroke-width="1"/>
        <path id="Path_155-2" data-name="Path 155" d="M-5536.4,7877.043c.16-.007.32-.011.48-.011a9.766,9.766,0,0,1,2.488.322" fill="none" stroke="#121947" stroke-linecap="round" stroke-linejoin="round" stroke-width="1"/>
        <path id="Path_156-2" data-name="Path 156" d="M-5534.811,7883.259l1.254-5.377.127-.528v0a9.525,9.525,0,0,1,2.084.8l.172.655" fill="none" stroke="#121947" stroke-linecap="round" stroke-linejoin="round" stroke-width="1"/>
      </g>
      <g id="Group_3419" data-name="Group 3419">
        <path id="Path_111" data-name="Path 111" d="M-5468.248,7876.955a10.938,10.938,0,0,1,7.515,10.386v1.785h-4.03v8.633h-7.48v-17.328" fill="none" stroke="#121947" stroke-linecap="round" stroke-linejoin="round" stroke-width="1"/>
        <path id="Path_112" data-name="Path 112" d="M-5472.242,7876.407c.187-.01.375-.015.562-.015a7.9,7.9,0,0,1,.8.037c.322.023.633.056.943.1q.432.089.83.172a7.494,7.494,0,0,1,.819.245" fill="none" stroke="#121947" stroke-linecap="round" stroke-linejoin="round" stroke-width="1"/>
        <path id="Path_119" data-name="Path 119" d="M-5460.745,7889.122v11.743a2.014,2.014,0,0,1-2.013,2.017,2.015,2.015,0,0,1-2.017-2.014v-11.746Z" fill="none" stroke="#121947" stroke-linecap="round" stroke-linejoin="round" stroke-width="1"/>
        <line id="Line_17" data-name="Line 17" y1="3.454" transform="translate(-5464.775 7885.666)" fill="none" stroke="#121947" stroke-linecap="round" stroke-linejoin="round" stroke-width="1"/>
        <path id="Path_111-2" data-name="Path 111" d="M-5472.233,7880.427l2.406,1.036a1.156,1.156,0,0,0,1.511-.623,1.161,1.161,0,0,0,.089-.447l-.034-3.442Z" fill="none" stroke="#121947" stroke-linecap="round" stroke-linejoin="round" stroke-width="1"/>
      </g>
      <g id="Group_3420" data-name="Group 3420">
        <path id="Path_111-3" data-name="Path 111" d="M-5479.721,7895.854v-6.728h-4.03v-1.785a10.939,10.939,0,0,1,7.515-10.386" fill="none" stroke="#121947" stroke-linecap="round" stroke-linejoin="round" stroke-width="1"/>
        <path id="Path_111-4" data-name="Path 111" d="M-5472.241,7897.759h-6.018" fill="none" stroke="#121947" stroke-linecap="round" stroke-linejoin="round" stroke-width="1"/>
        <path id="Path_112-2" data-name="Path 112" d="M-5476.2,7876.946a7.494,7.494,0,0,1,.819-.245q.4-.084.83-.172c.31-.044.621-.077.943-.1a7.9,7.9,0,0,1,.8-.037c.188,0,.375,0,.562.015" fill="none" stroke="#121947" stroke-linecap="round" stroke-linejoin="round" stroke-width="1"/>
        <path id="Path_119-2" data-name="Path 119" d="M-5483.739,7891.244v-2.122" fill="none" stroke="#121947" stroke-linecap="round" stroke-linejoin="round" stroke-width="1"/>
        <line id="Line_17-2" data-name="Line 17" y2="3.454" transform="translate(-5479.709 7885.666)" fill="none" stroke="#121947" stroke-linecap="round" stroke-linejoin="round" stroke-width="1"/>
        <path id="Path_111-5" data-name="Path 111" d="M-5476.223,7876.951l-.034,3.442a1.161,1.161,0,0,0,.089.447,1.156,1.156,0,0,0,1.511.623l2.406-1.036Z" fill="none" stroke="#121947" stroke-linecap="round" stroke-linejoin="round" stroke-width="1"/>
      </g>
    </g>
    <path id="Path_2566" data-name="Path 2566" d="M-5479.754,7895.978l1.5,1.776h-52.871l3.937-4.7,10.246-12.258a2.33,2.33,0,0,1,1.773-.824h20.866a2.327,2.327,0,0,1,1.773.824l12.781,15.183" fill="none" stroke="#9e181a" stroke-linecap="round" stroke-linejoin="round" stroke-width="0.998"/>
  </g>
</svg>
