<svg xmlns="http://www.w3.org/2000/svg" width="61.346" height="57.034" viewBox="0 0 61.346 57.034">
  <g id="Group_180" data-name="Group 180" transform="translate(5381.6 -7689.1)">
    <path id="Path_100" data-name="Path 100" d="M-5324.2,7745.634h-53.447a3.446,3.446,0,0,1-3.448-3.444v-43.971a3.448,3.448,0,0,1,3.448-3.448h53.447a3.448,3.448,0,0,1,3.448,3.448v43.967a3.446,3.446,0,0,1-3.444,3.448Z" fill="none" stroke="#121947" stroke-linecap="round" stroke-linejoin="round" stroke-width="1"/>
    <path id="Path_102" data-name="Path 102" d="M-5320.756,7710.289H-5381.1" fill="none" stroke="#121947" stroke-linecap="round" stroke-linejoin="round" stroke-width="1"/>
    <path id="Path_103" data-name="Path 103" d="M-5368.167,7699.944a5.172,5.172,0,0,1-5.173-5.171,5.172,5.172,0,0,1,5.171-5.173,5.172,5.172,0,0,1,5.173,5.17" fill="none" stroke="#121947" stroke-linecap="round" stroke-linejoin="round" stroke-width="1"/>
    <path id="Path_104" data-name="Path 104" d="M-5350.066,7699.944a5.172,5.172,0,0,1-5.17-5.174,5.172,5.172,0,0,1,5.174-5.17,5.172,5.172,0,0,1,5.17,5.17" fill="none" stroke="#121947" stroke-linecap="round" stroke-linejoin="round" stroke-width="1"/>
    <path id="Path_105" data-name="Path 105" d="M-5331.961,7699.944a5.172,5.172,0,0,1-5.17-5.174,5.172,5.172,0,0,1,5.174-5.17,5.172,5.172,0,0,1,5.17,5.17" fill="none" stroke="#121947" stroke-linecap="round" stroke-linejoin="round" stroke-width="1"/>
    <line id="Line_6" data-name="Line 6" x2="60.346" transform="translate(-5381.1 7718.91)" fill="none" stroke="#121947" stroke-linecap="round" stroke-linejoin="round" stroke-width="1"/>
    <line id="Line_7" data-name="Line 7" x2="36.067" transform="translate(-5381.1 7727.531)" fill="none" stroke="#121947" stroke-linecap="round" stroke-linejoin="round" stroke-width="1"/>
    <line id="Line_8" data-name="Line 8" x2="36.067" transform="translate(-5381.1 7736.152)" fill="none" stroke="#121947" stroke-linecap="round" stroke-linejoin="round" stroke-width="1"/>
    <line id="Line_9" data-name="Line 9" y2="35.345" transform="translate(-5369.031 7710.289)" fill="none" stroke="#121947" stroke-linecap="round" stroke-linejoin="round" stroke-width="1"/>
    <line id="Line_10" data-name="Line 10" y2="35.345" transform="translate(-5356.962 7710.289)" fill="none" stroke="#121947" stroke-linecap="round" stroke-linejoin="round" stroke-width="1"/>
    <line id="Line_11" data-name="Line 11" y2="11.699" transform="translate(-5344.893 7710.289)" fill="none" stroke="#121947" stroke-linecap="round" stroke-linejoin="round" stroke-width="1"/>
    <line id="Line_12" data-name="Line 12" y2="13.273" transform="translate(-5332.824 7710.289)" fill="none" stroke="#121947" stroke-linecap="round" stroke-linejoin="round" stroke-width="1"/>
    <path id="Path_106" data-name="Path 106" d="M-5320.755,7720.633c-13.792,20.691-27.585,25-27.585,25a27.865,27.865,0,0,0,2.183-22.824.715.715,0,0,1,.434-.913.713.713,0,0,1,.419-.019C-5341.325,7722.963-5329.312,7725.626-5320.755,7720.633Z" fill="none" stroke="#9e181a" stroke-linecap="round" stroke-linejoin="round" stroke-width="1"/>
    <line id="Line_13" data-name="Line 13" x2="17.242" transform="translate(-5359.548 7705.117)" fill="none" stroke="#9e181a" stroke-linecap="round" stroke-linejoin="round" stroke-width="1"/>
    <line id="Line_14" data-name="Line 14" x2="6.897" transform="translate(-5332.824 7705.117)" fill="none" stroke="#9e181a" stroke-linecap="round" stroke-linejoin="round" stroke-width="1"/>
    <line id="Line_15" data-name="Line 15" x1="6.897" transform="translate(-5375.928 7705.117)" fill="none" stroke="#9e181a" stroke-linecap="round" stroke-linejoin="round" stroke-width="1"/>
  </g>
</svg>
