<svg xmlns="http://www.w3.org/2000/svg" width="61.346" height="57.035" viewBox="0 0 61.346 57.035">
  <g id="Group_180" data-name="Group 180" transform="translate(0.5 0.5)">
    <path id="Path_100" data-name="Path 100" d="M91.241,178.24H37.794a3.446,3.446,0,0,1-3.448-3.448V130.825a3.448,3.448,0,0,1,3.448-3.448H91.241a3.448,3.448,0,0,1,3.448,3.448v43.967A3.446,3.446,0,0,1,91.241,178.24Z" transform="translate(-34.345 -122.206)" fill="none" stroke="#121947" stroke-linecap="round" stroke-linejoin="round" stroke-width="1"/>
    <path id="Path_101" data-name="Path 101" d="M73.531,136.535v21.553a3.446,3.446,0,0,1-3.448,3.448H45.946S59.738,157.226,73.531,136.535Z" transform="translate(-13.186 -105.502)" fill="none" stroke="#121947" stroke-linecap="round" stroke-linejoin="round" stroke-width="1"/>
    <path id="Path_102" data-name="Path 102" d="M94.689,142.895H34.346v-12.07a3.448,3.448,0,0,1,3.448-3.448H91.241a3.448,3.448,0,0,1,3.448,3.448Z" transform="translate(-34.345 -122.206)" fill="none" stroke="#121947" stroke-linecap="round" stroke-linejoin="round" stroke-width="1"/>
    <path id="Path_103" data-name="Path 103" d="M42.267,135.89a5.172,5.172,0,1,1,5.171-5.174" transform="translate(-29.334 -125.546)" fill="none" stroke="#121947" stroke-linecap="round" stroke-linejoin="round" stroke-width="1"/>
    <path id="Path_104" data-name="Path 104" d="M48.675,135.89a5.172,5.172,0,1,1,5.174-5.174" transform="translate(-17.641 -125.546)" fill="none" stroke="#121947" stroke-linecap="round" stroke-linejoin="round" stroke-width="1"/>
    <path id="Path_105" data-name="Path 105" d="M55.088,135.89a5.172,5.172,0,1,1,5.174-5.174" transform="translate(-5.949 -125.546)" fill="none" stroke="#121947" stroke-linecap="round" stroke-linejoin="round" stroke-width="1"/>
    <line id="Line_6" data-name="Line 6" x2="60.346" transform="translate(0 29.31)" fill="none" stroke="#121947" stroke-linecap="round" stroke-linejoin="round" stroke-width="1"/>
    <line id="Line_7" data-name="Line 7" x2="36.067" transform="translate(0 37.931)" fill="none" stroke="#121947" stroke-linecap="round" stroke-linejoin="round" stroke-width="1"/>
    <line id="Line_8" data-name="Line 8" x2="36.067" transform="translate(0 46.552)" fill="none" stroke="#121947" stroke-linecap="round" stroke-linejoin="round" stroke-width="1"/>
    <line id="Line_9" data-name="Line 9" y2="35.345" transform="translate(12.069 20.689)" fill="none" stroke="#121947" stroke-linecap="round" stroke-linejoin="round" stroke-width="1"/>
    <line id="Line_10" data-name="Line 10" y2="35.345" transform="translate(24.138 20.689)" fill="none" stroke="#121947" stroke-linecap="round" stroke-linejoin="round" stroke-width="1"/>
    <line id="Line_11" data-name="Line 11" y2="11.699" transform="translate(36.207 20.689)" fill="none" stroke="#121947" stroke-linecap="round" stroke-linejoin="round" stroke-width="1"/>
    <line id="Line_12" data-name="Line 12" y2="13.273" transform="translate(48.276 20.689)" fill="none" stroke="#121947" stroke-linecap="round" stroke-linejoin="round" stroke-width="1"/>
    <rect id="Rectangle_32" data-name="Rectangle 32" width="12.069" height="8.621" transform="translate(0 29.31)" stroke-width="1" stroke="#121947" stroke-linecap="round" stroke-linejoin="round" fill="none"/>
    <rect id="Rectangle_33" data-name="Rectangle 33" width="12.069" height="9.483" transform="translate(12.069 46.552)" stroke-width="1" stroke="#121947" stroke-linecap="round" stroke-linejoin="round" fill="none"/>
    <rect id="Rectangle_34" data-name="Rectangle 34" width="12.069" height="8.621" transform="translate(24.138 20.689)" stroke-width="1" stroke="#121947" stroke-linecap="round" stroke-linejoin="round" fill="none"/>
    <path id="Path_106" data-name="Path 106" d="M73.531,136.535c-13.792,20.691-27.585,25-27.585,25a27.865,27.865,0,0,0,2.183-22.824.715.715,0,0,1,.853-.932C52.961,138.865,64.974,141.528,73.531,136.535Z" transform="translate(-13.186 -105.502)" fill="none" stroke="#9e181a" stroke-linecap="round" stroke-linejoin="round" stroke-width="1"/>
    <line id="Line_13" data-name="Line 13" x2="17.242" transform="translate(21.552 15.517)" fill="none" stroke="#9e181a" stroke-linecap="round" stroke-linejoin="round" stroke-width="1"/>
    <line id="Line_14" data-name="Line 14" x2="6.897" transform="translate(48.276 15.517)" fill="none" stroke="#9e181a" stroke-linecap="round" stroke-linejoin="round" stroke-width="1"/>
    <line id="Line_15" data-name="Line 15" x1="6.897" transform="translate(5.172 15.517)" fill="none" stroke="#9e181a" stroke-linecap="round" stroke-linejoin="round" stroke-width="1"/>
  </g>
</svg>
