<svg xmlns="http://www.w3.org/2000/svg" width="60.836" height="70.339" viewBox="0 0 60.836 70.339" style="">
  <g id="Group_3097" data-name="Group 3097" transform="translate(-21.933 -7.627)">
    <g id="handle" transform="translate(43.498 55.121)" opacity="0">
      <path id="Path_2454" data-name="Path 2454" stroke="#9e181a" d="M49.969,69.528c-.056.438-1.235,10.984,6.281,16.392.446.321,6.572,4.581,12.706,2.154.959-.379,4.817-1.906,5.556-5.549.586-2.88-.874-6.6-3.84-7.579a5.481,5.481,0,0,0-4.716.725,6.925,6.925,0,0,0-2.631,6.8c2.308,6.769,13.9,10.254,24.816,8.345" fill="none" transform="translate(-49.87 -69.528)" stroke-linecap="round" stroke-linejoin="round" stroke-width="2" stroke-dasharray="1.973 2.96" class="upaPKusf_0"></path>
    </g>
    <g id="bulbs" transform="translate(31.974 17.668)">
      <g id="Group_3096" data-name="Group 3096">
        <path id="Path_2455" data-name="Path 2455" d="M34.775,32.093a11.623,11.623,0,1,1,20.514,7.482,10.326,10.326,0,0,0-2.433,6.654v1.361H39.941V46.23a10.3,10.3,0,0,0-2.435-6.654A11.576,11.576,0,0,1,34.775,32.093Z" transform="translate(-34.775 -20.47)" fill="none" stroke="#9e181a" stroke-linejoin="round" stroke-width="2" class="upaPKusf_1"></path>
        <path id="Path_2456" data-name="Path 2456" d="M44.125,61.161h7.749a2.584,2.584,0,0,0,2.583-2.583V55.995H41.542v2.583A2.583,2.583,0,0,0,44.125,61.161Z" transform="translate(-36.376 -28.874)" fill="none" stroke="#9e181a" stroke-linejoin="round" stroke-width="2" class="upaPKusf_2"></path>
        <path id="Path_2457" data-name="Path 2457" d="M44.925,64.053a3.874,3.874,0,0,0,7.749,0V62.762H44.925Z" transform="translate(-37.176 -30.475)" fill="none" stroke="#9e181a" stroke-linejoin="round" stroke-width="2" class="upaPKusf_3"></path>
      </g>
    </g>
    <g id="rays" transform="translate(22.933 8.627)">
      <path id="Line_166" data-name="Line 166" transform="translate(20.664)" fill="none" stroke="#9e181a" stroke-linecap="round" stroke-linejoin="round" stroke-width="2" d="M0,5.167L0,0" class="upaPKusf_4"></path>
      <path id="Line_167" data-name="Line 167" transform="translate(6.052 6.054)" fill="none" stroke="#9e181a" stroke-linecap="round" stroke-linejoin="round" stroke-width="2" d="M3.654,3.652L0,0" class="upaPKusf_5"></path>
      <path id="Line_168" data-name="Line 168" transform="translate(0 20.665)" fill="none" stroke="#9e181a" stroke-linecap="round" stroke-linejoin="round" stroke-width="2" d="M5.167,0L0,0" class="upaPKusf_6"></path>
      <path id="Line_169" data-name="Line 169" transform="translate(31.623 6.054)" fill="none" stroke="#9e181a" stroke-linecap="round" stroke-linejoin="round" stroke-width="2" d="M0,3.652L3.652,0" class="upaPKusf_7"></path>
      <path id="Line_170" data-name="Line 170" transform="translate(36.162 20.665)" fill="none" stroke="#9e181a" stroke-linecap="round" stroke-linejoin="round" stroke-width="2" d="M0,0L5.164,0" class="upaPKusf_8"></path>
    </g>
  </g>
<style data-made-with="vivus-instant">.upaPKusf_0{stroke-dasharray:90 92;stroke-dashoffset:91;animation:upaPKusf_draw_0 2400ms linear 0ms infinite,upaPKusf_fade 2400ms linear 0ms infinite;}.upaPKusf_1{stroke-dasharray:83 85;stroke-dashoffset:84;animation:upaPKusf_draw_1 2400ms linear 0ms infinite,upaPKusf_fade 2400ms linear 0ms infinite;}.upaPKusf_2{stroke-dasharray:34 36;stroke-dashoffset:35;animation:upaPKusf_draw_2 2400ms linear 0ms infinite,upaPKusf_fade 2400ms linear 0ms infinite;}.upaPKusf_3{stroke-dasharray:23 25;stroke-dashoffset:24;animation:upaPKusf_draw_3 2400ms linear 0ms infinite,upaPKusf_fade 2400ms linear 0ms infinite;}.upaPKusf_4{stroke-dasharray:6 8;stroke-dashoffset:7;animation:upaPKusf_draw_4 2400ms linear 0ms infinite,upaPKusf_fade 2400ms linear 0ms infinite;}.upaPKusf_5{stroke-dasharray:6 8;stroke-dashoffset:7;animation:upaPKusf_draw_5 2400ms linear 0ms infinite,upaPKusf_fade 2400ms linear 0ms infinite;}.upaPKusf_6{stroke-dasharray:6 8;stroke-dashoffset:7;animation:upaPKusf_draw_6 2400ms linear 0ms infinite,upaPKusf_fade 2400ms linear 0ms infinite;}.upaPKusf_7{stroke-dasharray:6 8;stroke-dashoffset:7;animation:upaPKusf_draw_7 2400ms linear 0ms infinite,upaPKusf_fade 2400ms linear 0ms infinite;}.upaPKusf_8{stroke-dasharray:6 8;stroke-dashoffset:7;animation:upaPKusf_draw_8 2400ms linear 0ms infinite,upaPKusf_fade 2400ms linear 0ms infinite;}@keyframes upaPKusf_draw{100%{stroke-dashoffset:0;}}@keyframes upaPKusf_fade{0%{stroke-opacity:1;}91.66666666666667%{stroke-opacity:1;}100%{stroke-opacity:0;}}@keyframes upaPKusf_draw_0{8.333333333333332%{stroke-dashoffset: 91}29.47645600991326%{ stroke-dashoffset: 0;}100%{ stroke-dashoffset: 0;}}@keyframes upaPKusf_draw_1{29.47645600991326%{stroke-dashoffset: 84}48.993184634448575%{ stroke-dashoffset: 0;}100%{ stroke-dashoffset: 0;}}@keyframes upaPKusf_draw_2{48.993184634448575%{stroke-dashoffset: 35}57.125154894671624%{ stroke-dashoffset: 0;}100%{ stroke-dashoffset: 0;}}@keyframes upaPKusf_draw_3{57.125154894671624%{stroke-dashoffset: 24}62.70136307311029%{ stroke-dashoffset: 0;}100%{ stroke-dashoffset: 0;}}@keyframes upaPKusf_draw_4{62.70136307311029%{stroke-dashoffset: 7}64.32775712515489%{ stroke-dashoffset: 0;}100%{ stroke-dashoffset: 0;}}@keyframes upaPKusf_draw_5{64.32775712515489%{stroke-dashoffset: 7}65.9541511771995%{ stroke-dashoffset: 0;}100%{ stroke-dashoffset: 0;}}@keyframes upaPKusf_draw_6{65.9541511771995%{stroke-dashoffset: 7}67.58054522924411%{ stroke-dashoffset: 0;}100%{ stroke-dashoffset: 0;}}@keyframes upaPKusf_draw_7{67.58054522924411%{stroke-dashoffset: 7}69.20693928128873%{ stroke-dashoffset: 0;}100%{ stroke-dashoffset: 0;}}@keyframes upaPKusf_draw_8{69.20693928128873%{stroke-dashoffset: 7}70.83333333333334%{ stroke-dashoffset: 0;}100%{ stroke-dashoffset: 0;}}</style></svg>
