<svg xmlns="http://www.w3.org/2000/svg" width="128.758" height="94.559" viewBox="0 0 128.758 94.559">
  <g id="Group_1081" data-name="Group 1081" transform="translate(1 1)">
    <path id="Path_992" data-name="Path 992" d="M56.032,134.492v.021l-.722,1.01a2.07,2.07,0,0,1-2.886.474l-.147-.1M46.089,131c1.753-1.28,3.713-2.745,5.984-4.456a.652.652,0,0,0,.2-.144c.413-.311.848-.641,1.3-.971.228-.165.455-.33.68-.515a5.49,5.49,0,0,0,.6-.33l.249-.186a2.606,2.606,0,0,0,.432-.393c1.031,1.094,2.065,2.269,3.075,3.527a4.131,4.131,0,1,0,6.437-5.178,54.618,54.618,0,0,0-12.772-11.885,37.469,37.469,0,0,0-6.188-3.279V92.874a4.138,4.138,0,0,1,4.127-4.127H61.564v4.417a2.068,2.068,0,0,0,2.062,2.062H91.481a2.07,2.07,0,0,0,2.065-2.062V88.747h11.346a4.138,4.138,0,0,1,4.127,4.127v71.185a4.125,4.125,0,0,1-4.127,4.127H50.216a4.125,4.125,0,0,1-4.127-4.127V132.964" transform="translate(17.74 -75.625)" fill="none" stroke="#121947" stroke-linecap="round" stroke-linejoin="round" stroke-width="2"/>
    <path id="Path_993" data-name="Path 993" d="M46.089,99.258V102.6l3.012-1.384A27.655,27.655,0,0,0,46.089,99.258Z" transform="translate(17.74 -58.632)" fill="none" stroke="#121947" stroke-linecap="round" stroke-linejoin="round" stroke-width="2"/>
    <line id="Line_64" data-name="Line 64" x2="17.538" transform="translate(86.525 15.475)" fill="none" stroke="#121947" stroke-linecap="round" stroke-linejoin="round" stroke-width="2"/>
    <path id="Path_994" data-name="Path 994" d="M57.741,89.646H50.519a2.07,2.07,0,0,0-2.065,2.065V109.02a54.618,54.618,0,0,1,12.772,11.885,4.131,4.131,0,1,1-6.437,5.178c-1.01-1.259-2.044-2.434-3.075-3.527a2.606,2.606,0,0,1-.432.393l-.249.186a5.49,5.49,0,0,1-.6.33c-.225.186-.453.351-.68.515-.453.33-.887.659-1.3.971" transform="translate(21.563 -74.172)" fill="none" stroke="#121947" stroke-linecap="round" stroke-linejoin="round" stroke-width="2"/>
    <path id="Path_995" data-name="Path 995" d="M48.454,138.154v16.485a2.07,2.07,0,0,0,2.065,2.065H96.941a2.071,2.071,0,0,0,2.065-2.065V91.711a2.07,2.07,0,0,0-2.065-2.065H89.722" transform="translate(21.563 -74.172)" fill="none" stroke="#121947" stroke-linecap="round" stroke-linejoin="round" stroke-width="2"/>
    <path id="Path_996" data-name="Path 996" d="M52.209,106.229v.021l-.722,1.01a2.07,2.07,0,0,1-2.886.474l-.147-.1" transform="translate(21.563 -47.362)" fill="none" stroke="#121947" stroke-linecap="round" stroke-linejoin="round" stroke-width="2"/>
    <line id="Line_65" data-name="Line 65" x1="31.521" transform="translate(81.841 31.981)" fill="none" stroke="#121947" stroke-linecap="round" stroke-linejoin="round" stroke-width="2"/>
    <line id="Line_66" data-name="Line 66" x1="31.521" transform="translate(81.841 41.266)" fill="none" stroke="#121947" stroke-linecap="round" stroke-linejoin="round" stroke-width="2"/>
    <line id="Line_67" data-name="Line 67" x1="21.969" transform="translate(91.393 51.582)" fill="none" stroke="#121947" stroke-linecap="round" stroke-linejoin="round" stroke-width="2"/>
    <path id="Path_997" data-name="Path 997" d="M71.3,93.03V88.16A2.07,2.07,0,0,0,69.237,86.1H59.848" transform="translate(39.984 -79.908)" fill="none" stroke="#121947" stroke-linecap="round" stroke-linejoin="round" stroke-width="2"/>
    <path id="Path_998" data-name="Path 998" d="M62.423,86.1H54.065A2.068,2.068,0,0,0,52,88.16v4.87" transform="translate(27.301 -79.908)" fill="none" stroke="#121947" stroke-linecap="round" stroke-linejoin="round" stroke-width="2"/>
    <line id="Line_68" data-name="Line 68" x1="17.538" transform="translate(86.525 15.475)" fill="none" stroke="#121947" stroke-linecap="round" stroke-linejoin="round" stroke-width="2"/>
    <ellipse id="Ellipse_19" data-name="Ellipse 19" cx="5.158" cy="5.158" rx="5.158" ry="5.158" transform="translate(89.62 0)" fill="none" stroke="#121947" stroke-linecap="round" stroke-linejoin="round" stroke-width="2"/>
    <path id="Path_999" data-name="Path 999" d="M77.15,107.542a4.585,4.585,0,1,1-7.827,3.242v.918a3.669,3.669,0,0,1-7.337,0,3.667,3.667,0,0,1-3.669,3.666h-2.75" transform="translate(33.065 -45.24)" fill="none" stroke="#121947" stroke-linecap="round" stroke-linejoin="round" stroke-width="2"/>
    <path id="Path_1000" data-name="Path 1000" d="M50.67,105.14c-3.425,2.454-5.922,4.147-7.861,5.364l.225,4.375a4.124,4.124,0,1,0,8.235-.455l-.5-9.056v-.29" transform="translate(12.437 -49.225)" fill="none" stroke="#121947" stroke-linecap="round" stroke-linejoin="round" stroke-width="2"/>
    <path id="Path_1001" data-name="Path 1001" d="M45.813,105.1l.1.228.62,1.2,2.29,4.456a4.114,4.114,0,0,0,3.9,2.188,3.889,3.889,0,0,0,1.693-.474,4.026,4.026,0,0,0,1.837-2" transform="translate(17.294 -49.186)" fill="none" stroke="#121947" stroke-linecap="round" stroke-linejoin="round" stroke-width="2"/>
    <path id="Path_1002" data-name="Path 1002" d="M45.963,107.9c.1-.084.225-.165.33-.249,1.753-1.28,3.713-2.745,5.984-4.456" transform="translate(17.536 -52.271)" fill="none" stroke="#121947" stroke-linecap="round" stroke-linejoin="round" stroke-width="2"/>
    <path id="Path_1003" data-name="Path 1003" d="M48.454,107.619l.147.1a2.07,2.07,0,0,0,2.886-.474l.722-1.01" transform="translate(21.563 -47.349)" fill="none" stroke="#121947" stroke-linecap="round" stroke-linejoin="round" stroke-width="2"/>
    <g id="Group_1078" data-name="Group 1078" transform="translate(0 29.037)">
      <path id="Path_1004" data-name="Path 1004" d="M21.7,115.084l9.185-9.182a2.063,2.063,0,0,1,2.918,0l19.7,19.7a2.063,2.063,0,0,1,0,2.918L46.11,135.9" transform="translate(-21.696 -77.904)" fill="none" stroke="#121947" stroke-linecap="round" stroke-linejoin="round" stroke-width="2"/>
      <path id="Path_1005" data-name="Path 1005" d="M26.321,107.7l19.7,19.7,2.91-2.931a2.022,2.022,0,0,0,.557-1.855,2.47,2.47,0,0,0-.1-.372,2.012,2.012,0,0,0-.453-.68L32.159,104.79a1.635,1.635,0,0,0-.207-.186,2.077,2.077,0,0,0-2.721.186Z" transform="translate(-14.219 -79.707)" fill="none" stroke="#121947" stroke-linecap="round" stroke-linejoin="round" stroke-width="2"/>
      <path id="Path_1006" data-name="Path 1006" d="M50.844,100.536l-.455.2M43.148,104a10.347,10.347,0,0,0,1.154-.474l6.086-2.787L44.3,103.506C43.909,103.692,43.52,103.857,43.148,104Zm7.366,8.193a1.538,1.538,0,0,0-.29.225.111.111,0,0,0-.1.063" transform="translate(12.985 -85.603)" fill="none" stroke="#121947" stroke-linecap="round" stroke-linejoin="round" stroke-width="2"/>
      <path id="Path_1007" data-name="Path 1007" d="M38.314,95.813l10.4,7.408a22.523,22.523,0,0,1,9.946,3.2,27.654,27.654,0,0,1,3.012,1.96L63.4,107.6a3.658,3.658,0,0,1,1.444-.372,4.119,4.119,0,0,1,3.26,6.953c1.031,1.094,2.065,2.269,3.075,3.527a4.131,4.131,0,1,0,6.437-5.178A54.617,54.617,0,0,0,64.847,100.64a37.471,37.471,0,0,0-6.188-3.279,31.752,31.752,0,0,0-16.114-2.313A32.788,32.788,0,0,0,38.314,95.813Z" transform="translate(5.17 -94.829)" fill="none" stroke="#121947" stroke-linecap="round" stroke-linejoin="round" stroke-width="2"/>
      <path id="Path_1008" data-name="Path 1008" d="M73.846,118.448c-3.425,2.454-5.922,4.147-7.861,5.364a33.807,33.807,0,0,1-6.625,3.344c-6.107,2.392-8.808,3.527-13.306,7.591a1.18,1.18,0,0,0-.042-.267,2.385,2.385,0,0,0-.1-.372,2.037,2.037,0,0,0-.453-.68L28.68,116.653a1.635,1.635,0,0,0-.207-.186c5.241-4.54,6.79-13.824,15.745-19.623L55.854,105.1a4.11,4.11,0,0,0,.68,2.208,8.292,8.292,0,0,0,6.994,3.26,8.859,8.859,0,0,0,1.034-.063,10.557,10.557,0,0,0,2.311-.536,10.345,10.345,0,0,0,1.154-.474l6.086-2.787" transform="translate(-10.74 -91.57)" fill="none" stroke="#121947" stroke-linecap="round" stroke-linejoin="round" stroke-width="2"/>
      <path id="Path_1009" data-name="Path 1009" d="M45.963,113.769c.1-.084.225-.165.33-.249,1.753-1.28,3.713-2.745,5.984-4.456a.652.652,0,0,0,.2-.144c.413-.311.848-.641,1.3-.971.228-.165.455-.33.68-.516a5.491,5.491,0,0,0,.6-.33l.249-.186a2.607,2.607,0,0,0,.432-.393,4.119,4.119,0,0,0-3.26-6.953,3.658,3.658,0,0,0-1.444.372l-1.732.782-3.012,1.384" transform="translate(17.536 -87.178)" fill="none" stroke="#121947" stroke-linecap="round" stroke-linejoin="round" stroke-width="2"/>
      <path id="Path_1010" data-name="Path 1010" d="M26.321,107.7l19.7,19.7,2.91-2.931a2.022,2.022,0,0,0,.557-1.855,2.47,2.47,0,0,0-.1-.372,2.012,2.012,0,0,0-.453-.68L32.159,104.79a1.635,1.635,0,0,0-.207-.186,2.077,2.077,0,0,0-2.721.186Z" transform="translate(-14.219 -79.707)" fill="none" stroke="#121947" stroke-linecap="round" stroke-linejoin="round" stroke-width="2"/>
    </g>
    <g id="Group_1079" data-name="Group 1079" transform="translate(31.003 24.704)">
      <path id="Path_1011" data-name="Path 1011" d="M33.544,98.134a4.621,4.621,0,0,0,1.96,3.776l.515.372,11.636,8.253,4.25,3.033L57.272,106l-.848-.6-10.4-7.408-5.137-3.65a4.666,4.666,0,0,0-7.345,3.794Z" transform="translate(-33.544 -92.674)" fill="none" stroke="#121947" stroke-linecap="round" stroke-linejoin="round" stroke-width="2"/>
      <path id="Path_1012" data-name="Path 1012" d="M52.277,102.182,40.5,93.816a3.03,3.03,0,0,0-4.315.733" transform="translate(-29.271 -93.173)" fill="none" stroke="#121947" stroke-linecap="round" stroke-linejoin="round" stroke-width="2"/>
      <path id="Path_1013" data-name="Path 1013" d="M51.766,109.751l1.693,1.2c-.084,2.415,4.888,3.033,8.355,3.177a1.019,1.019,0,0,0,.62-1.855l-8.274-5.882Z" transform="translate(-4.085 -71.813)" fill="none" stroke="#121947" stroke-linecap="round" stroke-linejoin="round" stroke-width="2"/>
      <path id="Path_1014" data-name="Path 1014" d="M49.385,110.592l1.094.764,3.114,2.209a1.023,1.023,0,0,0,1.423-.228l.6-.845,2.394-3.365a1.031,1.031,0,0,0-.249-1.444l-4.189-2.991-.411.557a2.108,2.108,0,0,1-.165.267.021.021,0,0,0-.021.021L50.7,108.715v.021l-.722,1.01Z" transform="translate(-7.934 -74.553)" fill="none" stroke="#121947" stroke-linecap="round" stroke-linejoin="round" stroke-width="2"/>
      <path id="Path_1015" data-name="Path 1015" d="M52.481,113.229l-6.188-4.4-.33-.246c.1-.084.225-.165.33-.249,1.753-1.28,3.713-2.745,5.984-4.456a.652.652,0,0,0,.2-.144c.413-.311.848-.641,1.3-.971l4.231,3.012a2.047,2.047,0,0,1,.68,2.58,2.109,2.109,0,0,1-.165.267.02.02,0,0,0-.021.021l-2.271,3.179" transform="translate(-13.466 -77.663)" fill="none" stroke="#121947" stroke-linecap="round" stroke-linejoin="round" stroke-width="2"/>
      <path id="Path_1016" data-name="Path 1016" d="M40.561,105.835l3.425,2.436a8.863,8.863,0,0,0,1.034-.063,10.557,10.557,0,0,0,2.311-.536,10.348,10.348,0,0,0,1.154-.474l6.086-2.787-8.643-6.147Z" transform="translate(-22.2 -84.942)" fill="none" stroke="#121947" stroke-linecap="round" stroke-linejoin="round" stroke-width="2"/>
    </g>
    <g id="Group_1080" data-name="Group 1080" transform="translate(63.107 43.969)">
      <line id="Line_69" data-name="Line 69" y1="0.206" x2="0.454" transform="translate(0.268)" fill="none" stroke="#121947" stroke-linecap="round" stroke-linejoin="round" stroke-width="2"/>
      <path id="Path_1017" data-name="Path 1017" d="M45.813,105.279a.111.111,0,0,1,.1-.063,1.537,1.537,0,0,1,.29-.225" transform="translate(-45.813 -93.333)" fill="none" stroke="#121947" stroke-linecap="round" stroke-linejoin="round" stroke-width="2"/>
      <line id="Line_70" data-name="Line 70" y1="0.206" x2="0.454" transform="translate(0.268)" fill="none" stroke="#121947" stroke-linecap="round" stroke-linejoin="round" stroke-width="2"/>
      <path id="Path_1018" data-name="Path 1018" d="M45.813,105.279a.111.111,0,0,1,.1-.063,1.537,1.537,0,0,1,.29-.225" transform="translate(-45.813 -93.333)" fill="none" stroke="#121947" stroke-linecap="round" stroke-linejoin="round" stroke-width="2"/>
    </g>
  </g>
</svg>
