<svg xmlns="http://www.w3.org/2000/svg" width="15.499" height="15.499" viewBox="0 0 15.499 15.499">
  <g id="Technology" transform="translate(-382.878 -2929.517)">
    <path id="Path_255" data-name="Path 255" d="M31.933,224.928a3.3,3.3,0,1,0-3.294-3.3A3.3,3.3,0,0,0,31.933,224.928Z" transform="translate(358.694 2715.633)" fill="none" stroke="#9e181a" stroke-linecap="round" stroke-linejoin="round" stroke-width="1"/>
    <path id="Path_256" data-name="Path 256" d="M27.719,223.13h1.2a5.7,5.7,0,0,1,.864-2.089l-.853-.853a.437.437,0,0,1,0-.62l.934-.934a.437.437,0,0,1,.62,0l.853.853a5.651,5.651,0,0,1,2.089-.864v-1.2a.439.439,0,0,1,.439-.439h1.318a.439.439,0,0,1,.439.439v1.2a5.651,5.651,0,0,1,2.089.864l.853-.853a.437.437,0,0,1,.62,0l.934.934a.437.437,0,0,1,0,.62l-.853.853a5.7,5.7,0,0,1,.864,2.089h1.2a.437.437,0,0,1,.439.439v1.318a.439.439,0,0,1-.439.439h-1.2a5.7,5.7,0,0,1-.864,2.089l.853.853a.437.437,0,0,1,0,.62l-.934.934a.443.443,0,0,1-.62,0l-.853-.853a5.7,5.7,0,0,1-2.089.864v1.2a.439.439,0,0,1-.439.439H33.87a.439.439,0,0,1-.439-.439v-1.2a5.7,5.7,0,0,1-2.089-.864l-.853.853a.443.443,0,0,1-.62,0l-.934-.934a.437.437,0,0,1,0-.62l.853-.853a5.651,5.651,0,0,1-.864-2.089h-1.2a.439.439,0,0,1-.439-.439v-1.318A.437.437,0,0,1,27.719,223.13Zm6.809,4.394a3.3,3.3,0,1,0-3.294-3.3A3.3,3.3,0,0,0,34.528,227.524Z" transform="translate(356.099 2713.038)" fill="none" stroke="#9e181a" stroke-linecap="round" stroke-linejoin="round" stroke-width="1"/>
  </g>
</svg>
