<svg xmlns="http://www.w3.org/2000/svg" width="40.861" height="70.405" viewBox="0 0 40.861 70.405">
  <g id="Group_179" data-name="Group 179" transform="translate(0.5 0.5)">
    <path id="Path_90" data-name="Path 90" d="M230.69,77.474V96.817a10.392,10.392,0,0,1,7.456,3.143,1.282,1.282,0,0,1,.444.49,10.335,10.335,0,0,1,2.519,6.785v.594h19.615a3.431,3.431,0,0,0,2.415-1,4.864,4.864,0,0,0,.422-.511l.171-.272a3.781,3.781,0,0,0,.34-.946,3.292,3.292,0,0,0,.067-.683V77.474Zm8.049,18.547a1.27,1.27,0,0,1-1.264,1.273h-2.415a1.272,1.272,0,0,1-1.273-1.273V94.849a1.273,1.273,0,0,1,1.273-1.276h2.415a1.271,1.271,0,0,1,1.264,1.276Zm0-6.195a1.271,1.271,0,0,1-1.264,1.276h-2.415a1.273,1.273,0,0,1-1.273-1.276V88.654a1.273,1.273,0,0,1,1.273-1.276h2.415a1.271,1.271,0,0,1,1.264,1.276Zm0-6.195a1.271,1.271,0,0,1-1.264,1.276h-2.415a1.273,1.273,0,0,1-1.273-1.276V82.46a1.273,1.273,0,0,1,1.273-1.276h2.415a1.271,1.271,0,0,1,1.264,1.276Zm7.434,18.584a1.273,1.273,0,0,1-1.276,1.273h-2.4a1.272,1.272,0,0,1-1.273-1.273v-1.175a1.272,1.272,0,0,1,1.273-1.273h2.4a1.273,1.273,0,0,1,1.276,1.273Zm0-6.195a1.273,1.273,0,0,1-1.276,1.273h-2.4a1.272,1.272,0,0,1-1.273-1.273V94.849a1.273,1.273,0,0,1,1.273-1.276h2.4a1.274,1.274,0,0,1,1.276,1.276Zm0-6.195A1.274,1.274,0,0,1,244.9,91.1h-2.4a1.273,1.273,0,0,1-1.273-1.276V88.654a1.273,1.273,0,0,1,1.273-1.276h2.4a1.261,1.261,0,0,1,1.276,1.276Zm0-6.195a1.274,1.274,0,0,1-1.276,1.276h-2.4a1.273,1.273,0,0,1-1.273-1.276V82.46a1.273,1.273,0,0,1,1.273-1.276h2.4a1.274,1.274,0,0,1,1.276,1.276Zm7.434,18.584a1.272,1.272,0,0,1-1.273,1.273h-2.4a1.273,1.273,0,0,1-1.276-1.273v-1.175a1.273,1.273,0,0,1,1.276-1.273h2.4a1.272,1.272,0,0,1,1.273,1.273Zm0-6.195a1.272,1.272,0,0,1-1.273,1.273h-2.4a1.273,1.273,0,0,1-1.276-1.273V94.849a1.274,1.274,0,0,1,1.276-1.276h2.4a1.273,1.273,0,0,1,1.273,1.276Zm0-6.195a1.273,1.273,0,0,1-1.273,1.276h-2.4a1.274,1.274,0,0,1-1.276-1.276V88.654a1.167,1.167,0,0,1,.113-.523,1.262,1.262,0,0,1,1.163-.753h2.4a1.273,1.273,0,0,1,1.273,1.276Zm0-6.195a1.273,1.273,0,0,1-1.273,1.276h-2.4a1.274,1.274,0,0,1-1.276-1.276V82.46a1.274,1.274,0,0,1,1.276-1.276h2.4a1.273,1.273,0,0,1,1.273,1.276Zm7.437,18.538a1.322,1.322,0,0,1-1.322,1.319H257.4a1.311,1.311,0,0,1-1.31-1.319V94.895a1.312,1.312,0,0,1,1.31-1.322h2.323a1.323,1.323,0,0,1,1.322,1.322Zm0-12.343a1.188,1.188,0,0,1-.07.41,1.28,1.28,0,0,1-1.206.866h-2.415a1.271,1.271,0,0,1-1.264-1.276V88.654a1.271,1.271,0,0,1,1.264-1.276h2.415a1.274,1.274,0,0,1,1.276,1.276Zm0-6.195a1.274,1.274,0,0,1-1.276,1.276h-2.415a1.271,1.271,0,0,1-1.264-1.276V82.46a1.271,1.271,0,0,1,1.264-1.276h2.415a1.274,1.274,0,0,1,1.276,1.276Z" transform="translate(-224.278 -64.46)" fill="none" stroke="#121947" stroke-linecap="round" stroke-linejoin="round" stroke-width="1"/>
    <path id="Path_91" data-name="Path 91" d="M264.542,103.836a20.519,20.519,0,0,1-5.5,7.162,3.212,3.212,0,0,0-1.252,2.549v2.892H239.026v-4.374h-.012a4.9,4.9,0,0,0-1.9-3.872l-4.453-3.425a10.418,10.418,0,0,1-4.065-8.254V82.61a3.206,3.206,0,0,1,6.412,0V92.824a10.392,10.392,0,0,1,7.456,3.143c.15.159.3.318.444.49a10.334,10.334,0,0,1,2.519,6.785v.594Z" transform="translate(-228.595 -60.467)" fill="none" stroke="#9e181a" stroke-linecap="round" stroke-linejoin="round" stroke-width="1"/>
    <path id="Path_93" data-name="Path 93" d="M241.512,81.986v1.172a1.273,1.273,0,0,1-1.273,1.276h-2.4a1.274,1.274,0,0,1-1.276-1.276V81.986a1.168,1.168,0,0,1,.113-.523,1.262,1.262,0,0,1,1.163-.753h2.4A1.273,1.273,0,0,1,241.512,81.986Z" transform="translate(-212.182 -57.792)" fill="none" stroke="#121947" stroke-linecap="round" stroke-linejoin="round" stroke-width="1"/>
    <g id="Group_98" data-name="Group 98" transform="translate(6.412)">
      <path id="Path_94" data-name="Path 94" d="M264.139,75.7V86.236H230.69V75.7a2.486,2.486,0,0,1,2.482-2.482h28.485A2.486,2.486,0,0,1,264.139,75.7Z" transform="translate(-230.69 -73.222)" fill="none" stroke="#121947" stroke-linecap="round" stroke-linejoin="round" stroke-width="1"/>
      <path id="Path_95" data-name="Path 95" d="M254.113,81.048H233.83a1.319,1.319,0,0,1-1.319-1.319V75.554a1.319,1.319,0,0,1,1.319-1.319h20.283a1.319,1.319,0,0,1,1.319,1.319v4.175A1.319,1.319,0,0,1,254.113,81.048Z" transform="translate(-226.938 -71.135)" fill="none" stroke="#121947" stroke-linecap="round" stroke-linejoin="round" stroke-width="1"/>
      <path id="Path_96" data-name="Path 96" d="M264.139,75.7V86.236H230.69V75.7a2.486,2.486,0,0,1,2.482-2.482h28.485A2.486,2.486,0,0,1,264.139,75.7Z" transform="translate(-230.69 -73.222)" fill="none" stroke="#121947" stroke-linecap="round" stroke-linejoin="round" stroke-width="1"/>
    </g>
    <g id="Group_100" data-name="Group 100" transform="translate(7.217 55.975)">
      <g id="Group_99" data-name="Group 99">
        <path id="Path_97" data-name="Path 97" d="M230.953,99.776v-5.09a1.6,1.6,0,0,1,1.6-1.6h21.638a1.605,1.605,0,0,1,1.6,1.6v5.934" transform="translate(-230.953 -88.274)" fill="none" stroke="#9e181a" stroke-linecap="round" stroke-linejoin="round" stroke-width="1"/>
        <path id="Path_98" data-name="Path 98" d="M230.953,97.2V95.269" transform="translate(-230.953 -83.767)" fill="none" stroke="#9e181a" stroke-linecap="round" stroke-linejoin="round" stroke-width="1"/>
        <path id="Path_99" data-name="Path 99" d="M253.114,96.319v-3.2a1.6,1.6,0,0,0-1.6-1.6H233.08a1.6,1.6,0,0,0-1.6,1.6v3.2Z" transform="translate(-229.875 -91.511)" fill="none" stroke="#9e181a" stroke-linecap="round" stroke-linejoin="round" stroke-width="1"/>
      </g>
    </g>
  </g>
</svg>
