<svg xmlns="http://www.w3.org/2000/svg" width="85.959" height="98.28" viewBox="0 0 85.959 98.28">
  <g id="Group_3015" data-name="Group 3015" transform="translate(1.007 1)">
    <path id="Path_1069" data-name="Path 1069" d="M53.243,292.285v1.887l-3.889,8.414-4.428,9.588a2.312,2.312,0,1,1-4.139-2.06l3.485-7.528,4.756-10.3Z" transform="translate(-13.585 -217.191)" fill="none" stroke="#121947" stroke-linecap="round" stroke-linejoin="round" stroke-width="2"/>
    <path id="Path_1070" data-name="Path 1070" d="M60.876,313.214a2.3,2.3,0,0,1-3.1-1.04l-4.428-9.588-3.812-8.241v-2.06h4.14l4.756,10.3,3.485,7.528A2.3,2.3,0,0,1,60.876,313.214Z" transform="translate(-5.258 -217.191)" fill="none" stroke="#121947" stroke-linecap="round" stroke-linejoin="round" stroke-width="2"/>
    <g id="Group_1099" data-name="Group 1099" transform="translate(0 0)">
      <rect id="Rectangle_36" data-name="Rectangle 36" width="62.381" height="48.519" transform="translate(10.782 16.173)" stroke-width="2" stroke="#121947" stroke-linecap="round" stroke-linejoin="round" fill="none"/>
      <g id="Group_1097" data-name="Group 1097" transform="translate(0 63.536)">
        <rect id="Rectangle_37" data-name="Rectangle 37" width="70.083" height="4.621" transform="translate(6.927 1.161)" stroke-width="2" stroke="#121947" stroke-linecap="round" stroke-linejoin="round" fill="none"/>
        <path id="Path_1071" data-name="Path 1071" d="M73.423,290.331a3.594,3.594,0,0,1-3.6,2.882H67.5a.962.962,0,0,1-.963-.963v-5.006a.963.963,0,0,1,.963-.963H70A3.469,3.469,0,0,1,73.423,290.331Z" transform="translate(10.475 -286.282)" fill="none" stroke="#121947" stroke-linecap="round" stroke-linejoin="round" stroke-width="2"/>
        <path id="Path_1072" data-name="Path 1072" d="M26.586,290.331a3.594,3.594,0,0,0,3.6,2.882h2.318a.962.962,0,0,0,.963-.963v-5.006a.963.963,0,0,0-.963-.963h-2.5A3.469,3.469,0,0,0,26.586,290.331Z" transform="translate(-26.538 -286.282)" fill="none" stroke="#121947" stroke-linecap="round" stroke-linejoin="round" stroke-width="2"/>
      </g>
      <g id="Group_1098" data-name="Group 1098" transform="translate(0 10.396)">
        <rect id="Rectangle_38" data-name="Rectangle 38" width="70.083" height="4.621" transform="translate(6.931 1.156)" stroke-width="2" stroke="#121947" stroke-linecap="round" stroke-linejoin="round" fill="none"/>
        <path id="Path_1073" data-name="Path 1073" d="M73.423,262.731a3.594,3.594,0,0,1-3.6,2.882H67.5a.963.963,0,0,1-.963-.963v-5.006a.963.963,0,0,1,.963-.963H70A3.469,3.469,0,0,1,73.423,262.731Z" transform="translate(10.475 -258.682)" fill="none" stroke="#121947" stroke-linecap="round" stroke-linejoin="round" stroke-width="2"/>
        <path id="Path_1074" data-name="Path 1074" d="M26.586,262.731a3.594,3.594,0,0,0,3.6,2.882h2.318a.963.963,0,0,0,.963-.963v-5.006a.963.963,0,0,0-.963-.963h-2.5A3.469,3.469,0,0,0,26.586,262.731Z" transform="translate(-26.538 -258.682)" fill="none" stroke="#121947" stroke-linecap="round" stroke-linejoin="round" stroke-width="2"/>
      </g>
      <path id="Path_1075" data-name="Path 1075" d="M31.539,263.724l32.346-9.242,32.346,9.242" transform="translate(-21.912 -252.172)" fill="none" stroke="#121947" stroke-linecap="round" stroke-linejoin="round" stroke-width="2"/>
      <line id="Line_102" data-name="Line 102" y2="11.552" transform="translate(41.973)" fill="none" stroke="#121947" stroke-linecap="round" stroke-linejoin="round" stroke-width="2"/>
      <ellipse id="Ellipse_20" data-name="Ellipse 20" cx="4.621" cy="4.621" rx="4.621" ry="4.621" transform="translate(37.352 21.949)" fill="none" stroke="#121947" stroke-linecap="round" stroke-linejoin="round" stroke-width="2"/>
      <path id="Path_1076" data-name="Path 1076" d="M51.866,282.593l-3.689-8.554-9.484,3.722,3.419,1.367a45.666,45.666,0,0,0-4.575,19.638h7.9a37.962,37.962,0,0,1,2.907-17.528Z" transform="translate(-16.36 -234.075)" fill="none" stroke="#121947" stroke-linecap="round" stroke-linejoin="round" stroke-width="2"/>
      <path id="Path_1077" data-name="Path 1077" d="M48.938,282.024l4.255-11.342,12.759,4.253L60.4,277.157s6.968,11.956,6.968,24.716H57.446s1.417-12.759-2.784-22.049Z" transform="translate(-5.811 -237.182)" fill="none" stroke="#121947" stroke-linecap="round" stroke-linejoin="round" stroke-width="2"/>
      <line id="Line_103" data-name="Line 103" x2="6.931" y2="6.931" transform="translate(37.352 51.985)" fill="none" stroke="#121947" stroke-linecap="round" stroke-linejoin="round" stroke-width="2"/>
      <line id="Line_104" data-name="Line 104" x1="6.931" y2="6.931" transform="translate(37.352 51.985)" fill="none" stroke="#121947" stroke-linecap="round" stroke-linejoin="round" stroke-width="2"/>
      <line id="Line_105" data-name="Line 105" x2="6.931" y2="6.931" transform="translate(61.611 27.725)" fill="none" stroke="#121947" stroke-linecap="round" stroke-linejoin="round" stroke-width="2"/>
      <line id="Line_106" data-name="Line 106" x1="6.931" y2="6.931" transform="translate(61.611 27.725)" fill="none" stroke="#121947" stroke-linecap="round" stroke-linejoin="round" stroke-width="2"/>
      <line id="Line_107" data-name="Line 107" x2="6.931" y2="6.931" transform="translate(17.713 27.725)" fill="none" stroke="#121947" stroke-linecap="round" stroke-linejoin="round" stroke-width="2"/>
      <line id="Line_108" data-name="Line 108" x1="6.931" y2="6.931" transform="translate(17.713 27.725)" fill="none" stroke="#121947" stroke-linecap="round" stroke-linejoin="round" stroke-width="2"/>
      <rect id="Rectangle_39" data-name="Rectangle 39" width="13.863" height="5.776" transform="translate(35.037 69.317)" stroke-width="2" stroke="#121947" stroke-linecap="round" stroke-linejoin="round" fill="none"/>
    </g>
    <path id="Path_1078" data-name="Path 1078" d="M51.757,292.285v18.868a2.31,2.31,0,1,1-4.621,0V292.285Z" transform="translate(-7.479 -217.191)" fill="none" stroke="#121947" stroke-linecap="round" stroke-linejoin="round" stroke-width="2"/>
  </g>
</svg>
