<svg xmlns="http://www.w3.org/2000/svg" width="74.3" height="70.795" viewBox="0 0 74.3 70.795">
  <g id="Group_181" data-name="Group 181" transform="translate(0.5 0.5)">
    <path id="Path_159" data-name="Path 159" d="M45.371,196.423l-2.011,7.249H34.3L37.591,191.8A26.95,26.95,0,0,0,45.371,196.423Z" transform="translate(-27.955 -133.877)" fill="none" stroke="#121947" stroke-linecap="round" stroke-linejoin="round" stroke-width="1"/>
    <path id="Path_160" data-name="Path 160" d="M56.21,203.672H47.148l-2.008-7.249a27.2,27.2,0,0,0,7.777-4.623Z" transform="translate(-8.18 -133.877)" fill="none" stroke="#121947" stroke-linecap="round" stroke-linejoin="round" stroke-width="1"/>
    <path id="Path_161" data-name="Path 161" d="M79.377,193.763l5-2.093a26.8,26.8,0,0,1,2.045,10.341,27.178,27.178,0,0,1-36.96,25.362,27.6,27.6,0,0,1-7.78-4.606A27.19,27.19,0,1,1,78.589,182.9l-3.841,3.841" transform="translate(-32.052 -164.834)" fill="none" stroke="#121947" stroke-linecap="round" stroke-linejoin="round" stroke-width="1"/>
    <path id="Path_162" data-name="Path 162" d="M77.345,186.454a26.921,26.921,0,0,0-5.786-8.766l-3.841,3.841-3.841,3.841A16.315,16.315,0,1,0,68.532,196.8a16.626,16.626,0,0,0-1.209-6.182l5.024-2.067Zm-21.2,6.6L52.426,196.8l4.826-2.019" transform="translate(-25.022 -159.617)" fill="none" stroke="#121947" stroke-linecap="round" stroke-linejoin="round" stroke-width="1"/>
    <path id="Path_163" data-name="Path 163" d="M45.475,183.129l-3.719,3.742,4.826-2.019" transform="translate(-14.352 -149.693)" fill="none" stroke="#121947" stroke-linecap="round" stroke-linejoin="round" stroke-width="1"/>
    <path id="Path_164" data-name="Path 164" d="M50.635,187.969a5.442,5.442,0,1,1-5.442-5.442,5.353,5.353,0,0,1,3.939,1.7l-3.719,3.742,4.826-2.019h.025A6.032,6.032,0,0,1,50.635,187.969Z" transform="translate(-18.009 -150.791)" fill="none" stroke="#9e181a" stroke-linecap="round" stroke-linejoin="round" stroke-width="1"/>
    <g id="Group_113" data-name="Group 113" transform="translate(27.38)">
      <path id="Path_165" data-name="Path 165" d="M54.583,173.949a15.106,15.106,0,0,0-4.422,10.83,15.739,15.739,0,0,0,10.87-4.51l2.688-2.638-4.5-1.878-1.968-4.465Z" transform="translate(-26.404 -171.289)" fill="none" stroke="#9e181a" stroke-linecap="round" stroke-linejoin="round" stroke-width="1"/>
      <path id="Path_166" data-name="Path 166" d="M54.583,173.949a15.106,15.106,0,0,0-4.422,10.83,15.739,15.739,0,0,0,10.87-4.51l2.688-2.638-4.5-1.878-1.968-4.465Z" transform="translate(-26.404 -171.289)" fill="none" stroke="#9e181a" stroke-linecap="round" stroke-linejoin="round" stroke-width="1"/>
      <path id="Path_167" data-name="Path 167" d="M53.222,180.408l-3.866,3.841-3.866,3.841-3.718,3.743h-.025" transform="translate(-41.748 -154.655)" fill="none" stroke="#121947" stroke-linecap="round" stroke-linejoin="round" stroke-width="1"/>
      <path id="Path_168" data-name="Path 168" d="M62.185,172.872l-9.047,9.017-4.607,4.592" transform="translate(-29.376 -168.402)" fill="none" stroke="#121947" stroke-linecap="round" stroke-linejoin="round" stroke-width="1"/>
    </g>
    <g id="Group_114" data-name="Group 114" transform="translate(27.405 14.705)">
      <path id="Path_169" data-name="Path 169" d="M60.823,177.942a15.093,15.093,0,0,0-8.218,8.325,15.733,15.733,0,0,0,11.768-.025l3.49-1.415-3.448-3.451L64.3,176.5Z" transform="translate(-21.968 -176.496)" fill="none" stroke="#9e181a" stroke-linecap="round" stroke-linejoin="round" stroke-width="1"/>
      <path id="Path_170" data-name="Path 170" d="M41.756,188.446l4.826-2.019h.025l5-2.068,5.048-2.093" transform="translate(-41.756 -165.973)" fill="none" stroke="#121947" stroke-linecap="round" stroke-linejoin="round" stroke-width="1"/>
      <path id="Path_171" data-name="Path 171" d="M50.584,185.476l5.725-2.371,11.8-4.879" transform="translate(-25.654 -173.341)" fill="none" stroke="#121947" stroke-linecap="round" stroke-linejoin="round" stroke-width="1"/>
    </g>
  </g>
</svg>
