<svg xmlns="http://www.w3.org/2000/svg" width="16.191" height="10.768" viewBox="0 0 16.191 10.768">
  <g id="Symbol_8_26" data-name="Symbol 8 – 26" transform="translate(183.594 -553.96)">
    <path id="Path_1697" data-name="Path 1697" d="M162.59,394.1l6.771,4.583a.722.722,0,0,0,.9,0l6.771-4.583a1.433,1.433,0,0,0-1.07-.48h-12.3A1.445,1.445,0,0,0,162.59,394.1Z" transform="translate(-345.309 160.839)" fill="none" stroke="#9e181a" stroke-linecap="round" stroke-linejoin="round" stroke-width="1"/>
    <path id="Path_1698" data-name="Path 1698" d="M177.657,401.942a1.449,1.449,0,0,1-1.447,1.447h-12.3a1.447,1.447,0,0,1-1.447-1.447v-6.873a1.445,1.445,0,0,1,1.447-1.447h12.3a1.447,1.447,0,0,1,1.447,1.447Z" transform="translate(-345.56 160.839)" fill="none" stroke="#9e181a" stroke-linecap="round" stroke-linejoin="round" stroke-width="1"/>
  </g>
</svg>
