<svg xmlns="http://www.w3.org/2000/svg" width="66.677" height="65.373" viewBox="0 0 66.677 65.373">
  <g id="Group_184" data-name="Group 184" transform="translate(5439.602 -7906.103)">
    <g id="Group_119" data-name="Group 119">
      <path id="Path_189" data-name="Path 189" d="M-5397.59,7919.573v-11.53a1.445,1.445,0,0,0-1.443-1.44h-19.452a1.446,1.446,0,0,0-1.443,1.44v11.533Z" fill="none" stroke="#121947" stroke-linecap="round" stroke-linejoin="round" stroke-width="1"/>
      <path id="Path_186" data-name="Path 186" d="M-5397.59,7919.574v2.88a1.441,1.441,0,0,1-1.442,1.44h-19.453a1.442,1.442,0,0,1-1.443-1.439h0v-2.88" fill="none" stroke="#121947" stroke-linecap="round" stroke-linejoin="round" stroke-width="1"/>
      <path id="Path_187" data-name="Path 187" d="M-5408.76,7921.118a.621.621,0,0,0-.621.621.621.621,0,0,0,.621.621.621.621,0,0,0,.621-.621v0a.618.618,0,0,0-.618-.618Z" fill="none" stroke="#121947" stroke-linecap="round" stroke-linejoin="round" stroke-width="1"/>
      <path id="Path_188" data-name="Path 188" d="M-5405.156,7926.777h-7.206l.36-2.882h6.485Z" fill="none" stroke="#121947" stroke-linecap="round" stroke-linejoin="round" stroke-width="1"/>
      <line id="Line_27" data-name="Line 27" x2="11.529" transform="translate(-5414.522 7926.777)" fill="none" stroke="#121947" stroke-linecap="round" stroke-linejoin="round" stroke-width="1"/>
    </g>
    <g id="Group_120" data-name="Group 120">
      <path id="Path_190" data-name="Path 190" d="M-5397.212,7939.95v10.344h-5.176" fill="none" stroke="#121947" stroke-linecap="round" stroke-linejoin="round" stroke-width="1"/>
    </g>
    <g id="Group_121" data-name="Group 121">
      <path id="Path_191" data-name="Path 191" d="M-5403.416,7949.256a1.035,1.035,0,0,1,1.032,1.036,1.035,1.035,0,0,1-1.036,1.032,1.034,1.034,0,0,1-1.032-1.032,1.034,1.034,0,0,1,1.032-1.036Z" fill="none" stroke="#121947" stroke-linecap="round" stroke-linejoin="round" stroke-width="1"/>
    </g>
    <g id="Group_122" data-name="Group 122">
      <line id="Line_28" data-name="Line 28" y2="14.479" transform="translate(-5418.414 7947.707)" fill="none" stroke="#121947" stroke-linecap="round" stroke-linejoin="round" stroke-width="1"/>
    </g>
    <g id="Group_123" data-name="Group 123">
      <path id="Path_192" data-name="Path 192" d="M-5411.174,7947.707v7.755h9.823v10.343" fill="none" stroke="#121947" stroke-linecap="round" stroke-linejoin="round" stroke-width="1"/>
    </g>
    <g id="Group_124" data-name="Group 124">
      <line id="Line_29" data-name="Line 29" y2="21.201" transform="translate(-5391.524 7939.95)" fill="none" stroke="#121947" stroke-linecap="round" stroke-linejoin="round" stroke-width="1"/>
    </g>
    <g id="Group_125" data-name="Group 125">
      <path id="Path_193" data-name="Path 193" d="M-5380.666,7939.95v14.479h-4.654v4.655" fill="none" stroke="#121947" stroke-linecap="round" stroke-linejoin="round" stroke-width="1"/>
    </g>
    <g id="Group_126" data-name="Group 126">
      <line id="Line_30" data-name="Line 30" y2="9.308" transform="translate(-5424.619 7947.707)" fill="none" stroke="#121947" stroke-linecap="round" stroke-linejoin="round" stroke-width="1"/>
    </g>
    <g id="Group_127" data-name="Group 127">
      <path id="Path_194" data-name="Path 194" d="M-5418.414,7962.188a1.032,1.032,0,0,1,1.03,1.034,1.032,1.032,0,0,1-1.034,1.03,1.031,1.031,0,0,1-1.03-1.033A1.037,1.037,0,0,1-5418.414,7962.188Z" fill="none" stroke="#121947" stroke-linecap="round" stroke-linejoin="round" stroke-width="1"/>
    </g>
    <g id="Group_128" data-name="Group 128">
      <path id="Path_195" data-name="Path 195" d="M-5424.616,7957.014a1.034,1.034,0,0,1,1.034,1.034,1.034,1.034,0,0,1-1.034,1.034,1.034,1.034,0,0,1-1.034-1.034h0A1.035,1.035,0,0,1-5424.616,7957.014Z" fill="none" stroke="#121947" stroke-linecap="round" stroke-linejoin="round" stroke-width="1"/>
    </g>
    <g id="Group_129" data-name="Group 129">
      <path id="Path_196" data-name="Path 196" d="M-5401.351,7965.805a1.034,1.034,0,0,1,1.034,1.034,1.034,1.034,0,0,1-1.034,1.034,1.034,1.034,0,0,1-1.034-1.034h0A1.035,1.035,0,0,1-5401.351,7965.805Z" fill="none" stroke="#121947" stroke-linecap="round" stroke-linejoin="round" stroke-width="1"/>
    </g>
    <g id="Group_130" data-name="Group 130">
      <path id="Path_197" data-name="Path 197" d="M-5409.623,7960.118a1.034,1.034,0,0,1,1.036,1.034,1.034,1.034,0,0,1-1.034,1.036,1.035,1.035,0,0,1-1.036-1.034v0a1.033,1.033,0,0,1,1.032-1.034Z" fill="none" stroke="#121947" stroke-linecap="round" stroke-linejoin="round" stroke-width="1"/>
    </g>
    <g id="Group_131" data-name="Group 131">
      <path id="Path_198" data-name="Path 198" d="M-5391.525,7961.151a1.034,1.034,0,0,1,1.032,1.036,1.034,1.034,0,0,1-1.036,1.032,1.034,1.034,0,0,1-1.032-1.032,1.035,1.035,0,0,1,1.034-1.036Z" fill="none" stroke="#121947" stroke-linecap="round" stroke-linejoin="round" stroke-width="1"/>
    </g>
    <g id="Group_132" data-name="Group 132">
      <path id="Path_199" data-name="Path 199" d="M-5385.319,7959.081a1.034,1.034,0,0,1,1.036,1.034,1.034,1.034,0,0,1-1.034,1.036,1.034,1.034,0,0,1-1.036-1.034h0A1.034,1.034,0,0,1-5385.319,7959.081Z" fill="none" stroke="#121947" stroke-linecap="round" stroke-linejoin="round" stroke-width="1"/>
    </g>
    <g id="Group_133" data-name="Group 133">
      <line id="Line_31" data-name="Line 31" y2="8.789" transform="translate(-5409.622 7962.187)" fill="none" stroke="#121947" stroke-linecap="round" stroke-linejoin="round" stroke-width="1"/>
    </g>
    <g id="Group_134" data-name="Group 134">
      <path id="Path_200" data-name="Path 200" d="M-5429.789,7950.81a1.034,1.034,0,0,1,1.034,1.034,1.034,1.034,0,0,1-1.034,1.034,1.034,1.034,0,0,1-1.034-1.034h0A1.034,1.034,0,0,1-5429.789,7950.81Z" fill="none" stroke="#121947" stroke-linecap="round" stroke-linejoin="round" stroke-width="1"/>
    </g>
    <g id="Group_135" data-name="Group 135">
      <path id="Path_201" data-name="Path 201" d="M-5430.829,7951.843h-4.132v7.239" fill="none" stroke="#121947" stroke-linecap="round" stroke-linejoin="round" stroke-width="1"/>
    </g>
    <g id="Group_136" data-name="Group 136">
      <path id="Path_202" data-name="Path 202" d="M-5396.178,7954.944a1.034,1.034,0,0,1,1.036,1.034,1.035,1.035,0,0,1-1.034,1.036,1.035,1.035,0,0,1-1.036-1.034h0a1.032,1.032,0,0,1,1.028-1.036Z" fill="none" stroke="#121947" stroke-linecap="round" stroke-linejoin="round" stroke-width="1"/>
    </g>
    <g id="Group_137" data-name="Group 137">
      <line id="Line_32" data-name="Line 32" y2="12.408" transform="translate(-5396.179 7957.015)" fill="none" stroke="#121947" stroke-linecap="round" stroke-linejoin="round" stroke-width="1"/>
    </g>
    <g id="Group_138" data-name="Group 138">
      <line id="Line_33" data-name="Line 33" y2="7.758" transform="translate(-5386.353 7939.95)" fill="none" stroke="#121947" stroke-linecap="round" stroke-linejoin="round" stroke-width="1"/>
    </g>
    <g id="Group_139" data-name="Group 139">
      <path id="Path_203" data-name="Path 203" d="M-5386.354,7947.706a1.034,1.034,0,0,1,1.032,1.036,1.035,1.035,0,0,1-1.036,1.032,1.034,1.034,0,0,1-1.032-1.034A1.037,1.037,0,0,1-5386.354,7947.706Z" fill="none" stroke="#121947" stroke-linecap="round" stroke-linejoin="round" stroke-width="1"/>
    </g>
    <g id="Group_140" data-name="Group 140">
      <path id="Path_204" data-name="Path 204" d="M-5439.1,7939.85a7.686,7.686,0,0,1,7.655-7.715,7.7,7.7,0,0,1,.913.051,11.107,11.107,0,0,1,14.511-6.013,11.108,11.108,0,0,1,6.836,9.563A6.351,6.351,0,0,1-5400.5,7938a6.351,6.351,0,0,1-2.267,8.691,6.343,6.343,0,0,1-3.21.872h-26.318S-5439.1,7946.54-5439.1,7939.85Z" fill="none" stroke="#9e181a" stroke-linecap="round" stroke-linejoin="round" stroke-width="1"/>
    </g>
    <g id="Group_141" data-name="Group 141">
      <path id="Path_205" data-name="Path 205" d="M-5399.773,7939.808h20.33s6.018-.9,6.018-6.817a6.819,6.819,0,0,0-6.817-6.817,6.765,6.765,0,0,0-.751.042,9.819,9.819,0,0,0-12.834-5.3,9.819,9.819,0,0,0-6.036,8.448,5.531,5.531,0,0,0-2.838-.779,5.617,5.617,0,0,0-5.615,5.621,5.647,5.647,0,0,0,.1,1.069" fill="none" stroke="#9e181a" stroke-linecap="round" stroke-linejoin="round" stroke-width="1"/>
    </g>
  </g>
</svg>
