<svg xmlns="http://www.w3.org/2000/svg" width="104.305" height="85.184" viewBox="0 0 104.305 85.184">
  <g id="Group_3098" data-name="Group 3098" transform="translate(5618.382 -7720.162)">
    <path id="Path_2459" data-name="Path 2459" d="M-5540.4,7773.486a5.87,5.87,0,0,1-5.869,5.871h-65.738a5.871,5.871,0,0,1-5.871-5.871v-46.957a5.869,5.869,0,0,1,5.871-5.867h65.738a5.868,5.868,0,0,1,5.869,5.867h0Z" fill="none" stroke="#121947" stroke-linecap="round" stroke-linejoin="round" stroke-width="1"/>
    <path id="Path_2458" data-name="Path 2458" d="M-5563.881,7791.1H-5594.4a4.7,4.7,0,0,1,4.7-4.7h21.13A4.7,4.7,0,0,1-5563.881,7791.1Z" fill="none" stroke="#121947" stroke-linecap="round" stroke-linejoin="round" stroke-width="1"/>
    <line id="Rectangle_115" data-name="Rectangle 115" y1="7.043" transform="translate(-5585.011 7779.357)" fill="none" stroke="#121947" stroke-linecap="round" stroke-linejoin="round" stroke-width="1"/>
    <line id="Rectangle_115-2" data-name="Rectangle 115" y2="7.043" transform="translate(-5573.272 7779.357)" fill="none" stroke="#121947" stroke-linecap="round" stroke-linejoin="round" stroke-width="1"/>
    <path id="Path_2460" data-name="Path 2460" d="M-5540.4,7769.966h-77.478" fill="none" stroke="#121947" stroke-linecap="round" stroke-linejoin="round" stroke-width="1"/>
    <path id="Path_2461" data-name="Path 2461" d="M-5594.4,7736.882l15.26,6.936,15.261-6.937-15.261-6.936Z" fill="none" stroke="#9e181a" stroke-linecap="round" stroke-linejoin="round" stroke-width="1"/>
    <path id="Path_2462" data-name="Path 2462" d="M-5579.142,7743.819v18.036l15.261-6.937v-18.036Z" fill="none" stroke="#9e181a" stroke-linecap="round" stroke-linejoin="round" stroke-width="1"/>
    <path id="Path_2463" data-name="Path 2463" d="M-5594.4,7736.882v18.036l15.261,6.937v-18.036Z" fill="none" stroke="#9e181a" stroke-linecap="round" stroke-linejoin="round" stroke-width="1"/>
    <path id="Path_2464" data-name="Path 2464" d="M-5514.577,7802.891a1.955,1.955,0,0,1-1.955,1.955h-14.54a1.955,1.955,0,0,1-1.955-1.955h0v-14.534a1.957,1.957,0,0,1,1.955-1.957h14.54a1.957,1.957,0,0,1,1.955,1.957Z" fill="none" stroke="#9e181a" stroke-linecap="round" stroke-linejoin="round" stroke-width="1"/>
    <path id="Path_2465" data-name="Path 2465" d="M-5538.559,7796.546a8.3,8.3,0,0,1-8.3,8.3,8.3,8.3,0,0,1-8.3-8.3,8.3,8.3,0,0,1,8.3-8.3h0A8.3,8.3,0,0,1-5538.559,7796.546Z" fill="none" stroke="#121947" stroke-linecap="round" stroke-linejoin="round" stroke-width="1"/>
    <path id="Path_2466" data-name="Path 2466" d="M-5538.559,7796.546a8.3,8.3,0,0,1-8.3,8.3,8.3,8.3,0,0,1-8.3-8.3,8.3,8.3,0,0,1,8.3-8.3h0A8.3,8.3,0,0,1-5538.559,7796.546Z" fill="none" stroke="#9e181a" stroke-linecap="round" stroke-linejoin="round" stroke-width="1"/>
    <path id="Path_2467" data-name="Path 2467" d="M-5530.664,7778.182a1.955,1.955,0,0,1-1.957-1.953,1.961,1.961,0,0,1,.267-.988l6.866-11.77a1.957,1.957,0,0,1,2.676-.705,1.952,1.952,0,0,1,.705.705l6.863,11.77a1.953,1.953,0,0,1-.7,2.673,1.963,1.963,0,0,1-.991.268Z" fill="none" stroke="#9e181a" stroke-linecap="round" stroke-linejoin="round" stroke-width="1"/>
    <path id="Path_2468" data-name="Path 2468" d="M-5579.141,7773.681a.98.98,0,0,1,.98.98.98.98,0,0,1-.98.98.98.98,0,0,1-.98-.98h0a.979.979,0,0,1,.979-.979Z" fill="none" stroke="#121947" stroke-linecap="round" stroke-linejoin="round" stroke-width="1"/>
  </g>
</svg>
