<svg xmlns="http://www.w3.org/2000/svg" width="97.567" height="106.028" viewBox="0 0 97.567 106.028">
  <g id="Group_3426" data-name="Group 3426" transform="translate(0.512 0.494)">
    <path id="Path_1054" data-name="Path 1054" d="M106.092,204.834a33.358,33.358,0,0,1-5.325,2.8c-23.173,9.625-29.142-10.606-52.315-.982a38.182,38.182,0,0,0-11.444,7.6" transform="translate(-24.486 -194.303)" fill="none" stroke="#121947" stroke-linecap="round" stroke-linejoin="round" stroke-width="1"/>
    <path id="Path_1055" data-name="Path 1055" d="M107.962,209.34a33.118,33.118,0,0,1-5.325,2.8c-23.173,9.625-29.142-10.606-52.312-.982a38.2,38.2,0,0,0-11.447,7.6" transform="translate(-21.186 -186.356)" fill="none" stroke="#121947" stroke-linecap="round" stroke-linejoin="round" stroke-width="1"/>
    <path id="Path_1056" data-name="Path 1056" d="M109.83,213.842a33.094,33.094,0,0,1-5.322,2.8c-23.173,9.625-29.142-10.606-52.315-.979a38.13,38.13,0,0,0-11.444,7.6" transform="translate(-17.884 -178.408)" fill="none" stroke="#121947" stroke-linecap="round" stroke-linejoin="round" stroke-width="1"/>
    <line id="Line_98" data-name="Line 98" x2="19.538" y2="47.036" transform="translate(19.943 2.67)" fill="none" stroke="#121947" stroke-linecap="round" stroke-linejoin="round" stroke-width="1"/>
    <line id="Line_99" data-name="Line 99" x2="18.963" y2="45.652" transform="translate(33.543 0.265)" fill="none" stroke="#121947" stroke-linecap="round" stroke-linejoin="round" stroke-width="1"/>
    <line id="Line_100" data-name="Line 100" x2="18.963" y2="45.653" transform="translate(50.016 4.777)" fill="none" stroke="#121947" stroke-linecap="round" stroke-linejoin="round" stroke-width="1"/>
    <line id="Line_101" data-name="Line 101" x2="18.963" y2="45.652" transform="translate(65.34 6.523)" fill="none" stroke="#121947" stroke-linecap="round" stroke-linejoin="round" stroke-width="1"/>
    <path id="Path_1057" data-name="Path 1057" d="M105.729,203.965a2.5,2.5,0,0,0-3.511-1.233,29.033,29.033,0,0,1-2.906,1.4c-23.173,9.625-29.142-10.6-52.315-.979a38.131,38.131,0,0,0-11.444,7.6L55.09,257.786a38.163,38.163,0,0,1,11.444-7.6c23.173-9.627,29.142,10.6,52.315.979a29.488,29.488,0,0,0,3.428-1.7,2.491,2.491,0,0,0,1.059-3.119Z" transform="translate(-27.054 -200.484)" fill="none" stroke="#121947" stroke-linecap="round" stroke-linejoin="round" stroke-width="1"/>
    <path id="Path_1068" data-name="Path 1068" d="M78.185,297.232a3.746,3.746,0,0,1-6.918,2.876l-38.5-92.691a3.745,3.745,0,0,1,6.918-2.873Z" transform="translate(-32.479 -197.394)" fill="none" stroke="#121947" stroke-linecap="round" stroke-linejoin="round" stroke-width="1"/>
  </g>
</svg>
