<svg xmlns="http://www.w3.org/2000/svg" width="109.975" height="93.778" viewBox="0 0 109.975 93.778">
  <g id="Group_3014" data-name="Group 3014" transform="translate(5444.545 -7983.5)">
    <g id="Group_1089" data-name="Group 1089">
      <g id="Group_1088" data-name="Group 1088">
        <g id="Group_1085" data-name="Group 1085">
          <g id="Group_1083" data-name="Group 1083">
            <path id="Path_1020" data-name="Path 1020" d="M-5404.15,8010.913l4.558-23.383a1.878,1.878,0,0,1,2.2-1.486l6.034,1.167" fill="none" stroke="#121947" stroke-linecap="round" stroke-linejoin="round" stroke-width="1"/>
            <path id="Path_1021" data-name="Path 1021" d="M-5387.023,8057.167l-23.364-4.558a1.884,1.884,0,0,1-1.206-.793,1.959,1.959,0,0,1-.282-1.413l.489-2.542" fill="none" stroke="#121947" stroke-linecap="round" stroke-linejoin="round" stroke-width="1"/>
            <path id="Path_1022" data-name="Path 1022" d="M-5360.363,8058l-.472,2.374a1.882,1.882,0,0,1-2.2,1.489l-.924-.19.961-2.542Z" fill="none" stroke="#121947" stroke-linecap="round" stroke-linejoin="round" stroke-width="1"/>
            <path id="Path_1024" data-name="Path 1024" d="M-5350.716,8007.6l-1.075,2.807a1.863,1.863,0,0,1-2.393,1.106l-.037-.014-32.408-12.284a1.863,1.863,0,0,1-1.106-2.393l.014-.037,1.056-2.807a1.947,1.947,0,0,1,1-1.056,1.893,1.893,0,0,1,1.433-.056l32.424,12.3a1.847,1.847,0,0,1,1.056.978A1.946,1.946,0,0,1-5350.716,8007.6Z" fill="none" stroke="#121947" stroke-linecap="round" stroke-linejoin="round" stroke-width="1"/>
            <path id="Path_1025" data-name="Path 1025" d="M-5367.938,7991.789l17.9,3.5a1.884,1.884,0,0,1,1.487,2.2l-.3,1.545" fill="none" stroke="#121947" stroke-linecap="round" stroke-linejoin="round" stroke-width="1"/>
            <path id="Path_1027" data-name="Path 1027" d="M-5379.165,8058.712l16.691-7.2a1.933,1.933,0,0,1,1.452-.017,1.805,1.805,0,0,1,.715.525l2.279-6.008,16.054-42.356a1.865,1.865,0,0,0-1.064-2.415l-.031-.012-5.782-2.187-19.087-7.254-20.235-7.667a1.89,1.89,0,0,0-1.433.056,1.849,1.849,0,0,0-1,1.036l-.754,2-11.133,29.389,4.994,17.183.131.452a3.769,3.769,0,0,1-2.561,4.673h0l-10.289,3-2.089.6-1,2.617a1.884,1.884,0,0,0,1.092,2.413l.829.321,24.456,9.27.212.082m0,0,.129.049,7.424,1.45" fill="none" stroke="#121947" stroke-linecap="round" stroke-linejoin="round" stroke-width="1"/>
            <path id="Path_1029" data-name="Path 1029" d="M-5363,8059.129l-.961,2.542-.715,1.885a1.866,1.866,0,0,1-.98,1.056,2.023,2.023,0,0,1-1.45.036l-4.617-1.751" fill="none" stroke="#121947" stroke-linecap="round" stroke-linejoin="round" stroke-width="1"/>
            <line id="Line_71" data-name="Line 71" x1="0.802" y2="2.114" transform="translate(-5355.657 8018.513)" fill="none" stroke="#121947" stroke-linecap="round" stroke-linejoin="round" stroke-width="1"/>
            <line id="Line_72" data-name="Line 72" x1="0.802" y2="2.114" transform="translate(-5359.885 8016.911)" fill="none" stroke="#121947" stroke-linecap="round" stroke-linejoin="round" stroke-width="1"/>
            <line id="Line_73" data-name="Line 73" x1="0.802" y2="2.115" transform="translate(-5364.114 8015.308)" fill="none" stroke="#121947" stroke-linecap="round" stroke-linejoin="round" stroke-width="1"/>
            <line id="Line_74" data-name="Line 74" x1="0.802" y2="2.115" transform="translate(-5368.342 8013.705)" fill="none" stroke="#121947" stroke-linecap="round" stroke-linejoin="round" stroke-width="1"/>
            <line id="Line_75" data-name="Line 75" x1="0.8" y2="2.114" transform="translate(-5358.06 8024.856)" fill="none" stroke="#121947" stroke-linecap="round" stroke-linejoin="round" stroke-width="1"/>
            <line id="Line_76" data-name="Line 76" x1="0.8" y2="2.115" transform="translate(-5362.289 8023.253)" fill="none" stroke="#121947" stroke-linecap="round" stroke-linejoin="round" stroke-width="1"/>
            <line id="Line_77" data-name="Line 77" x1="0.8" y2="2.115" transform="translate(-5366.517 8021.65)" fill="none" stroke="#121947" stroke-linecap="round" stroke-linejoin="round" stroke-width="1"/>
            <line id="Line_78" data-name="Line 78" x1="0.8" y2="2.115" transform="translate(-5360.465 8031.198)" fill="none" stroke="#121947" stroke-linecap="round" stroke-linejoin="round" stroke-width="1"/>
            <line id="Line_79" data-name="Line 79" x1="0.8" y2="2.115" transform="translate(-5364.693 8029.595)" fill="none" stroke="#121947" stroke-linecap="round" stroke-linejoin="round" stroke-width="1"/>
            <line id="Line_80" data-name="Line 80" x1="0.8" y2="2.114" transform="translate(-5368.922 8027.992)" fill="none" stroke="#121947" stroke-linecap="round" stroke-linejoin="round" stroke-width="1"/>
            <line id="Line_81" data-name="Line 81" x1="0.8" y2="2.114" transform="translate(-5373.15 8026.39)" fill="none" stroke="#121947" stroke-linecap="round" stroke-linejoin="round" stroke-width="1"/>
            <line id="Line_82" data-name="Line 82" x2="16.913" y2="6.41" transform="translate(-5391.597 8007.004)" fill="none" stroke="#121947" stroke-linecap="round" stroke-linejoin="round" stroke-width="1"/>
            <line id="Line_83" data-name="Line 83" x2="12.685" y2="4.807" transform="translate(-5394.002 8013.347)" fill="none" stroke="#121947" stroke-linecap="round" stroke-linejoin="round" stroke-width="1"/>
            <line id="Line_84" data-name="Line 84" x2="14.799" y2="5.61" transform="translate(-5396.405 8019.689)" fill="none" stroke="#121947" stroke-linecap="round" stroke-linejoin="round" stroke-width="1"/>
            <line id="Line_85" data-name="Line 85" x1="0.802" y2="2.115" transform="translate(-5362.87 8037.54)" fill="none" stroke="#121947" stroke-linecap="round" stroke-linejoin="round" stroke-width="1"/>
            <line id="Line_86" data-name="Line 86" x1="0.802" y2="2.115" transform="translate(-5367.098 8035.937)" fill="none" stroke="#121947" stroke-linecap="round" stroke-linejoin="round" stroke-width="1"/>
            <line id="Line_87" data-name="Line 87" x1="0.802" y2="2.114" transform="translate(-5371.326 8034.335)" fill="none" stroke="#121947" stroke-linecap="round" stroke-linejoin="round" stroke-width="1"/>
            <line id="Line_88" data-name="Line 88" x1="0.802" y2="2.114" transform="translate(-5375.555 8032.732)" fill="none" stroke="#121947" stroke-linecap="round" stroke-linejoin="round" stroke-width="1"/>
            <line id="Line_89" data-name="Line 89" x1="0.802" y2="2.114" transform="translate(-5379.783 8031.13)" fill="none" stroke="#121947" stroke-linecap="round" stroke-linejoin="round" stroke-width="1"/>
            <line id="Line_90" data-name="Line 90" x2="8.456" y2="3.206" transform="translate(-5398.81 8026.031)" fill="none" stroke="#121947" stroke-linecap="round" stroke-linejoin="round" stroke-width="1"/>
            <line id="Line_91" data-name="Line 91" x1="0.8" y2="2.115" transform="translate(-5365.273 8043.883)" fill="none" stroke="#121947" stroke-linecap="round" stroke-linejoin="round" stroke-width="1"/>
            <line id="Line_92" data-name="Line 92" x1="0.8" y2="2.115" transform="translate(-5369.501 8042.28)" fill="none" stroke="#121947" stroke-linecap="round" stroke-linejoin="round" stroke-width="1"/>
            <line id="Line_93" data-name="Line 93" x1="17.428" y1="6.594" transform="translate(-5397.5 8033.786)" fill="none" stroke="#121947" stroke-linecap="round" stroke-linejoin="round" stroke-width="1"/>
            <g id="Group_1082" data-name="Group 1082">
              <path id="Path_1032" data-name="Path 1032" d="M-5385.938,8052.673a3.392,3.392,0,0,1-1.97-4.374,3.393,3.393,0,0,1,4.374-1.97,3.392,3.392,0,0,1,1.97,4.374" fill="none" stroke="#121947" stroke-linecap="round" stroke-linejoin="round" stroke-width="1"/>
              <path id="Path_1033" data-name="Path 1033" d="M-5381.966,8051.761a3.388,3.388,0,0,1,4.37-1.971h0" fill="none" stroke="#121947" stroke-linecap="round" stroke-linejoin="round" stroke-width="1"/>
              <path id="Path_1034" data-name="Path 1034" d="M-5376.68,8053.764a3.392,3.392,0,0,1,4.374-1.968" fill="none" stroke="#121947" stroke-linecap="round" stroke-linejoin="round" stroke-width="1"/>
            </g>
          </g>
          <g id="Group_1084" data-name="Group 1084">
            <path id="Path_1035" data-name="Path 1035" d="M-5397.367,8034.238l-.131-.452-4.994-17.183-1.656-5.689-5.013-17.2a3.739,3.739,0,0,0-4.621-2.57l-.032.009-27.508,7.988a3.768,3.768,0,0,0-2.561,4.673h0l11.775,40.527a3.769,3.769,0,0,0,4.673,2.564l15.13-4.391,2.089-.6,10.289-3a3.768,3.768,0,0,0,2.561-4.673Zm-39.965-24.1-1.487-5.048a1.88,1.88,0,0,1,1.271-2.335l.011,0,22.439-6.538a1.891,1.891,0,0,1,2.338,1.282l1.469,5.069a1.872,1.872,0,0,1-1.258,2.328l-.024.007-22.439,6.52a1.852,1.852,0,0,1-2.308-1.241Zm33.6,25.152-4.7,1.378-.81.226-1.073.319-4.636,1.357-6.519,1.883-4.692,1.377a1.878,1.878,0,0,1-2.332-1.271l0-.011-1.374-4.709-1.9-6.519-1.883-6.5-1.378-4.711a1.886,1.886,0,0,1,1.282-2.335l4.709-1.377,6.519-1.885,6.5-1.883v-.019l4.709-1.357a1.879,1.879,0,0,1,2.334,1.268l0,.014,1.355,4.692h.019l1.545,5.351v.017l.341,1.151.545,1.883,2.715,9.328a1.872,1.872,0,0,1-1.259,2.328Z" fill="none" stroke="#121947" stroke-linecap="round" stroke-linejoin="round" stroke-width="1"/>
            <path id="Path_1036" data-name="Path 1036" d="M-5412.573,8004.9l-22.44,6.52a1.852,1.852,0,0,1-2.307-1.243l-.011-.039-1.489-5.047a1.88,1.88,0,0,1,1.271-2.335l.011,0,22.436-6.539a1.89,1.89,0,0,1,2.338,1.282l1.469,5.069a1.872,1.872,0,0,1-1.257,2.329Z" fill="none" stroke="#121947" stroke-linecap="round" stroke-linejoin="round" stroke-width="1"/>
            <path id="Path_1037" data-name="Path 1037" d="M-5408.881,8035.106l.452,1.564-.81.226-1.073.319-4.636,1.357-6.519,1.883-4.692,1.377a1.878,1.878,0,0,1-2.332-1.271l0-.011-1.378-4.709-1.9-6.519-1.883-6.5-1.377-4.709a1.888,1.888,0,0,1,1.282-2.338l4.709-1.374,6.519-1.885,6.5-1.883v-.019l4.709-1.357a1.879,1.879,0,0,1,2.334,1.268l0,.014,1.355,4.692h.019l1.545,5.351v.015l.341,1.151-.6.17-5.916,1.712v.019l1.9,6.5,1.168,4.011" fill="none" stroke="#121947" stroke-linecap="round" stroke-linejoin="round" stroke-width="1"/>
            <line id="Line_94" data-name="Line 94" x2="7.575" y2="26.052" transform="translate(-5429.037 8014.404)" fill="none" stroke="#121947" stroke-linecap="round" stroke-linejoin="round" stroke-width="1"/>
            <line id="Line_95" data-name="Line 95" x2="7.577" y2="26.052" transform="translate(-5422.525 8012.511)" fill="none" stroke="#121947" stroke-linecap="round" stroke-linejoin="round" stroke-width="1"/>
            <path id="Path_1040" data-name="Path 1040" d="M-5416.02,8010.63l1.9,6.5,1.884,6.5" fill="none" stroke="#121947" stroke-linecap="round" stroke-linejoin="round" stroke-width="1"/>
            <line id="Line_96" data-name="Line 96" x1="0.283" y1="0.942" transform="translate(-5409.162 8034.163)" fill="none" stroke="#121947" stroke-linecap="round" stroke-linejoin="round" stroke-width="1"/>
            <path id="Path_1041" data-name="Path 1041" d="M-5407.619,8015.228l-6.5,1.9-6.519,1.9-6.5,1.884-6.519,1.9" fill="none" stroke="#121947" stroke-linecap="round" stroke-linejoin="round" stroke-width="1"/>
            <path id="Path_1042" data-name="Path 1042" d="M-5412.233,8023.649l-6.5,1.884-6.52,1.887-6.519,1.9" fill="none" stroke="#121947" stroke-linecap="round" stroke-linejoin="round" stroke-width="1"/>
            <line id="Line_97" data-name="Line 97" y1="5.681" x2="19.538" transform="translate(-5429.868 8030.156)" fill="none" stroke="#121947" stroke-linecap="round" stroke-linejoin="round" stroke-width="1"/>
            <path id="Path_1043" data-name="Path 1043" d="M-5412.573,8004.9l-22.44,6.52a1.852,1.852,0,0,1-2.307-1.243l-.011-.039-1.489-5.047a1.88,1.88,0,0,1,1.271-2.335l.011,0,22.436-6.539a1.89,1.89,0,0,1,2.338,1.282l1.469,5.069a1.872,1.872,0,0,1-1.257,2.329Z" fill="none" stroke="#121947" stroke-linecap="round" stroke-linejoin="round" stroke-width="1"/>
          </g>
        </g>
        <g id="Group_1087" data-name="Group 1087">
          <g id="Group_1086" data-name="Group 1086">
            <path id="Path_1044" data-name="Path 1044" d="M-5393.963,8065.086a4.521,4.521,0,0,1,2.364-5.942l12.459-5.368" fill="none" stroke="#121947" stroke-linecap="round" stroke-linejoin="round" stroke-width="1"/>
            <path id="Path_1045" data-name="Path 1045" d="M-5351.074,8050.348s-2.131,4.617-3.846,5.351a3.415,3.415,0,0,1-4.464-1.754v-.036l-.019-.036a1.845,1.845,0,0,1-.1-.3v-.019a3.3,3.3,0,0,1,.6-3.089,3.067,3.067,0,0,1,1.282-1C-5355.88,8048.728-5351.074,8050.348-5351.074,8050.348Z" fill="none" stroke="#121947" stroke-linecap="round" stroke-linejoin="round" stroke-width="1"/>
            <path id="Path_1046" data-name="Path 1046" d="M-5359.8,8057.752l-.564.246-2.639,1.131-4.371,1.883-4.354,1.885-9.175,3.938-2.676-6.217,2.732-1.187,1.678-.718,16.691-7.2a1.933,1.933,0,0,1,1.452-.017,1.805,1.805,0,0,1,.715.525,1.585,1.585,0,0,1,.3.472l.489,1.131.114.246.019.036v.036l.584,1.321A1.9,1.9,0,0,1-5359.8,8057.752Z" fill="none" stroke="#121947" stroke-linecap="round" stroke-linejoin="round" stroke-width="1"/>
            <path id="Path_1047" data-name="Path 1047" d="M-5380.9,8066.834l-10.382,4.483a2.272,2.272,0,0,1-2.977-1.187l-.885-2.072a2.272,2.272,0,0,1,1.187-2.977l10.382-4.464Z" fill="none" stroke="#121947" stroke-linecap="round" stroke-linejoin="round" stroke-width="1"/>
          </g>
        </g>
      </g>
    </g>
    <g id="Group_1094" data-name="Group 1094">
      <g id="Group_1093" data-name="Group 1093">
        <g id="Group_1090" data-name="Group 1090">
          <path id="Path_1048" data-name="Path 1048" d="M-5400.667,8067.7a1.865,1.865,0,0,1-.884,2.485,1.873,1.873,0,0,1-.269.1,47.079,47.079,0,0,0-12.948,6.159,1.868,1.868,0,0,1-2.595-.5,1.94,1.94,0,0,1-.139-.243l-.645-1.357-1.737-3.651a1.861,1.861,0,0,1,.615-2.328,47.031,47.031,0,0,1,14.023-6.67,1.867,1.867,0,0,1,2.2.99l1.731,3.651Z" fill="none" stroke="#121947" stroke-linecap="round" stroke-linejoin="round" stroke-width="1"/>
          <path id="Path_1049" data-name="Path 1049" d="M-5408.847,8067.868a1.864,1.864,0,0,0-2.484-.883,1.865,1.865,0,0,0-.883,2.484,1.864,1.864,0,0,0,2.484.883,1.863,1.863,0,0,0,.884-2.482Z" fill="none" stroke="#121947" stroke-linecap="round" stroke-linejoin="round" stroke-width="1"/>
        </g>
        <g id="Group_1091" data-name="Group 1091">
          <path id="Path_1050" data-name="Path 1050" d="M-5344.618,8046.786a1.863,1.863,0,0,0,2.5-.824,1.853,1.853,0,0,0,.11-.268,47.11,47.11,0,0,1,6.458-12.8,1.869,1.869,0,0,0-.44-2.606,1.869,1.869,0,0,0-.239-.145l-1.34-.676-3.612-1.819a1.856,1.856,0,0,0-2.338.562,46.877,46.877,0,0,0-6.993,13.865,1.861,1.861,0,0,0,.939,2.216l3.61,1.822Z" fill="none" stroke="#121947" stroke-linecap="round" stroke-linejoin="round" stroke-width="1"/>
          <path id="Path_1051" data-name="Path 1051" d="M-5344.268,8038.611a1.863,1.863,0,0,1-.828-2.5,1.864,1.864,0,0,1,2.5-.828,1.863,1.863,0,0,1,.827,2.5v0a1.861,1.861,0,0,1-2.5.826Z" fill="none" stroke="#121947" stroke-linecap="round" stroke-linejoin="round" stroke-width="1"/>
        </g>
        <g id="Group_1092" data-name="Group 1092">
          <path id="Path_1052" data-name="Path 1052" d="M-5421.675,8051.149a1.866,1.866,0,0,0-2.635-.143,1.84,1.84,0,0,0-.2.2,46.5,46.5,0,0,1-4.979,5.188,46.658,46.658,0,0,1-5.711,4.369,1.867,1.867,0,0,0-.548,2.582,1.942,1.942,0,0,0,.173.225l1,1.121,2.7,3.014a1.863,1.863,0,0,0,2.384.331,46.993,46.993,0,0,0,11.578-10.348,1.866,1.866,0,0,0-.063-2.408l-2.7-3.011Z" fill="none" stroke="#121947" stroke-linecap="round" stroke-linejoin="round" stroke-width="1"/>
          <path id="Path_1053" data-name="Path 1053" d="M-5424.991,8058.632a1.867,1.867,0,0,1-.144,2.634,1.866,1.866,0,0,1-2.634-.144,1.866,1.866,0,0,1,.144-2.634l0,0A1.864,1.864,0,0,1-5424.991,8058.632Z" fill="none" stroke="#121947" stroke-linecap="round" stroke-linejoin="round" stroke-width="1"/>
        </g>
      </g>
    </g>
  </g>
</svg>
