<svg xmlns="http://www.w3.org/2000/svg" width="19.747" height="19.191" viewBox="0 0 19.747 19.191">
  <g id="Solutions" transform="translate(-380.755 -2830.691)">
    <path id="Path_257" data-name="Path 257" d="M28.138,189.246a1.208,1.208,0,0,1,1.1.195v-2.7h1.973a.489.489,0,0,1,.37.172.478.478,0,0,1,.113.39,1.264,1.264,0,0,0,.044.535,1.2,1.2,0,0,0,.855.821,1.223,1.223,0,0,0,1.536-1.181,1.145,1.145,0,0,0-.015-.175.488.488,0,0,1,.113-.39.5.5,0,0,1,.372-.172h1.484a.491.491,0,0,1,.489.492v2.206a1.219,1.219,0,0,1,1.917.66,1.224,1.224,0,0,1-1.184,1.533,1.21,1.21,0,0,1-.733-.247v2.206a.488.488,0,0,1-.489.489H29.235v-2.694a1.221,1.221,0,0,1-1.917-1.286A1.2,1.2,0,0,1,28.138,189.246Z" transform="translate(359.358 2655.299)" fill="none" stroke="#9e181a" stroke-linecap="round" stroke-linejoin="round" stroke-width="1"/>
    <path id="Path_258" data-name="Path 258" d="M33.168,188.027a1.215,1.215,0,0,1,.658-1.915,1.218,1.218,0,0,1,1.286,1.915h2.7v2.7a1.219,1.219,0,0,0-1.917.66,1.221,1.221,0,0,0,1.917,1.286v2.694H30.96a.488.488,0,0,1-.489-.489v-6.849Z" transform="translate(350.784 2654.016)" fill="none" stroke="#9e181a" stroke-linecap="round" stroke-linejoin="round" stroke-width="1"/>
    <path id="Path_259" data-name="Path 259" d="M29.243,191.352a.5.5,0,0,1-.055-.4.491.491,0,0,1,.268-.306,1.252,1.252,0,0,0,.431-.323,1.208,1.208,0,0,0,.233-1.164,1.224,1.224,0,0,0-1.821-.661,1.243,1.243,0,0,0-.14.1.49.49,0,0,1-.733-.108l-.8-1.254a.487.487,0,0,1,.151-.675l1.862-1.184a1.221,1.221,0,0,1-.474-1.973,1.22,1.22,0,0,1,2.115.928l1.862-1.184a.492.492,0,0,1,.675.151l.8,1.251a.5.5,0,0,1,.055.4.487.487,0,0,1-.271.306,1.243,1.243,0,0,0-.428.323,1.223,1.223,0,0,0,1.589,1.824,1.245,1.245,0,0,0,.14-.1.488.488,0,0,1,.39-.113.494.494,0,0,1,.343.221l.794,1.254a.489.489,0,0,1-.148.675l-1.862,1.184a1.219,1.219,0,0,1,.471,1.973,1.219,1.219,0,0,1-2.112-.928l-1.862,1.184a.49.49,0,0,1-.675-.151Z" transform="translate(363.694 2648.177)" fill="none" stroke="#9e181a" stroke-linecap="round" stroke-linejoin="round" stroke-width="1"/>
    <path id="Path_260" data-name="Path 260" d="M31.771,184.223a.488.488,0,0,1,.486.562,1.222,1.222,0,1,0,2.432.172,1.11,1.11,0,0,0-.012-.172.492.492,0,0,1,.113-.393.487.487,0,0,1,.37-.169h1.487a.49.49,0,0,1,.489.489v2.206a1.22,1.22,0,0,1,1.917.661,1.226,1.226,0,0,1-1.184,1.536,1.212,1.212,0,0,1-.733-.25v2.694h-2.7a1.22,1.22,0,1,0-2.194-.733,1.194,1.194,0,0,0,.25.733H29.8v-6.846a.488.488,0,0,1,.489-.489Z" transform="translate(351.456 2650.485)" fill="none" stroke="#9e181a" stroke-linecap="round" stroke-linejoin="round" stroke-width="1"/>
  </g>
</svg>
