<svg xmlns="http://www.w3.org/2000/svg" width="68.125" height="65.249" viewBox="0 0 68.125 65.249">
  <g id="Group_182" data-name="Group 182" transform="translate(5262.134 -7909.768)">
    <path id="Path_172" data-name="Path 172" d="M-5214.5,7951.809h3.27" fill="none" stroke="#9e181a" stroke-linecap="round" stroke-linejoin="round" stroke-width="1"/>
    <path id="Path_173" data-name="Path 173" d="M-5204.521,7945.1v-15.792a1.731,1.731,0,0,0-1.731-1.731h-15.866a1.444,1.444,0,0,1-1.443-1.443V7912a1.731,1.731,0,0,0-1.728-1.731h-32.886a3.46,3.46,0,0,0-3.459,3.461h0v34.614a3.46,3.46,0,0,0,3.458,3.462h25.1" fill="none" stroke="#9e181a" stroke-linecap="round" stroke-linejoin="round" stroke-width="1"/>
    <line id="Line_22" data-name="Line 22" x2="19.037" transform="translate(-5223.559 7913.73)" fill="none" stroke="#9e181a" stroke-linecap="round" stroke-linejoin="round" stroke-width="1"/>
    <line id="Line_23" data-name="Line 23" x2="19.037" transform="translate(-5223.559 7920.654)" fill="none" stroke="#9e181a" stroke-linecap="round" stroke-linejoin="round" stroke-width="1"/>
    <line id="Line_24" data-name="Line 24" y2="17.307" transform="translate(-5216.637 7910.27)" fill="none" stroke="#9e181a" stroke-linecap="round" stroke-linejoin="round" stroke-width="1"/>
    <line id="Line_25" data-name="Line 25" y2="17.307" transform="translate(-5209.715 7910.27)" fill="none" stroke="#9e181a" stroke-linecap="round" stroke-linejoin="round" stroke-width="1"/>
    <path id="Path_174" data-name="Path 174" d="M-5261.634,7918.923h38.073" fill="none" stroke="#9e181a" stroke-linecap="round" stroke-linejoin="round" stroke-width="1"/>
    <path id="Path_175" data-name="Path 175" d="M-5252.981,7914.6a1.731,1.731,0,0,1-1.731,1.731,1.731,1.731,0,0,1-1.731-1.731,1.731,1.731,0,0,1,1.731-1.731,1.731,1.731,0,0,1,1.731,1.731Z" fill="none" stroke="#9e181a" stroke-linecap="round" stroke-linejoin="round" stroke-width="1"/>
    <path id="Path_176" data-name="Path 176" d="M-5245.193,7914.6a1.731,1.731,0,0,1-1.731,1.731,1.731,1.731,0,0,1-1.731-1.731,1.731,1.731,0,0,1,1.731-1.731A1.733,1.733,0,0,1-5245.193,7914.6Z" fill="none" stroke="#9e181a" stroke-linecap="round" stroke-linejoin="round" stroke-width="1"/>
    <path id="Path_177" data-name="Path 177" d="M-5238.271,7914.6a1.73,1.73,0,0,1-1.731,1.729,1.73,1.73,0,0,1-1.729-1.731,1.731,1.731,0,0,1,1.729-1.729,1.731,1.731,0,0,1,1.731,1.731Z" fill="none" stroke="#9e181a" stroke-linecap="round" stroke-linejoin="round" stroke-width="1"/>
    <path id="Path_178" data-name="Path 178" d="M-5216.535,7957.112l-6.2-6.2,3.671-3.671,6.2,6.2" fill="none" stroke="#121947" stroke-linecap="round" stroke-linejoin="round" stroke-width="1"/>
    <path id="Path_179" data-name="Path 179" d="M-5207.967,7958.335l10.322,10.325a2.6,2.6,0,0,1-.252,3.669,2.6,2.6,0,0,1-3.419,0l-10.325-10.32" fill="none" stroke="#121947" stroke-linecap="round" stroke-linejoin="round" stroke-width="1"/>
    <path id="Path_180" data-name="Path 180" d="M-5218.856,7945a1.443,1.443,0,0,1,0,2.04l0,0-4.08,4.074a1.444,1.444,0,0,1-2.039,0l-5.3-5.3a1.444,1.444,0,0,1,0-2.039l4.081-4.078a1.438,1.438,0,0,1,2.035,0l0,0Z" fill="none" stroke="#121947" stroke-linecap="round" stroke-linejoin="round" stroke-width="1"/>
    <path id="Path_181" data-name="Path 181" d="M-5230.073,7946.02a9.517,9.517,0,0,0,0,13.458l0,0a.581.581,0,0,0,.658.121.591.591,0,0,0,.344-.573,11.231,11.231,0,0,1,3.279-8.726Z" fill="none" stroke="#121947" stroke-linecap="round" stroke-linejoin="round" stroke-width="1"/>
    <path id="Path_182" data-name="Path 182" d="M-5221.508,7935.006a7.72,7.72,0,0,1-2.206,4.654l-.243.24,4.284,4.287.243-.243a7.729,7.729,0,0,1,4.651-2.206Z" fill="none" stroke="#121947" stroke-linecap="round" stroke-linejoin="round" stroke-width="1"/>
    <path id="Path_183" data-name="Path 183" d="M-5211.514,7937.658a1.447,1.447,0,0,1,0,2.042l-1.632,1.629a1.438,1.438,0,0,1-2.035,0l0,0-6.526-6.526a1.439,1.439,0,0,1,0-2.035l0,0,1.632-1.632a1.439,1.439,0,0,1,2.035,0l0,0Z" fill="none" stroke="#121947" stroke-linecap="round" stroke-linejoin="round" stroke-width="1"/>
    <path id="Path_184" data-name="Path 184" d="M-5225.171,7965.751l-2.448,7.342,7.343-2.448Z" fill="none" stroke="#121947" stroke-linecap="round" stroke-linejoin="round" stroke-width="1"/>
    <rect id="Rectangle_35" data-name="Rectangle 35" width="31.147" height="6.922" transform="translate(-5225.168 7965.742) rotate(-45)" stroke-width="1" stroke="#121947" stroke-linecap="round" stroke-linejoin="round" fill="none"/>
    <path id="Path_185" data-name="Path 185" d="M-5198.249,7948.618l-4.894-4.9,2.448-2.446a3.462,3.462,0,0,1,4.894-.076,3.46,3.46,0,0,1,.076,4.894c-.025.026-.05.051-.076.076Z" fill="none" stroke="#121947" stroke-linecap="round" stroke-linejoin="round" stroke-width="1"/>
    <line id="Line_26" data-name="Line 26" y1="1.325" x2="1.325" transform="translate(-5228.887 7972.984)" fill="none" stroke="#121947" stroke-linecap="round" stroke-linejoin="round" stroke-width="1"/>
  </g>
</svg>
