<svg xmlns="http://www.w3.org/2000/svg" viewBox="0 0 251.06 53.18"><defs><style>.cls-1{fill:none;stroke:#af2a24;stroke-miterlimit:10;stroke-width:1.06px;}</style></defs><title>Asset 7</title><g id="Layer_2" data-name="Layer 2"><g id="Layer_7" data-name="Layer 7"><path class="cls-1" d="M7.18,26a11.11,11.11,0,0,1,3-1.85,10.15,10.15,0,0,1,4.1-.86,8.8,8.8,0,0,1,4.1.89,8.16,8.16,0,0,1,2.84,2.47,11.38,11.38,0,0,1,1.6,3.78,21.23,21.23,0,0,1,.52,4.68c0,3.94-1,6.91-2.86,8.87S16,47,12.6,47A20,20,0,0,1,10,46.81a22.47,22.47,0,0,1-2.79-.53ZM7.18.62.53,1.69V50.87a45,45,0,0,0,5.23,1.19,41.21,41.21,0,0,0,7.43.59,18.61,18.61,0,0,0,6.89-1.23,15.18,15.18,0,0,0,5.31-3.48,16.2,16.2,0,0,0,3.39-5.52A20.79,20.79,0,0,0,30,35.15a23.38,23.38,0,0,0-1-7.1,16.5,16.5,0,0,0-2.91-5.5A13.24,13.24,0,0,0,21.41,19a14.67,14.67,0,0,0-6.25-1.3,15.1,15.1,0,0,0-4.73.72,17.77,17.77,0,0,0-3.25,1.39Zm46,38.31a30,30,0,0,0,.54,6,10.25,10.25,0,0,0,1.86,4.3,8.12,8.12,0,0,0,3.54,2.61,18.05,18.05,0,0,0,8.35.62c.9-.16,1.69-.35,2.43-.55s1.37-.45,1.94-.68l1.31-.59-.89-5.52a11.18,11.18,0,0,1-2.84,1.3,12.66,12.66,0,0,1-4,.59,5.14,5.14,0,0,1-4.22-1.71c-.92-1.15-1.39-3.41-1.39-6.77V17.65H42.74v5.68H53.19Zm5.28-28.35a5.15,5.15,0,0,0,1.38-3.81A5.16,5.16,0,0,0,58.47,3a4.69,4.69,0,0,0-6.72,0,5.1,5.1,0,0,0-1.41,3.79,5.09,5.09,0,0,0,1.41,3.81,4.76,4.76,0,0,0,6.72,0Zm56.89,7.07H88.74v5.68h18c-1.19,1.36-16.94,22.83-18,24.77v4.55h26.62V47H97.8c1.29-2.18,16.71-23.15,17.56-24.18Zm26.05,21.28a29.27,29.27,0,0,0,.54,6,10.11,10.11,0,0,0,1.85,4.3,8.09,8.09,0,0,0,3.55,2.61,18,18,0,0,0,8.34.62c.9-.16,1.69-.35,2.44-.55s1.36-.45,1.93-.68l1.31-.59-.9-5.52a10.93,10.93,0,0,1-2.83,1.3,12.62,12.62,0,0,1-4,.59,5.09,5.09,0,0,1-4.21-1.71c-.94-1.15-1.4-3.41-1.4-6.77V17.65H131v5.68h10.46Zm5.26-28.35a5.11,5.11,0,0,0,1.39-3.81A5.13,5.13,0,0,0,146.67,3a4.49,4.49,0,0,0-3.36-1.42A4.57,4.57,0,0,0,140,3a5.07,5.07,0,0,0-1.42,3.79A5.05,5.05,0,0,0,140,10.58,4.54,4.54,0,0,0,143.31,12,4.46,4.46,0,0,0,146.67,10.58Zm29.79,32.24a14.17,14.17,0,0,0,3.93,5.43,17.09,17.09,0,0,0,6.05,3.29,26.17,26.17,0,0,0,7.76,1.11,36.27,36.27,0,0,0,5.9-.45,24.87,24.87,0,0,0,5.37-1.5l-.91-5.62a19,19,0,0,1-4.82,1.56,30,30,0,0,1-4.61.33,20.05,20.05,0,0,1-5.48-.69,11.57,11.57,0,0,1-4.25-2.13,9.71,9.71,0,0,1-2.73-3.63,12.93,12.93,0,0,1-.95-5.27,13.21,13.21,0,0,1,1-5.46,10,10,0,0,1,2.77-3.7,11.29,11.29,0,0,1,4.08-2.1,18.1,18.1,0,0,1,5-.66,24.33,24.33,0,0,1,4.08.34,17.9,17.9,0,0,1,4.46,1.55l1.39-5.84A30.5,30.5,0,0,0,199.19,18a35.15,35.15,0,0,0-5-.37,25.86,25.86,0,0,0-7.43,1.05,16.92,16.92,0,0,0-6.07,3.21,15,15,0,0,0-4.12,5.46,19.19,19.19,0,0,0-1.48,7.85A19.05,19.05,0,0,0,176.46,42.82Zm64.84,1a8.54,8.54,0,0,1-7,3.17,8.31,8.31,0,0,1-6.89-3.17q-2.53-3.16-2.54-8.62t2.54-8.67a8.37,8.37,0,0,1,6.89-3.18,8.6,8.6,0,0,1,7,3.18c1.72,2.11,2.59,5,2.59,8.67S243,41.69,241.3,43.8Zm8-15.85a16.08,16.08,0,0,0-3.35-5.5,14.93,14.93,0,0,0-5.14-3.53,16.79,16.79,0,0,0-6.54-1.27,16.22,16.22,0,0,0-6.43,1.27,14.91,14.91,0,0,0-5.11,3.53,15.49,15.49,0,0,0-3.35,5.5,20.37,20.37,0,0,0-1.19,7.2,20.09,20.09,0,0,0,1.19,7.17,16.22,16.22,0,0,0,3.35,5.52,14.82,14.82,0,0,0,5.11,3.55,16.21,16.21,0,0,0,6.43,1.26,16.79,16.79,0,0,0,6.54-1.26A14.85,14.85,0,0,0,246,47.84a16.87,16.87,0,0,0,3.35-5.52,20.31,20.31,0,0,0,1.2-7.17A20.6,20.6,0,0,0,249.33,28Z"/></g></g></svg>