<?xml version="1.0" encoding="utf-8"?>
<!-- Generator: Adobe Illustrator 23.0.1, SVG Export Plug-In . SVG Version: 6.00 Build 0)  -->
<svg version="1.1" id="Layer_1" xmlns="http://www.w3.org/2000/svg" xmlns:xlink="http://www.w3.org/1999/xlink" x="0px" y="0px"
	 viewBox="0 0 31.5 55" style="enable-background:new 0 0 31.5 55;" xml:space="preserve">
<style type="text/css">
	.st0{fill:none;stroke:#AF2A24;stroke-width:1.06;stroke-miterlimit:10;}
</style>
<title>Asset 5</title>
<g>
	<g id="Layer_3">
		<path class="st0" d="M11,40.7c0,2,0.2,4,0.5,6c0.3,1.6,0.9,3,1.9,4.3c0.9,1.2,2.1,2.1,3.5,2.6c1.8,0.6,3.7,0.9,5.6,0.9
			c0.9,0,1.9-0.1,2.8-0.2c0.9-0.2,1.7-0.3,2.4-0.5s1.4-0.5,1.9-0.7s1-0.4,1.3-0.6l-0.9-5.6c-0.9,0.6-1.8,1-2.8,1.3
			c-1.3,0.4-2.6,0.6-4,0.6c-1.6,0.1-3.1-0.5-4.2-1.7c-0.9-1.2-1.4-3.4-1.4-6.8V19.4H0.5v5.7H11V40.7z M16.3,12.4
			c1-1,1.5-2.4,1.4-3.8c0.1-1.4-0.4-2.7-1.4-3.7C14.5,3,11.5,2.9,9.6,4.7c0,0-0.1,0.1-0.1,0.1c-1,1-1.5,2.3-1.4,3.7
			c-0.1,1.4,0.4,2.8,1.4,3.8c0.9,0.9,2.1,1.4,3.3,1.4C14.2,13.8,15.4,13.3,16.3,12.4z"/>
	</g>
</g>
</svg>
