<?xml version="1.0" encoding="utf-8"?>
<!-- Generator: Adobe Illustrator 23.0.1, SVG Export Plug-In . SVG Version: 6.00 Build 0)  -->
<svg version="1.1" id="Layer_1" xmlns="http://www.w3.org/2000/svg" xmlns:xlink="http://www.w3.org/1999/xlink" x="0px" y="0px"
	 viewBox="0 0 30.5 55" style="enable-background:new 0 0 30.5 55;" xml:space="preserve">
<style type="text/css">
	.st0{fill:none;stroke:#AF2A24;stroke-width:1.06;stroke-miterlimit:10;}
</style>
<title>Asset 6</title>
<g>
	<g id="Layer_2-2">
		<path class="st0" d="M7.2,27.8c0.9-0.8,1.9-1.4,3-1.9c1.3-0.6,2.7-0.9,4.1-0.9c1.4,0,2.8,0.3,4.1,0.9c1.1,0.6,2.1,1.4,2.8,2.5
			c0.8,1.2,1.3,2.4,1.6,3.8c0.3,1.5,0.5,3.1,0.5,4.7c0,3.9-1,6.9-2.9,8.9s-4.5,3-7.9,3c-0.9,0-1.7-0.1-2.6-0.2
			c-0.9-0.1-1.9-0.3-2.8-0.5L7.2,27.8z M7.2,2.4L0.5,3.5v49.2c1.7,0.5,3.5,0.9,5.2,1.2c2.5,0.4,4.9,0.6,7.4,0.6
			c2.4,0,4.7-0.4,6.9-1.2c2-0.8,3.8-2,5.3-3.5c1.5-1.6,2.6-3.5,3.4-5.5c0.8-2.3,1.2-4.8,1.2-7.3c0-2.4-0.3-4.8-1-7.1
			c-0.6-2-1.6-3.9-2.9-5.5c-1.3-1.5-2.9-2.7-4.7-3.6c-2-0.9-4.1-1.3-6.3-1.3c-1.6,0-3.2,0.2-4.7,0.7c-1.1,0.4-2.2,0.8-3.3,1.4
			L7.2,2.4z"/>
	</g>
</g>
</svg>
