<?xml version="1.0" encoding="utf-8"?>
<!-- Generator: Adobe Illustrator 23.0.1, SVG Export Plug-In . SVG Version: 6.00 Build 0)  -->
<svg version="1.1" id="Layer_1" xmlns="http://www.w3.org/2000/svg" xmlns:xlink="http://www.w3.org/1999/xlink" x="0px" y="0px"
	 viewBox="0 0 31.5 55" style="enable-background:new 0 0 31.5 55;" xml:space="preserve">
<style type="text/css">
	.st0{fill:none;stroke:#AF2A24;stroke-width:1.06;stroke-miterlimit:10;}
</style>
<title>Asset 2</title>
<g>
	<g id="Layer_6">
		<path class="st0" d="M1.9,44.7c0.9,2.1,2.2,4,3.9,5.4c1.8,1.5,3.8,2.6,6.1,3.3c2.5,0.8,5.1,1.1,7.8,1.1c2,0,3.9-0.1,5.9-0.5
			c1.9-0.3,3.7-0.8,5.4-1.5l-1-5.6c-1.5,0.7-3.2,1.3-4.8,1.6c-1.5,0.2-3.1,0.3-4.6,0.3c-1.8,0-3.7-0.2-5.5-0.7
			c-1.5-0.4-3-1.2-4.2-2.2c-1.2-1-2.1-2.2-2.7-3.6c-0.7-1.7-1-3.5-1-5.3c-0.1-1.9,0.3-3.7,1-5.5c0.7-1.4,1.6-2.7,2.9-3.6
			c1.2-1,2.6-1.7,4.1-2.1c1.6-0.5,3.3-0.7,5-0.7c1.4,0,2.7,0.1,4.1,0.4c1.5,0.3,3,0.8,4.5,1.5l1.4-5.8c-1.7-0.6-3.5-1.1-5.3-1.4
			c-1.7-0.3-3.3-0.4-5-0.4c-2.5,0-5,0.3-7.4,1.1c-2.2,0.6-4.3,1.7-6.1,3.2c-1.8,1.5-3.2,3.3-4.1,5.5c-1,2.5-1.5,5.2-1.5,7.8
			C0.5,39.6,1,42.2,1.9,44.7z"/>
	</g>
</g>
</svg>
